<svg xmlns="http://www.w3.org/2000/svg"><symbol id="control" viewBox="0 0 256 256"><ellipse cx="128.1" cy="169.1" fill="none" stroke="#000" stroke-miterlimit="10" stroke-width="3" rx="52" ry="31.9"/><ellipse cx="128.1" cy="169.1" fill="none" stroke="#000" stroke-miterlimit="10" stroke-width="3" rx="36.6" ry="22.4"/><rect width="12.3" height="55.77" x="121.9" y="113.3" fill="#fff" stroke="#000" stroke-miterlimit="10" stroke-width="3" rx="2.4" ry="2.4"/><circle cx="128.1" cy="84.1" r="29.2" fill="none" stroke="#000" stroke-miterlimit="10" stroke-width="3"/><path fill="none" stroke="#000" stroke-linecap="round" stroke-linejoin="round" stroke-width="3" d="M110.5 81.6A17.6 17.6 0 0 1 128.1 64"/></symbol><symbol id="facebook" viewBox="0 0 256 256"><path d="M113.9 187.2s.3-32.7.5-50.1c0-1.6-.5-2-2.1-2H97.5c-1.6 0-2-.5-2-2 .1-6.1.2-12.1.2-18.2 0-1.6.5-2.2 2.1-2.1l14 .2c2.8 0 2.7 0 2.8-2.7.3-7 0-13.9 1.1-20.6 1.4-9.2 6.8-16 15.8-19.2s18.4-1.8 27.6-.9c1.6.1 1.4 1.2 1.4 2.2 0 5.2-.2 10.4-.1 15.6 0 2-.9 2.5-2.7 2.5a118.1 118.1 0 0 0-11.9 0c-4.3.1-7.2 2.4-7.6 6.6s-.4 8.5-.5 12.7 0 4 4 4.1l15.6.2c.9 0 2-.2 1.8 1.3-.8 6.5-1.8 13.1-2.7 19.6a2 2 0 0 1-2.1 1.6c-4.8-.1-9.7 0-14.6-.3-1.8-.1-2.6.4-2.6 2.4-.1 17-.5 49.4-.5 49.4z"/></symbol><symbol id="footwork" viewBox="0 0 256 256"><path fill="none" stroke="#000" stroke-linecap="round" stroke-linejoin="round" stroke-width="3" d="M128.5 102.1s-9.7-4.5-18.9 9a11.9 11.9 0 0 1-5.8 4.3c-5.4 1.7-14.6 3.3-18.1-3.6-4.7-9.4-15.1-7.8-18 2.8a13.1 13.1 0 0 0-.6 3.8l-1.2 19.2a13 13 0 0 1-1.1 4.8 19.1 19.1 0 0 0-.7 10.9 5.8 5.8 0 0 0 5.6 4.5h119.4a15.7 15.7 0 0 0 6-1.2c3.7-1.7 9.1-5.1 9.3-11.3a11 11 0 0 0-7.8-10.6l-29.8-9.3-51.6-38.9s-11.2 7.3-1.5 19.7m16.8 4.1l7.7-9.4m-2 14l7.6-9.4m-2.2 13.8l7.7-9.4m-2.2 13.9l7.7-9.5m-2.2 12.8l7.6-9.5"/><path d="M65.9 136.7h70.3s9.3 9.1 20.9 9.1h47.3s.7 4.6-4.5 7.1H153c-2.2.2-15.7.8-22.3-8.1h-66z"/></symbol><symbol id="instagram" viewBox="0 0 256 256"><path d="M158.3 104.8a6.5 6.5 0 0 1-6.8-6.4c0-.1 0-.1-.1-.2V98a6.9 6.9 0 0 1 6.9-7 6.9 6.9 0 0 1 6.9 7 6.8 6.8 0 0 1-6.6 6.9z"/><path fill="none" stroke="#000" stroke-miterlimit="10" stroke-width="10.78" d="M150.1 179.8h-44.2a29.6 29.6 0 0 1-29.8-29.5v-44.5a29.7 29.7 0 0 1 29.7-29.7h44.3a29.6 29.6 0 0 1 29.7 29.7V150a29.5 29.5 0 0 1-29.5 29.8z"/><path fill="none" stroke="#000" stroke-miterlimit="10" stroke-width="10.78" d="M128.1 152.2a24.2 24.2 0 1 1 24-24.2 23.9 23.9 0 0 1-23.9 24.1z"/></symbol><symbol id="isolation" viewBox="0 0 256 256"><circle cx="127.8" cy="128" r="56.8" fill="none" stroke="#000" stroke-miterlimit="10" stroke-width="4"/><circle cx="127.8" cy="128" r="42.7" fill="none" stroke="#000" stroke-miterlimit="10" stroke-width="4"/><circle cx="127.8" cy="128" r="7.5" fill="none" stroke="#000" stroke-miterlimit="10" stroke-width="4"/><path fill="none" stroke="#000" stroke-linecap="round" stroke-linejoin="round" stroke-width="4" d="M127.8 61.6v33.7m0 65.4v33.7m33.9-66.4h33.8m-134.4 0h33.8"/></symbol><symbol id="texture" viewBox="0 0 256 256"><path fill="none" stroke="#000" stroke-miterlimit="10" stroke-width="3" d="M64 74.5c9.4 0 9.4 14 18.7 14s9.4-14 18.8-14 9.4 14 18.8 14 9.4-14 18.8-14 9.3 14 18.7 14 9.4-14 18.8-14 9.4 14 18.8 14M64 95.8c9.4 0 9.4 14 18.7 14s9.4-14 18.8-14 9.4 14 18.8 14 9.4-14 18.8-14 9.3 14 18.7 14 9.4-14 18.8-14 9.4 14 18.8 14M64 117c9.4 0 9.4 14 18.7 14s9.4-14 18.8-14 9.4 14 18.8 14 9.4-14 18.8-14 9.3 14 18.7 14 9.4-14 18.8-14 9.4 14 18.8 14M64 138.3c9.4 0 9.4 14 18.7 14s9.4-14 18.8-14 9.4 14 18.8 14 9.4-14 18.8-14 9.3 14 18.7 14 9.4-14 18.8-14 9.4 14 18.8 14m-130.8 7.2c9.4 0 9.4 14 18.8 14s9.4-14 18.8-14 9.3 14 18.7 14 9.4-14 18.8-14 9.4 14 18.8 14 9.4-14 18.7-14 9.4 14 18.8 14"/></symbol></svg>