<svg xmlns="http://www.w3.org/2000/svg"><symbol id="control" viewBox="0 0 256 256"><ellipse cx="133.1" cy="151.3" fill="none" stroke="#000" stroke-miterlimit="10" stroke-width="3" rx="29.4" ry="18.1"/><ellipse cx="133.1" cy="151.3" fill="none" stroke="#000" stroke-miterlimit="10" stroke-width="3" rx="20.7" ry="12.7"/><rect width="6.9" height="31.55" x="129.6" y="119.7" fill="#fff" stroke="#000" stroke-miterlimit="10" stroke-width="3" rx="2.4" ry="2.4"/><circle cx="133.1" cy="103.2" r="16.5" fill="none" stroke="#000" stroke-miterlimit="10" stroke-width="3"/><path fill="none" stroke="#000" stroke-linecap="round" stroke-linejoin="round" stroke-width="3" d="M123.1 101.7a9.9 9.9 0 0 1 10-9.9"/></symbol><symbol id="isolation" viewBox="0 0 256 256"><circle cx="127.8" cy="128" r="56.8" fill="none" stroke="#000" stroke-miterlimit="10" stroke-width="4"/><circle cx="127.8" cy="128" r="42.7" fill="none" stroke="#000" stroke-miterlimit="10" stroke-width="4"/><circle cx="127.8" cy="128" r="7.5" fill="none" stroke="#000" stroke-miterlimit="10" stroke-width="4"/><path fill="none" stroke="#000" stroke-linecap="round" stroke-linejoin="round" stroke-width="4" d="M127.8 61.6v33.7m0 65.4v33.7m33.9-66.4h33.8m-134.4 0h33.8"/></symbol><symbol id="footwork" viewBox="0 0 256 256"><path fill="none" stroke="#000" stroke-linecap="round" stroke-linejoin="round" stroke-width="3" d="M128.5 102.1s-9.7-4.5-18.9 9a11.9 11.9 0 0 1-5.8 4.3c-5.4 1.7-14.6 3.3-18.1-3.6-4.7-9.4-15.1-7.8-18 2.8a13.1 13.1 0 0 0-.6 3.8l-1.2 19.2a13 13 0 0 1-1.1 4.8 19.1 19.1 0 0 0-.7 10.9 5.8 5.8 0 0 0 5.6 4.5h119.4a15.7 15.7 0 0 0 6-1.2c3.7-1.7 9.1-5.1 9.3-11.3a11 11 0 0 0-7.8-10.6l-29.8-9.3-51.6-38.9s-11.2 7.3-1.5 19.7m16.8 4.1l7.7-9.4m-2 14l7.6-9.4m-2.2 13.8l7.7-9.4m-2.2 13.9l7.7-9.5m-2.2 12.8l7.6-9.5"/><path d="M65.9 136.7h70.3s9.3 9.1 20.9 9.1h47.3s.7 4.6-4.5 7.1H153c-2.2.2-15.7.8-22.3-8.1h-66z"/></symbol><symbol id="texture" viewBox="0 0 256 256"><path fill="none" stroke="#000" stroke-miterlimit="10" stroke-width="3" d="M64 74.5c9.4 0 9.4 14 18.7 14s9.4-14 18.8-14 9.4 14 18.8 14 9.4-14 18.8-14 9.3 14 18.7 14 9.4-14 18.8-14 9.4 14 18.8 14M64 95.8c9.4 0 9.4 14 18.7 14s9.4-14 18.8-14 9.4 14 18.8 14 9.4-14 18.8-14 9.3 14 18.7 14 9.4-14 18.8-14 9.4 14 18.8 14M64 117c9.4 0 9.4 14 18.7 14s9.4-14 18.8-14 9.4 14 18.8 14 9.4-14 18.8-14 9.3 14 18.7 14 9.4-14 18.8-14 9.4 14 18.8 14M64 138.3c9.4 0 9.4 14 18.7 14s9.4-14 18.8-14 9.4 14 18.8 14 9.4-14 18.8-14 9.3 14 18.7 14 9.4-14 18.8-14 9.4 14 18.8 14m-130.8 7.2c9.4 0 9.4 14 18.8 14s9.4-14 18.8-14 9.3 14 18.7 14 9.4-14 18.8-14 9.4 14 18.8 14 9.4-14 18.7-14 9.4 14 18.8 14"/></symbol></svg>