<svg id="Layer_1" data-name="Layer 1" xmlns="http://www.w3.org/2000/svg" width="16" height="16" viewBox="0 0 16 16"><title>Artboard 4</title><path d="M7,4a1,1,0,0,1-.7-1.1,1,1,0,0,1,.8-1,.9.9,0,0,1,1.1.8.4.4,0,0,0,.4.4,2.5,2.5,0,0,1,3,2.5,4.7,4.7,0,0,1-.8,2.6L6.2,14.1c-.1.1-.2,0-.1-.1S9,8.7,9,7A3.1,3.1,0,0,0,7,4Z" fill="#f4da40"/><path d="M6.8,4.6a2.4,2.4,0,0,1,1.5,2,5.6,5.6,0,0,1-.7,2.9c-.4,1-.9,2-1.4,3l-.4.8-.2.3H5.5c0,.1,0,.1-.1.2v.4a.7.7,0,0,0,.5.4.6.6,0,0,0,.7-.1h.2l1-1.4,2.1-2.6L11,9a6.1,6.1,0,0,0,.9-1.6,4.3,4.3,0,0,0,.4-1.9,3.9,3.9,0,0,0-.8-2,2.7,2.7,0,0,0-1.8-1H8.8a1,1,0,0,0-.4-.7,1.4,1.4,0,0,0-.8-.5H6.8L6,1.8a1.1,1.1,0,0,0-.3.7,1.1,1.1,0,0,0,0,.8A1.6,1.6,0,0,0,6.8,4.6l.4-1.3c-.2,0-.2-.1-.3-.2s0-.1.1-.3V2.6h.2c0-.1.2-.1.2-.1s0,0,.1.1h0v.2a1.1,1.1,0,0,0,1.2.9h.7a2.3,2.3,0,0,1,1.2.6,2.4,2.4,0,0,1,.1,2.5,3.1,3.1,0,0,1-.8,1.3l-1,1.4L6.8,12.2,5.7,13.6h0c-.5-.3.5.4.4.4h0l.6.3h0l.2-.4.4-.8A17.7,17.7,0,0,0,8.8,10a4.9,4.9,0,0,0,.6-1.7,2.9,2.9,0,0,0,.2-.9,1.7,1.7,0,0,0,0-1A3.8,3.8,0,0,0,7.2,3.3Z" fill="none"/><path d="M6.6,3.7h0Z" fill="#d7c53b" fill-rule="evenodd"/><path d="M6.5,3.6Z" fill="#d7c53b" fill-rule="evenodd"/><path d="M6.5,3.4h0Z" fill="#d7c53b" fill-rule="evenodd"/><path d="M6.7,2.8h0Z" fill="#d7c53b" fill-rule="evenodd"/><path d="M6.5,3.5h0Z" fill="#d7c53b" fill-rule="evenodd"/><path d="M6.7,2.7h0Z" fill="#d7c53b" fill-rule="evenodd"/><path d="M6.4,3h0Z" fill="#d7c53b" fill-rule="evenodd"/><path d="M6.8,2.5h0c.1,0,0-.1.1-.1H6.8Z" fill="#d7c53b" fill-rule="evenodd"/><path d="M6.4,2.9Z" fill="#d7c53b" fill-rule="evenodd"/><path d="M6.4,2.8h0Z" fill="#d7c53b" fill-rule="evenodd"/><path d="M7.2,2.3h0Z" fill="#d7c53b" fill-rule="evenodd"/><path d="M6.5,2.5h0Z" fill="#d7c53b" fill-rule="evenodd"/><path d="M7.1,2.2c.1,0,.1,0,.1-.1h0A.1.1,0,0,1,7.1,2.2Z" fill="#d7c53b" fill-rule="evenodd"/><path d="M6.6,2.2h0Z" fill="#d7c53b" fill-rule="evenodd"/><path d="M6.8,2.1h0Z" fill="#d7c53b" fill-rule="evenodd"/><path d="M7.6,2.3Z" fill="#d7c53b" fill-rule="evenodd"/><path d="M7.7,2.3h0Z" fill="#d7c53b" fill-rule="evenodd"/><path d="M7.7,2.6h0Z" fill="#d7c53b" fill-rule="evenodd"/><path d="M6.6,2.1h0Z" fill="#d7c53b" fill-rule="evenodd"/><path d="M6.8,2h.1C6.9,1.9,6.8,2,6.8,2Z" fill="#d7c53b" fill-rule="evenodd"/><path d="M6.8,1.9Z" fill="#d7c53b" fill-rule="evenodd"/><path d="M7.8,2.5h0Z" fill="#d7c53b" fill-rule="evenodd"/><path d="M6.1,2.3h0Z" fill="#d7c53b" fill-rule="evenodd"/><path d="M6.1,2.3Z" fill="#d7c53b" fill-rule="evenodd"/><path d="M6.2,2.2Z" fill="#d7c53b" fill-rule="evenodd"/><path d="M7.8,2.6h0Z" fill="#d7c53b" fill-rule="evenodd"/><path d="M5.8,2.5a.1.1,0,0,0,.1-.1Z" fill="#d7c53b" fill-rule="evenodd"/><path d="M7.9,3.1h0Z" fill="#d7c53b" fill-rule="evenodd"/><path d="M6.8,1.8s.1-.1,0-.1Z" fill="#d7c53b" fill-rule="evenodd"/><path d="M7.5,1.8h0Z" fill="#d7c53b" fill-rule="evenodd"/><path d="M6.2,2V2Z" fill="#d7c53b" fill-rule="evenodd"/><path d="M8.1,3.3Z" fill="#d7c53b" fill-rule="evenodd"/><path d="M7.2,1.7h0Z" fill="#d7c53b" fill-rule="evenodd"/><path d="M8.4,3.4h0Z" fill="#d7c53b" fill-rule="evenodd"/><path d="M8.6,3.4h.2c-.1,0,0,0-.1-.1S8.6,3.4,8.6,3.4Z" fill="#d7c53b" fill-rule="evenodd"/><path d="M7.3,1.5h0Z" fill="#d7c53b" fill-rule="evenodd"/><path d="M9,3.5H9Z" fill="#d7c53b" fill-rule="evenodd"/><path d="M8.2,2.8h0Z" fill="#d7c53b" fill-rule="evenodd"/><path d="M8.2,2.1h0Z" fill="#d7c53b" fill-rule="evenodd"/><path d="M8.5,2.9h0Z" fill="#d7c53b" fill-rule="evenodd"/><path d="M8.6,2.4h0Z" fill="#d7c53b" fill-rule="evenodd"/><path d="M8.4,1.7c0,.1.1.1.1.2Z" fill="#d7c53b" fill-rule="evenodd"/><path d="M9.3,3.1h0Z" fill="#d7c53b" fill-rule="evenodd"/><path d="M8.7,2.5Z" fill="#d7c53b" fill-rule="evenodd"/><path d="M9.5,3h0Z" fill="#d7c53b" fill-rule="evenodd"/><path d="M8.8,2.5c-.1.1,0,.1,0,0Z" fill="#d7c53b" fill-rule="evenodd"/><path d="M8.8,2.4Z" fill="#d7c53b" fill-rule="evenodd"/><path d="M9.1,2.6h0Z" fill="#d7c53b" fill-rule="evenodd"/><path d="M9.5,2.7Z" fill="#d7c53b" fill-rule="evenodd"/><path d="M9.6,2.7h0Z" fill="#d7c53b" fill-rule="evenodd"/><path d="M10.8,3.6h.1s-.1-.1,0-.1Z" fill="#d7c53b" fill-rule="evenodd"/><path d="M10.9,3.7Z" fill="#d7c53b" fill-rule="evenodd"/><path d="M11,3.9h0Z" fill="#d7c53b" fill-rule="evenodd"/><path d="M10.2,2.9Z" fill="#d7c53b" fill-rule="evenodd"/><path d="M10.1,2.8h0Z" fill="#d7c53b" fill-rule="evenodd"/><path d="M10.3,2.9s-.1,0,.1.1Z" fill="#d7c53b" fill-rule="evenodd"/><path d="M10.4,3c.1.1.1.1.1,0Z" fill="#d7c53b" fill-rule="evenodd"/><path d="M11.2,4.1h0Z" fill="#d7c53b" fill-rule="evenodd"/><path d="M11.4,4.5v.2c0-.1-.1-.1-.1-.2Z" fill="#d7c53b" fill-rule="evenodd"/><path d="M11,3.4Z" fill="#d7c53b" fill-rule="evenodd"/><path d="M11,3.4h0Z" fill="#d7c53b" fill-rule="evenodd"/><path d="M11.5,4.9Z" fill="#d7c53b" fill-rule="evenodd"/><path d="M11.5,4h0C11.5,3.9,11.4,3.9,11.5,4Z" fill="#d7c53b" fill-rule="evenodd"/><path d="M12.1,5.4h0Z" fill="#d7c53b" fill-rule="evenodd"/><path d="M12.1,6.4h0c-.1,0-.1.1,0,.1h0c0,.1-.1.1-.1.2a.1.1,0,0,0,.1-.1h0Z" fill="#d7c53b" fill-rule="evenodd"/><path d="M12,6.8h0Z" fill="#d7c53b" fill-rule="evenodd"/><path d="M11.9,7h0Z" fill="#d7c53b" fill-rule="evenodd"/><path d="M11.9,7.1a.1.1,0,0,1-.1.1c.1,0,.1,0,.1-.1Z" fill="#d7c53b" fill-rule="evenodd"/><path d="M11.8,7.3Z" fill="#d7c53b" fill-rule="evenodd"/><path d="M11.8,7.3h0Z" fill="#d7c53b" fill-rule="evenodd"/><path d="M11.8,7.4h0Z" fill="#d7c53b" fill-rule="evenodd"/><path d="M11.5,7.9h0Z" fill="#d7c53b" fill-rule="evenodd"/><path d="M11.3,8.2h0Z" fill="#d7c53b" fill-rule="evenodd"/><path d="M11.2,8.4h0Z" fill="#d7c53b" fill-rule="evenodd"/><path d="M11.2,8.5h0Z" fill="#d7c53b" fill-rule="evenodd"/><path d="M11,8.7h0Z" fill="#d7c53b" fill-rule="evenodd"/><path d="M11,8.7a.1.1,0,0,1-.1.1Z" fill="#d7c53b" fill-rule="evenodd"/><path d="M10.9,8.9Z" fill="#d7c53b" fill-rule="evenodd"/><path d="M10.7,9.1Z" fill="#d7c53b" fill-rule="evenodd"/><path d="M8.6,11.6h0Z" fill="#d7c53b" fill-rule="evenodd"/><path d="M8.1,12.3h0Z" fill="#d7c53b" fill-rule="evenodd"/><path d="M7.5,13.1h0Z" fill="#d7c53b" fill-rule="evenodd"/><path d="M7.2,13.5h0Z" fill="#d7c53b" fill-rule="evenodd"/><path d="M6.6,14.2h0Z" fill="#d7c53b" fill-rule="evenodd"/><path d="M6,13.3Z" fill="#d7c53b" fill-rule="evenodd"/><path d="M8.3,10.9c0-.1.1-.1.1-.2Z" fill="#d7c53b" fill-rule="evenodd"/><path d="M8.4,10.7h0Z" fill="#d7c53b" fill-rule="evenodd"/><path d="M6.8,11.7h.1c-.1.1-.1.1-.1.2Z" fill="#d7c53b" fill-rule="evenodd"/><path d="M7,11.5Z" fill="#d7c53b" fill-rule="evenodd"/><path d="M6.9,11.5Z" fill="#d7c53b" fill-rule="evenodd"/><path d="M7.8,9.5h0Z" fill="#d7c53b" fill-rule="evenodd"/><path d="M7.8,9.4h0Z" fill="#d7c53b" fill-rule="evenodd"/><path d="M7.9,9.2V9H8A.4.4,0,0,1,7.9,9.2Z" fill="#d7c53b" fill-rule="evenodd"/><path d="M8,9H8Z" fill="#d7c53b" fill-rule="evenodd"/><path d="M8.1,8.8h0Z" fill="#d7c53b" fill-rule="evenodd"/><path d="M8.1,8.7h0C8.2,8.6,8.1,8.7,8.1,8.7Z" fill="#d7c53b" fill-rule="evenodd"/><path d="M8,8.6H8Z" fill="#d7c53b" fill-rule="evenodd"/><path d="M8.2,8.3Z" fill="#d7c53b" fill-rule="evenodd"/><path d="M8.1,8.5v0Z" fill="#d7c53b" fill-rule="evenodd"/><path d="M8.3,8Z" fill="#d7c53b" fill-rule="evenodd"/><path d="M8.3,8V8Z" fill="#d7c53b" fill-rule="evenodd"/><path d="M8.4,7.6h0a.3.3,0,0,1-.1.2C8.4,7.8,8.4,7.6,8.4,7.6Z" fill="#d7c53b" fill-rule="evenodd"/><path d="M8.3,7.8c.1-.1.1-.1.1-.2S8.3,7.7,8.3,7.8Z" fill="#d7c53b" fill-rule="evenodd"/><path d="M8.3,7.6h0Z" fill="#d7c53b" fill-rule="evenodd"/><path d="M8.3,7.6h0Z" fill="#d7c53b" fill-rule="evenodd"/><path d="M8.4,7.4h0V7.1h0v.2Z" fill="#d7c53b" fill-rule="evenodd"/><path d="M8.4,7.2h0Z" fill="#d7c53b" fill-rule="evenodd"/><path d="M8.4,7.1h0Z" fill="#d7c53b" fill-rule="evenodd"/><path d="M8.4,7Z" fill="#d7c53b" fill-rule="evenodd"/><path d="M6.9,3.9H6.7c0,.1.1.1.2.1h0Z" fill="#d7c53b" fill-rule="evenodd"/><path d="M6.5,3.3h0Z" fill="#d7c53b" fill-rule="evenodd"/><path d="M6.4,3.1h0V2.9a.3.3,0,0,1,.1-.2s-.1.1,0,.1V2.6h0c.1,0,.1,0,.1.1h0a.3.3,0,0,1,.1-.2H7s0-.1-.1,0A.1.1,0,0,1,7,2.1h.1c0,.1,0,.1-.1.1h.4c.1,0,0,0,0,.1s0,0-.1-.1h.3l.2.2c0,.1.1.2,0,.3h0v.2A.1.1,0,0,0,8,3a.1.1,0,0,0-.1.1H8l.4.3h1.8c1.2.7,1.2,2.5.5,3.7l-.3.4-.4.5-.7.9L7.8,11.2h0l.4-.5h.1l.3-.3.2-.3h0l.3-.4h0L9.5,9h.1c0-.1.1-.1.1-.2h.1c.1-.1,0,0,0-.1H10V8.2h.1V7.9h0c.1,0,.2-.2.2-.3h.2a9.4,9.4,0,0,0,.3-.9h0a1.7,1.7,0,0,0,.1-.7h0V5.6h0V5.2h0c0-.1-.1-.2-.1-.3h0V4.4c-.1,0,0,.1,0,.1l-.3-.4-.3-.2H9.8a.1.1,0,0,1-.1-.1h.1c0-.1,0-.1-.1-.1H9.3s.1,0,0-.1-.1,0-.1,0H8.3A1,1,0,0,1,7.8,3h.1a.4.4,0,0,1-.1-.3h0c-.1-.1-.1-.1-.1-.2H6.9a.1.1,0,0,1,.1.1h.4c.1,0,.1,0,.1.1h0a.1.1,0,0,0-.1-.1h.2c.1.1.1.1.1.2h0l.2.4h.4s.2.1.2,0,0,.1.1.1h.7c0,.1.2.1.2.1h.4a.1.1,0,0,1,.1.1h0l.4.3h0l.3.3h.1v.2h0a.8.8,0,0,1,.1.4c0,.1,0,0,.1.1V6.5h0v.6h-.1c0,.2-.2.3-.3.5l-.2.2v.2l-.3.4L9,9.4H9l-.4.4H8.5L5.8,13.7H5.7l.4.3h0l.5.2h0l.2-.3h0c0-.1.1-.1.1-.2h0v-.2l.5-.9h0c.1,0,.1-.1.1-.2h0a.1.1,0,0,0,.1-.1.4.4,0,0,0,.1-.3h.1v-.2c.1,0,0,.1,0,.1l.2-.3h0v-.2h.1v-.2h0c.1-.1.1-.3.2-.4s0-.2.1-.2h0v.4a.8.8,0,0,0,.2-.4h0a.1.1,0,0,0,0-.2h.1V9.7a.8.8,0,0,0,.2-.4c0-.1.1-.2.1-.3a1.9,1.9,0,0,1,.2-.7c-.1,0,0-.2,0-.2h0c0-.2.1-.5.1-.7h0V6.4c0-.1-.1-.3-.1-.4H9c0-.1-.1-.3-.2-.3s-.1-.4-.2-.4l-.3-.3L8,4.6h.3a.1.1,0,0,1-.1-.1,4.3,4.3,0,0,1,.4.7h.1v.2H8.7c0-.1,0-.1-.1-.2h0V5.3c0,.1.1.1.1.2V5.3l-.2-.2-.4-.4h.3a.1.1,0,0,0,.1.1h0l-.2-.3H8l-.2-.2H7.7l-.2-.2H7.2c0,.1.1.1.2.2h.2a.1.1,0,0,1-.1-.1h0l.3.2H7.7a.1.1,0,0,1,.1.1H8c0,.1.1.1.1.2H8c0,.1.1.1,0,.1h.2a.8.8,0,0,1,.1.4h.1c-.1,0,0,.2,0,.2h.1v.2h0v0h0c0-.1-.1-.2,0-.3v.5H8.4v.2H8.3a.1.1,0,0,1-.1.1h0v.4H8.1v.3H8v.4c-.1,0,0-.1,0,0h0v.2H7.7l-.2.4H7.2a.3.3,0,0,0-.1.2H7v.2h0c0,.1,0,.1-.1.1h0a.1.1,0,0,1,.1-.1H6.7c-.1,0-.1-.1,0-.1H6.2l-.2.3H5.8c.1,0,0,.1,0,.1s0,.1-.1.1h0v.3h0c-.1.4.4.6.8.3l-.3.2h.3a.5.5,0,0,1-.7,0c.2.1.4.2.5.1l.2-.2h0a.1.1,0,0,0,.1-.1h.1c.1,0,0,.1,0,.1l.2-.2h0v-.2h.1v-.2h.5l.3-.3h.1a.1.1,0,0,1,.1-.1h0l.2-.2h.2l-.2.2H8.3l.3-.2h0v-.2h.1c.1,0,.1-.1.1-.2H9V11h.1s-.1,0,0-.1h.3c-.1,0,0-.1,0-.1h.1c.1,0,.1,0,.1-.1h0v.2h.1a.1.1,0,0,0-.1-.1h.1V10H10c-.1,0,0,0,0-.1h.1a.1.1,0,0,1,.1-.1L10,10h.1s-.1.1,0,.1h.1V9.5h0V9.4h.1a.1.1,0,0,1,.1-.1.1.1,0,0,0-.1.1h-.1l.3-.3h0c-.1,0,0,0,0-.1h0v.2h.2a.3.3,0,0,0,.1-.2h.4c0-.1-.1,0-.1,0h.3V7.5h0V7.4c.1,0,0,.1,0,.1h.1s0-.1.1,0V6.9h0a.1.1,0,0,1,.1-.1h.1V5.6h0V5.3h0V5h0v.2a2.1,2.1,0,0,0-.2-.6h-.1c0-.1,0-.1-.1-.1s-.1-.3-.2-.5-.1,0-.1-.1h0c-.1-.1-.1,0-.1-.1h-.1c0-.1,0,0,.1,0L11,3.2h-.2c-.1-.1,0,0,.1,0h0l-.3-.2H8.8c0-.1-.1,0,0,0H8.7s.1-.1,0-.1h0c0-.1,0,0,.1,0s0,0,0-.1-.1-.1-.1-.2l-.2-.2c.1,0,.1.1.1.2h0c.1,0,.1,0,.1.1h0v.2h.1c.1,0,.1,0,.1.1s0-.1.1-.1H9c0,.1,0,.1.1.1h.3c.1,0,.2,0,.2.1h1a.1.1,0,0,0,.1.1h.2c-.1,0,0,.1,0,.1h.2c.1.1.1.1.1.2h0c0-.1,0-.1-.1-.1h.2c-.1,0,0,.1.1.1h0a.1.1,0,0,0,.1.1h0c0-.1,0,0,.1,0h0c0,.1.1.1.1.2h.1V4.3h-.1s.1,0,0-.1h0a.1.1,0,0,0-.1-.1h-.1a.8.8,0,0,0-.2-.4h0l.2.3h-.2c0-.1.1,0,0-.1h-.4c-.1-.1,0,0,0-.1h-.4c0-.1,0,0-.1-.1h0c-.1,0,0,0-.1-.1s-.2,0-.2-.1H9.2c-.1,0-.2,0-.2-.1H8.7c0-.1-.1-.1,0-.1h0V2.2s-.1-.1-.1,0V2c-.1,0,.1.2,0,.2h0A.1.1,0,0,0,8.4,2H8c0-.1.1,0,.1-.1H7.7c0-.1.1,0,0-.1H6.4c-.1.1,0,0-.1,0s.1,0-.1.1h0c.1,0,.1,0,.1-.1v.2H6.1a.3.3,0,0,1-.1.2H6c0,.1-.1.1-.1.2h0c0-.1.1-.1.1-.2H6A.1.1,0,0,0,6.1,2h.1V1.8H7c0,.1-.1.1-.2.1H7.9c-.1,0,.1.1.2.2l-.3-.2H7c.1,0,.2,0,.2-.1H6.8c-.1.1,0,.1,0,.1s-.2,0-.2.1-.2.1-.3.2h.1a.1.1,0,0,1,.1-.1h.2c0-.1.1-.1.2-.1H7a1,1,0,0,1,1,.2h.2c0,.1.1.1.1.2s0,.1,0,.2h0c.1.1.1.1,0,.1h1s-.1-.1,0-.1,0,.1.1.1H9.3c.1-.1.1,0,.1,0h1c.1.1,0,0,0,.1h.4s-.1,0,0,.1h0c.1,0,.1,0,.1.1H11l.3.4h0c.1,0,.1.2.2.3h0v.2h0v.2h0v.2h0v.2h0a.1.1,0,0,1,.1.1h-.1v.2h0V5.5h0v0h0c-.1,0-.1-.1-.1-.2h0V4.8h-.1V4.4h-.2a.3.3,0,0,0-.1-.2h0a.1.1,0,0,0-.1-.1h-.4c0-.1.1,0,0-.1h-.1c-.1-.1,0,0,0-.1s-.1,0-.2,0,0,0-.1-.1H9.1c0-.1,0,0-.1,0H8.3c-.1,0-.1-.2-.1-.1h0a.3.3,0,0,1-.1-.2h.1V2.3H8.1L7.9,2h0a.1.1,0,0,1-.1-.1h0c.1,0,0-.1.1,0H7.7q.1,0,.3.3H8c-.1-.1-.1-.2-.2-.2H6.9c.1,0,.1,0,0,.1h.9a.1.1,0,0,1,.1.1.3.3,0,0,1,.1.2H8V2.2H7.8c0-.1-.1-.1-.1-.2s-.1,0-.1,0H6.9a.1.1,0,0,1-.1.1h0c-.1,0,0-.1,0-.1H6.7c-.1,0-.1.1-.2.2h0c0,.1,0,.2-.1.2h.1c-.1.1-.1.1-.1.2h0c-.1,0,0,.1-.1.1h.1v.2Zm1.8.2h0Zm2.5.9h0ZM8.5,5.5h0Zm-.3.2h0Zm-.9,5.2h0ZM5.9,13.5h0ZM7.5,13h0ZM8.7,2.5Zm.5.2h0ZM6.3,1.8Zm3.9,1.5h0ZM8.4,3h0Zm-.3-.8A.1.1,0,0,1,8,2.1Zm-1.7.7Zm.7-.8Zm.7.4Zm.1.3h0Zm-1.2-1c0-.1.1-.1.2-.1ZM8.8,3.6H8.6A.1.1,0,0,1,8.8,3.6ZM8,2.4H8ZM6.7,1.7c-.1,0-.1.1-.1,0Zm0,0h.1c0,.1.1,0,0,.1ZM7,1.6H7Zm1.1.7Zm-.8-.7Zm-.7,0H6.5S6.7,1.5,6.6,1.6Zm1.5.9h0Zm.6.9h0ZM8.1,2.3ZM7,1.5H6.9C6.9,1.4,7,1.5,7,1.5Zm.7.2h0Zm-.4-.2h0ZM8.3,3h0s-.1,0,0-.1a.1.1,0,0,1-.1-.1h0v.2h0c0,.1,0,.1.1.1H8.3ZM7.8,1.7Zm1.8,2h0Zm-.3-.2a.1.1,0,0,1-.1-.1Zm-1.6-2Zm.4.4Zm-.3-.4h.1c-.2-.1.1,0,0,0s-.2,0-.2-.1Zm.5.6c0-.1-.1-.1-.1-.2A.3.3,0,0,0,8.3,2.1Zm0,.1h0C8.2,2.1,8.3,2.1,8.3,2.2Zm0,.3v0ZM8,1.6c0,.1.1.1.1.2H8Zm.6,1.5h0ZM8.2,1.8h0ZM9.7,3.6h0ZM8,1.6h.3c0,.1.1.1.1.2s-.1-.2-.2-.2h0c0-.1-.1-.1,0-.1s-.3-.1-.3-.2S7.9,1.6,8,1.6Zm.4.6a.1.1,0,0,1-.1-.1C8.3,2.2,8.3,2.1,8.4,2.2Zm-.3-.5h0Zm.6,1.4Zm0,0h0ZM8.4,2c0,.1-.1,0,0,.1h0ZM10,3.7h0ZM8.3,2h.1a.1.1,0,0,1-.1-.1Zm.1.8Zm0-.6a.3.3,0,0,1,.1.2.3.3,0,0,0-.1-.2Zm.1.3Zm-.1-.4Zm.6,1Zm-.5-.5Zm1.8,1.3h0ZM8.5,2.8h0Zm.8.3a.1.1,0,0,0,.1.1C9.3,3.2,9.2,3.2,9.3,3.1Zm-.7-.6Zm0,.1h0c0-.1-.1,0-.1-.1S8.6,2.7,8.6,2.6ZM10.5,4c0,.1-.1,0,0,.1h0Zm-1-.8h0Zm-.9-.9Zm0,.4Zm.9.5h0ZM9,2.9H9Zm-.4-.4Zm1,.7Zm0-.1h0Zm-.9-.8Zm2.1,2.1ZM9.6,3h0Zm.7.5a.1.1,0,0,1-.1-.1C10.2,3.5,10.2,3.4,10.3,3.5ZM9.7,3h0ZM11,4.8h0ZM8.8,2.5Zm.6.2h0Zm1.2.8ZM9.3,2.6h0Zm.8.4h0Zm-.3-.2h0Zm.3.1a.1.1,0,0,0,.1.1h-.1C10,3,10,3,10,2.9Zm.6.6a.1.1,0,0,1-.1-.1A.1.1,0,0,1,10.7,3.5ZM9.6,2.6H9.5C9.5,2.6,9.5,2.6,9.6,2.6Zm-.2,0c0-.1-.1,0-.1-.1h.2C9.4,2.5,9.4,2.6,9.4,2.6Zm.2,0h0Zm.6.4c0-.1,0-.1-.1-.1A.1.1,0,0,1,10.2,3Zm-.1-.1Zm.2.1a.1.1,0,0,0,.1.1h-.1Zm.9,1.3h0Zm-.1,1.1ZM9.7,2.6h0Zm1.4,1.5h0Zm-1-1.4h0ZM11,3.8a.1.1,0,0,1,.1.1Zm-.4-.7h0Zm-.4-.3Zm.6.5h0Zm.2.2a.1.1,0,0,1-.1-.1H11Zm-.2-.2a.1.1,0,0,0,.1.1Zm-.5-.4h0Zm.6.5h-.1A.1.1,0,0,1,10.9,3.4Zm.1,0h-.1c.1,0,.1,0,.1.1h0Zm.1.2-.2-.2A.2.2,0,0,1,11.1,3.6Zm-.7-.8h0Zm.2.2Zm0-.1c0,.1-.1,0,0,0h0Zm.5.7h0Zm.1,0h0Zm-.3-.4c.1.1,0,.1,0,.1Zm-.1-.1Zm.4.5ZM11,3.2h-.1A.1.1,0,0,0,11,3.2Zm.2.2h0Zm0,0h-.1C11.1,3.4,11.1,3.3,11.2,3.4Zm.2.3h0Zm.3.9h0S11.8,4.6,11.7,4.6Zm-.1,1Zm.1-1h0Zm.1,0Zm-.1-.4h.1a.1.1,0,0,1-.1-.1Zm.1.4Zm0,.2h0Zm0,.1h0Zm-.2,1h0v.4h0Zm.2-1.1h0Zm0-.4h0Zm0,.8h0Zm.1.3h0V5.1h0v.3h0v.2h0c0,.1.1.2,0,.2Zm0,0h0Zm-.1-1.1c.1,0,.1.1.1.2Zm.1.4Zm0,.2h0Zm0-.4Zm-.3,1.7Zm-.1.1h.1C11.6,6.4,11.6,6.4,11.5,6.4Zm.4-1.1h0Zm.1-.2h0Zm-.1.6h0Zm0,.2h0Zm0-.1h0V5.7ZM10.3,8h0Zm1.1-1.1Zm.5-.7h0v0Zm.2-.8v.2h0Zm-.2.8h0Zm.2-.4h0Zm0-.1Zm-.3.7h0Zm.2-.2h0Zm.1-.4Zm-.3,1V6.6h0ZM9.9,8.5h0Zm1.3-1h0c-.1,0,0-.1,0-.1Zm.9-1.4V5.9h0Zm-.5.8h0Zm.1,0h-.1a.3.3,0,0,0,.1-.2Zm.4-.8h0Zm-.1.2h0Zm-.3.6h0Zm.4-.7v.2h0Zm-.1.3h0Zm-.4.7h.1A.1.1,0,0,0,11.6,7.2Zm-.1.3h0Zm0,0v0Zm-.2.3h0Zm0-.1v.2a.3.3,0,0,1,.1-.2Zm0,0v.2h0Zm-.2.3h0Zm.5-.4h0Zm.1-.1Zm-.1.2h0Zm0,0h0S11.7,7.6,11.6,7.7Zm-.7.6h0Zm.6-.5h0Zm-.5.4a.3.3,0,0,1-.1.2h0C11,8.3,11,8.3,11,8.2Zm-.2.3c-.1,0,0-.1,0-.1h0Zm-.1.1Zm-.2.1h0ZM8.4,10.4h0Zm1.9-1.2c-.1,0,0-.1,0-.1Zm-2,1.3h0Zm-.2.2h.1S8.1,10.8,8.1,10.7Zm2.3-1.4a.1.1,0,0,0,.1-.1A.1.1,0,0,1,10.4,9.3Zm-.1.2h0c-.1,0,0-.1,0-.1h-.1V9.4h.1Zm0,0h0ZM7.8,11.3h0Zm2.4-1.6h0C10.3,9.6,10.2,9.6,10.2,9.7Zm-.1.1H10S10.1,9.7,10.1,9.8Zm.1,0h-.1a.1.1,0,0,0,.1-.1h0ZM7.5,11.6ZM9.9,10h0ZM7.4,11.8h0C7.4,11.8,7.3,11.8,7.4,11.8Zm2.3-1.6h0ZM7.1,12.1h0Zm2.4-1.6h0ZM7,12.3H7Zm2.4-1.7ZM6.9,12.3h0Zm2.4-1.6h0Zm0,.1h0c0-.1,0-.1.1-.2H9.3ZM6.8,12.5Zm2.5-1.7h0Zm-.1.1h0Zm-.2.2H9Zm-.1.2c0-.1,0-.1.1-.1A.1.1,0,0,0,8.9,11.3Zm0-.1h0Zm-.1.2h0Zm0,0h0Zm-.2.2Zm-.3.5h0Zm-2.2,1h.1v.2h0Zm.2-.3h0ZM8.6,10h0Zm0,.1ZM6.7,12h0Zm2-2.2Zm-1.9,2h0Zm1.9-2h0Zm-.8-.5h0ZM8,9.2a.1.1,0,0,1-.1.1Zm0-.1H8ZM9,6.4H9v.2H9Zm-.1-.3h0c0,.1.1.1.1.2ZM8.5,7.5v0Zm.3-1.6h.1ZM8.5,7h0Zm0-1.8Zm0,.4ZM8.4,6h0Zm-.1-.2h0Zm-.1-.1h0Zm0,0ZM7.3,4.6h0Z" fill="#d7c53b" fill-rule="evenodd"/><path d="M12,4.6h0a.8.8,0,0,0,.1.4V4.7h0Z" fill="#d7c53b" fill-rule="evenodd"/><path d="M6.8,2.5Z" fill="#d7c53b" fill-rule="evenodd"/><path d="M7.7,2.3Z" fill="#d7c53b" fill-rule="evenodd"/><path d="M6.7,2Z" fill="#d7c53b" fill-rule="evenodd"/><path d="M7.3,2Z" fill="#d7c53b" fill-rule="evenodd"/><path d="M7.2,1.9Z" fill="#d7c53b" fill-rule="evenodd"/><path d="M7.7,2.6a.1.1,0,0,0,.1.1h0V3h.1a.4.4,0,0,1-.1-.3h0C7.8,2.6,7.8,2.6,7.7,2.6Z" fill="#d7c53b" fill-rule="evenodd"/><path d="M7.1,1.9h0Z" fill="#d7c53b" fill-rule="evenodd"/><path d="M8,3.4H8Z" fill="#d7c53b" fill-rule="evenodd"/><path d="M5.8,2.6h0Z" fill="#d7c53b" fill-rule="evenodd"/><path d="M7.3,1.8h0Z" fill="#d7c53b" fill-rule="evenodd"/><path d="M8,3.1H8C8.1,3.2,8,3.2,8,3.1Z" fill="#d7c53b" fill-rule="evenodd"/><path d="M6.7,1.7h0Z" fill="#d7c53b" fill-rule="evenodd"/><path d="M8,1.9h.1A.1.1,0,0,0,8,1.9Z" fill="#d7c53b" fill-rule="evenodd"/><path d="M9.2,3.5h0Z" fill="#d7c53b" fill-rule="evenodd"/><path d="M9.4,3.5c0,.1,0,.1.1.1h0A.1.1,0,0,1,9.4,3.5Z" fill="#d7c53b" fill-rule="evenodd"/><path d="M9.5,3.6H9.4a.1.1,0,0,1,.1.1h0Z" fill="#d7c53b" fill-rule="evenodd"/><path d="M8.1,1.5h0Z" fill="#d7c53b" fill-rule="evenodd"/><path d="M8.7,2.5Z" fill="#d7c53b" fill-rule="evenodd"/><path d="M8.7,2.6h.1c0-.1-.1,0-.1-.1Z" fill="#d7c53b" fill-rule="evenodd"/><path d="M10.3,3.3h0Z" fill="#d7c53b" fill-rule="evenodd"/><path d="M9.7,2.7h0Z" fill="#d7c53b" fill-rule="evenodd"/><path d="M10,2.8h0Z" fill="#d7c53b" fill-rule="evenodd"/><path d="M9.9,2.8h0Z" fill="#d7c53b" fill-rule="evenodd"/><path d="M10.4,3Z" fill="#d7c53b" fill-rule="evenodd"/><path d="M11,3.1h0Z" fill="#d7c53b" fill-rule="evenodd"/><path d="M11.4,3.8Z" fill="#d7c53b" fill-rule="evenodd"/><path d="M11.5,5h.1s-.1.1,0,.1h-.1Z" fill="#d7c53b" fill-rule="evenodd"/><path d="M11.8,4.1v0h0Z" fill="#d7c53b" fill-rule="evenodd"/><path d="M11.9,4.2v.2c.1,0,.1.2.1.2h0a.3.3,0,0,1-.1-.2h0Z" fill="#d7c53b" fill-rule="evenodd"/><path d="M11.9,4.1c-.1,0,.1.3.1.3A.4.4,0,0,1,11.9,4.1Z" fill="#d7c53b" fill-rule="evenodd"/><path d="M12.1,4.9h0Z" fill="#d7c53b" fill-rule="evenodd"/><path d="M12.2,5.5v.3h.1c-.1,0,0-.1,0-.1h0Z" fill="#d7c53b" fill-rule="evenodd"/><path d="M12.2,5.5h0Z" fill="#d7c53b" fill-rule="evenodd"/><path d="M12.1,5.9v.2C12.2,6.1,12.1,5.9,12.1,5.9Z" fill="#d7c53b" fill-rule="evenodd"/><path d="M11.9,7h0Z" fill="#d7c53b" fill-rule="evenodd"/><path d="M11.7,7.6h0Z" fill="#d7c53b" fill-rule="evenodd"/><path d="M11.4,8.1h0Z" fill="#d7c53b" fill-rule="evenodd"/><path d="M10.9,8.9h-.2V8.9h.1Z" fill="#d7c53b" fill-rule="evenodd"/><path d="M9.9,10.1h0Z" fill="#d7c53b" fill-rule="evenodd"/><path d="M9.3,10.9h0Z" fill="#d7c53b" fill-rule="evenodd"/><path d="M8.7,11.6Z" fill="#d7c53b" fill-rule="evenodd"/><path d="M5.7,14.2c0,.1-.1-.1,0-.3h0C5.6,13.9,5.6,14.1,5.7,14.2Z" fill="#d7c53b" fill-rule="evenodd"/><path d="M8.1,11.5v-.2h.1Z" fill="#d7c53b" fill-rule="evenodd"/><path d="M8,8.9Z" fill="#d7c53b" fill-rule="evenodd"/><path d="M8.2,8.5Z" fill="#d7c53b" fill-rule="evenodd"/><path d="M12.8,8.4l-.2-.3c-.3-.5-.6-1.6.8-1.3s.9,3-1.9,4.4C11.5,11.2,13.2,9,12.8,8.4Z" fill="#f4da40"/><path d="M11.3,11.6a6.5,6.5,0,0,0,3.6-2.8A2.1,2.1,0,0,0,15,7.4c0-.2-.1-.3-.2-.5l-.3-.2-.7-.3a1.4,1.4,0,0,0-.9,0,1.2,1.2,0,0,0-.7.7V8c.1.2.1.4.2.6l1.2-.5-.2-.5h.1l.4.2a1.3,1.3,0,0,1-.1.5,5.9,5.9,0,0,1-2.9,2.2Z" fill="none"/><path d="M13,8.2Z" fill="#d7c53b" fill-rule="evenodd"/><path d="M13,8.2Z" fill="#d7c53b" fill-rule="evenodd"/><path d="M13,8.1Z" fill="#d7c53b" fill-rule="evenodd"/><path d="M13.2,7.9Z" fill="#d7c53b" fill-rule="evenodd"/><path d="M13,8.2h0Z" fill="#d7c53b" fill-rule="evenodd"/><path d="M13.2,7.8Z" fill="#d7c53b" fill-rule="evenodd"/><path d="M13,8Z" fill="#d7c53b" fill-rule="evenodd"/><path d="M13.2,7.8h0Z" fill="#d7c53b" fill-rule="evenodd"/><path d="M13,8Z" fill="#d7c53b" fill-rule="evenodd"/><path d="M12.9,8h0Z" fill="#d7c53b" fill-rule="evenodd"/><path d="M13.2,7.6Z" fill="#d7c53b" fill-rule="evenodd"/><path d="M12.9,7.9Z" fill="#d7c53b" fill-rule="evenodd"/><path d="M13.1,7.6Z" fill="#d7c53b" fill-rule="evenodd"/><path d="M12.9,7.8Z" fill="#d7c53b" fill-rule="evenodd"/><path d="M12.9,7.7Z" fill="#d7c53b" fill-rule="evenodd"/><path d="M13.2,7.5Z" fill="#d7c53b" fill-rule="evenodd"/><path d="M13.1,7.5Z" fill="#d7c53b" fill-rule="evenodd"/><path d="M13.3,7.5Z" fill="#d7c53b" fill-rule="evenodd"/><path d="M12.8,7.8Z" fill="#d7c53b" fill-rule="evenodd"/><path d="M12.8,7.7Z" fill="#d7c53b" fill-rule="evenodd"/><path d="M12.8,7.7Z" fill="#d7c53b" fill-rule="evenodd"/><path d="M13.2,7.5Z" fill="#d7c53b" fill-rule="evenodd"/><path d="M12.6,8h0Z" fill="#d7c53b" fill-rule="evenodd"/><path d="M12.5,8c.1,0,0,0,0-.1Z" fill="#d7c53b" fill-rule="evenodd"/><path d="M12.6,7.9h0Z" fill="#d7c53b" fill-rule="evenodd"/><path d="M13.2,7.4Z" fill="#d7c53b" fill-rule="evenodd"/><path d="M12.4,8.1h0Z" fill="#d7c53b" fill-rule="evenodd"/><path d="M13.2,7.4Z" fill="#d7c53b" fill-rule="evenodd"/><path d="M12.6,7.7Z" fill="#d7c53b" fill-rule="evenodd"/><path d="M12.8,7.5Z" fill="#d7c53b" fill-rule="evenodd"/><path d="M12.5,7.9Z" fill="#d7c53b" fill-rule="evenodd"/><path d="M13.2,7.4Z" fill="#d7c53b" fill-rule="evenodd"/><path d="M12.6,7.6Z" fill="#d7c53b" fill-rule="evenodd"/><path d="M13.2,7.4Z" fill="#d7c53b" fill-rule="evenodd"/><path d="M13.2,7.4h0Z" fill="#d7c53b" fill-rule="evenodd"/><path d="M12.5,7.6Z" fill="#d7c53b" fill-rule="evenodd"/><path d="M13.3,7.4Z" fill="#d7c53b" fill-rule="evenodd"/><path d="M12.9,7.2Z" fill="#d7c53b" fill-rule="evenodd"/><path d="M12.7,7.3Z" fill="#d7c53b" fill-rule="evenodd"/><path d="M12.8,7.1h0Z" fill="#d7c53b" fill-rule="evenodd"/><path d="M12.4,7.1h0Z" fill="#d7c53b" fill-rule="evenodd"/><path d="M12.3,7.3h0S12.2,7.2,12.3,7.3Z" fill="#d7c53b" fill-rule="evenodd"/><path d="M13.1,7Z" fill="#d7c53b" fill-rule="evenodd"/><path d="M12.4,7h0Z" fill="#d7c53b" fill-rule="evenodd"/><path d="M13.1,6.9Z" fill="#d7c53b" fill-rule="evenodd"/><path d="M12.6,6.8h0Z" fill="#d7c53b" fill-rule="evenodd"/><path d="M12.5,6.7Z" fill="#d7c53b" fill-rule="evenodd"/><path d="M12.8,6.7Z" fill="#d7c53b" fill-rule="evenodd"/><path d="M12.9,6.6Z" fill="#d7c53b" fill-rule="evenodd"/><path d="M13,6.6Z" fill="#d7c53b" fill-rule="evenodd"/><path d="M13.5,6.9Z" fill="#d7c53b" fill-rule="evenodd"/><path d="M13.5,6.9Z" fill="#d7c53b" fill-rule="evenodd"/><path d="M13.6,7Z" fill="#d7c53b" fill-rule="evenodd"/><path d="M13.2,6.6Z" fill="#d7c53b" fill-rule="evenodd"/><path d="M13.1,6.6h0Z" fill="#d7c53b" fill-rule="evenodd"/><path d="M13.2,6.6Z" fill="#d7c53b" fill-rule="evenodd"/><path d="M13.3,6.6Z" fill="#d7c53b" fill-rule="evenodd"/><path d="M13.6,7h0Z" fill="#d7c53b" fill-rule="evenodd"/><path d="M13.8,7Z" fill="#d7c53b" fill-rule="evenodd"/><path d="M13.5,6.6Z" fill="#d7c53b" fill-rule="evenodd"/><path d="M13.5,6.6h0Z" fill="#d7c53b" fill-rule="evenodd"/><path d="M13.9,7h0Z" fill="#d7c53b" fill-rule="evenodd"/><path d="M13.7,6.7Z" fill="#d7c53b" fill-rule="evenodd"/><path d="M14.2,6.7Z" fill="#d7c53b" fill-rule="evenodd"/><path d="M14.5,6.9h.1c-.1,0-.1,0-.1-.1Z" fill="#d7c53b" fill-rule="evenodd"/><path d="M14.6,7Z" fill="#d7c53b" fill-rule="evenodd"/><path d="M14.6,7h0Z" fill="#d7c53b" fill-rule="evenodd"/><path d="M14.7,7.1Z" fill="#d7c53b" fill-rule="evenodd"/><path d="M14.7,7.1Z" fill="#d7c53b" fill-rule="evenodd"/><path d="M14.7,7.1Z" fill="#d7c53b" fill-rule="evenodd"/><path d="M14.8,7.1h0Z" fill="#d7c53b" fill-rule="evenodd"/><path d="M14.9,7.3h0Z" fill="#d7c53b" fill-rule="evenodd"/><path d="M14.9,7.4h0Z" fill="#d7c53b" fill-rule="evenodd"/><path d="M14.9,7.5h0Z" fill="#d7c53b" fill-rule="evenodd"/><path d="M15,7.6Z" fill="#d7c53b" fill-rule="evenodd"/><path d="M14.9,7.7h0c.1,0,.1,0,.1-.1S14.9,7.6,14.9,7.7Z" fill="#d7c53b" fill-rule="evenodd"/><path d="M15,7.7Z" fill="#d7c53b" fill-rule="evenodd"/><path d="M15,7.7h0Z" fill="#d7c53b" fill-rule="evenodd"/><path d="M15,7.8h0Z" fill="#d7c53b" fill-rule="evenodd"/><path d="M14.6,8.9Z" fill="#d7c53b" fill-rule="evenodd"/><path d="M14.5,9.1Z" fill="#d7c53b" fill-rule="evenodd"/><path d="M14.3,9.3h0Z" fill="#d7c53b" fill-rule="evenodd"/><path d="M14.2,9.4h0Z" fill="#d7c53b" fill-rule="evenodd"/><path d="M14.1,9.6h0Z" fill="#d7c53b" fill-rule="evenodd"/><path d="M13.8,9.8Z" fill="#d7c53b" fill-rule="evenodd"/><path d="M12.6,9.7Z" fill="#d7c53b" fill-rule="evenodd"/><path d="M12.6,9.7Z" fill="#d7c53b" fill-rule="evenodd"/><path d="M13.5,10.2Z" fill="#d7c53b" fill-rule="evenodd"/><path d="M13.4,10.2Z" fill="#d7c53b" fill-rule="evenodd"/><path d="M13.4,10.2Z" fill="#d7c53b" fill-rule="evenodd"/><path d="M13,10.6h0Z" fill="#d7c53b" fill-rule="evenodd"/><path d="M12.9,10.7Z" fill="#d7c53b" fill-rule="evenodd"/><path d="M12.9,10.7h0Z" fill="#d7c53b" fill-rule="evenodd"/><path d="M12.8,10.7h0Z" fill="#d7c53b" fill-rule="evenodd"/><path d="M12.8,10.8Z" fill="#d7c53b" fill-rule="evenodd"/><path d="M12.8,10.8h0Z" fill="#d7c53b" fill-rule="evenodd"/><path d="M12.8,10.9Z" fill="#d7c53b" fill-rule="evenodd"/><path d="M12.7,10.9Z" fill="#d7c53b" fill-rule="evenodd"/><path d="M12.8,10.9h0Z" fill="#d7c53b" fill-rule="evenodd"/><path d="M12.6,10.9Z" fill="#d7c53b" fill-rule="evenodd"/><path d="M12.6,10.9h0Z" fill="#d7c53b" fill-rule="evenodd"/><path d="M12.5,11Z" fill="#d7c53b" fill-rule="evenodd"/><path d="M12.6,11h0Z" fill="#d7c53b" fill-rule="evenodd"/><path d="M12.5,11Z" fill="#d7c53b" fill-rule="evenodd"/><path d="M12.5,11Z" fill="#d7c53b" fill-rule="evenodd"/><path d="M12.4,11c.1,0,0,.1,0,.1Z" fill="#d7c53b" fill-rule="evenodd"/><path d="M12.4,11.1Z" fill="#d7c53b" fill-rule="evenodd"/><path d="M12.3,11.1Z" fill="#d7c53b" fill-rule="evenodd"/><path d="M12.3,11.1Z" fill="#d7c53b" fill-rule="evenodd"/><path d="M13,8.3Z" fill="#d7c53b" fill-rule="evenodd"/><path d="M13.1,8.1h0Z" fill="#d7c53b" fill-rule="evenodd"/><path d="M13,8h0a.1.1,0,0,0,.1.1h.3l.4.2c.1.1.2.1.2.2a.9.9,0,0,1-.2.8h-.4c0-.1,0,0-.1,0h-.1c.1,0,.1.1,0,.1h.5a.1.1,0,0,0,.1.1h0a2.5,2.5,0,0,1-.5.8h-.1l-.2.2h-.5c.1,0,.1,0,.1-.1a.1.1,0,0,0-.1.1h-.2v.2h-.1a.1.1,0,0,1-.1.1h-.3c.1,0,.1,0,.1-.1h-.3a.1.1,0,0,1-.1.1h3.1c.1,0,0,0,0,.1h.4c-.1-.1,0-.1,0-.1h0s-.1.1,0,.1h-.1a.1.1,0,0,1,.1-.1h0v.2h0c0,.1,0,.1.1.1h-.1s.1-.1,0-.1h-.7c-.1.1-.1,0-.1,0H12.7a.1.1,0,0,0-.1.1h-.1c-.1,0,0,0-.1.1h.3a.1.1,0,0,1,.1-.1h.9c0-.1,0,0,.1-.1s-.1.1,0,.1h-.3c.1,0,0,.1.1,0h-.1c0,.1-.1,0-.1,0h0c-.1,0-.1.1-.1,0H13a.1.1,0,0,0-.1.1h-.2c-.1,0-.1,0-.1.1h-.2s-.1.1,0,.1h-.1c.1,0,.1.1,0,.1h.1c.1,0,0-.1.1-.1h-.1s.1-.1,0-.1h.2V7.4H13a.1.1,0,0,0,.1-.1h.1c.1,0,0,.1,0,.1a.1.1,0,0,0,.1-.1h.1c0,.1,0,.1.1.1h.6s0-.1-.1,0H12.9c0,.1,0,0-.1,0a.1.1,0,0,1,.1.1h0c0,.1.1.1,0,.1H13Zm.2-.6Zm.3,0ZM11.8,11Zm.1.2h-.1c0,.1.1,0,.1,0Zm1.4-.9Zm.6-.5Zm.4-.5ZM12.5,6.8h0Zm.4-.1h0Zm-.5,1.2Zm.9-.9Zm-.4.1h0Zm-.1.3ZM13,8Zm0-.4h0Zm.1-.2Zm0,0Zm-.5.4h0Zm.7-.3Zm-.4-.1Zm-.4.4Zm0,0h0Zm0-.1Zm.3-.3h0Zm-.3.2Zm-.1.2Zm.4-.5h.1c-.1.1,0,.1,0,.1Zm.4,0Zm-.4,0Zm-.4.4Zm.1-.2h0Zm-.1.1Zm.5-.4h0c-.1-.1,0-.1,0-.1Zm-.4.2Zm.9.1Zm-.1-.2Zm-.9.2h0Zm.1-.2Zm-.1.2Zm.2-.2Zm0,0Zm.1-.1h0Zm-.3.2a.1.1,0,0,0,.1-.1h-.1Zm.5-.3Zm-.4.2h0Zm.8,0Zm-.9.1Zm.1-.2h0Zm-.1.1h0C12.5,7.3,12.4,7.4,12.4,7.3Zm.6-.2Zm0,0Zm-.5.2Zm.9.1Zm-.9-.1Zm.2-.2Zm-.2.1Zm.1,0h0Zm-.1,0h0Zm.5-.1Zm-.4,0Zm.8.3ZM12.7,7Zm.4,0Zm-.6,0h0c-.1.1-.1,0-.1,0h.1Zm.1,0Zm.9.4ZM13.1,7Zm-.7.1Zm.2-.1Zm.6,0Zm-.3-.1Zm-.4.1Zm.7,0Zm-.1,0Zm-.8.1Zm1.3.3h0Zm-.5-.6c0,.1,0,.1-.1,0Zm.3.2h0Zm-.3-.2h0Zm.5.7Zm-1.1-.7Zm.4-.1Zm.5.3Zm-.6-.4Zm.4.1Zm-.1-.1c-.1,0-.1.1-.1,0Zm.1.1Zm.3.1c-.1.1-.1.1-.1,0Zm-.6-.3h0Zm-.1.1Zm.1-.1h0Zm.3.1Zm0,0Zm.1.1Zm.4.4h0Zm.1.4Zm-.9-1Zm.7.5Zm-.5-.5Zm.5.4Zm-.2-.3h0C13.4,6.7,13.3,6.6,13.4,6.6Zm-.2-.1h0Zm.2.1h0Zm.1.1Zm-.1,0h0Zm-.2-.2Zm.3.2h0Zm0-.1h0Zm.1.1h0Zm-.4-.3h0Zm.1.1Zm0-.1h0Zm.3.3Zm0,0Zm-.1-.2h0Zm-.1,0Zm.2.2Zm-.1-.2Zm.1,0h0Zm0,0Zm.1,0h0Zm.2.3Zm.1.3Zm-.1-.3Zm0-.1h0Zm-.1-.1h0Zm.1.1Zm0,.1h0Zm.1,0Zm.1.4h0a.1.1,0,0,0,.1.1ZM14,6.8Zm-.1-.2Zm.1.3Zm.1,0h0c0-.1,0-.1-.1-.1h.1a.1.1,0,0,1,.1.1c-.1-.1-.1,0-.1,0h0Zm0,0h0Zm-.2-.3Zm.1.1Zm0,.1Zm0-.2c0,.1-.1.1-.1,0Zm.2.6Zm0,.1Zm-.1-.5Zm0-.1Zm.1.2Zm0,0h0Zm0,0Zm-.2.9Zm.3-.5Zm0-.3Zm-.1-.3Zm.1.3Zm0-.2Zm0-.1Zm.1.3Zm0-.1h0Zm-.1-.1Zm.2.3h0Zm-.5.8Zm.4-.4Zm0-.7h0Zm0,.4Zm.1,0Zm-.1-.4Zm0,.1h0Zm.1.2h0Zm-.1-.3c.1,0,.1,0,.1.1s0,0-.1,0,.1-.1,0-.1Zm.1.1Zm0,.3Zm.1.1h0Zm0,0Zm0,.1Zm0,0h0Zm0,0Zm.1.1h0Zm0-.3Zm0,0Zm0,.1Zm.1,0Zm-.2.3Zm.2-.3Zm-.1.3Zm0,.1Zm0,0Zm0,.1Zm-.8.5Zm.8-.3s-.1-.1,0-.1Zm-.8.3Zm0,.1Zm1-.4h0Zm0,0h0Zm0,.1h0Zm-1.1.4Zm1.1-.4Zm0,.1Zm0,0Zm-1.1.4Zm1-.3Zm-1.1.3h0Zm1.1-.2Zm-1.1.3Zm1.1-.2Zm-1.1.2Zm1.1-.2h0Zm-1.1.2Zm1.1-.1h0Zm-.1,0Zm-1.1.2Zm1.2-.2h0Zm-.1,0Zm0,.1Zm0,0Zm-.1,0Zm0,.1h0Zm0,0Zm0,.1Zm-.1.1Zm-.7.9Zm-.1,0Zm-1.2,0Zm0-.1Zm1,.3Zm-1-.2h0Zm1,.2Zm-1-.2h0Zm.4.7Zm-.1,0h0Zm0,.1h0Zm-.9,0Zm0,0Zm.5.2h0Zm-.6-.1h0Zm.5.3Zm-.7-.3Zm.2.2Zm.2.2Zm-.1,0h0Zm0,0Zm0,.1Zm-.5,0Z" fill="#d7c53b" fill-rule="evenodd"/><path d="M14,6.6Z" fill="#d7c53b" fill-rule="evenodd"/><path d="M13.2,7.8Z" fill="#d7c53b" fill-rule="evenodd"/><path d="M13.1,7.5Z" fill="#d7c53b" fill-rule="evenodd"/><path d="M12.7,7.8h0Z" fill="#d7c53b" fill-rule="evenodd"/><path d="M12.9,7.6Z" fill="#d7c53b" fill-rule="evenodd"/><path d="M12.8,7.6Z" fill="#d7c53b" fill-rule="evenodd"/><path d="M13.2,7.5Z" fill="#d7c53b" fill-rule="evenodd"/><path d="M12.8,7.7h0Z" fill="#d7c53b" fill-rule="evenodd"/><path d="M13.3,7.5Z" fill="#d7c53b" fill-rule="evenodd"/><path d="M12.4,8.1Z" fill="#d7c53b" fill-rule="evenodd"/><path d="M12.8,7.6Z" fill="#d7c53b" fill-rule="evenodd"/><path d="M13.2,7.4Z" fill="#d7c53b" fill-rule="evenodd"/><path d="M12.5,7.8Z" fill="#d7c53b" fill-rule="evenodd"/><path d="M12.6,7.4Z" fill="#d7c53b" fill-rule="evenodd"/><path d="M13.3,7.4Z" fill="#d7c53b" fill-rule="evenodd"/><path d="M13.3,7.4Z" fill="#d7c53b" fill-rule="evenodd"/><path d="M13.3,7.4Z" fill="#d7c53b" fill-rule="evenodd"/><path d="M12.2,7.3Z" fill="#d7c53b" fill-rule="evenodd"/><path d="M12.4,7h0Z" fill="#d7c53b" fill-rule="evenodd"/><path d="M12.6,6.8Z" fill="#d7c53b" fill-rule="evenodd"/><path d="M13.3,6.9Z" fill="#d7c53b" fill-rule="evenodd"/><path d="M13,6.6Z" fill="#d7c53b" fill-rule="evenodd"/><path d="M13.1,6.6h0Z" fill="#d7c53b" fill-rule="evenodd"/><path d="M13.1,6.6Z" fill="#d7c53b" fill-rule="evenodd"/><path d="M13.3,6.5Z" fill="#d7c53b" fill-rule="evenodd"/><path d="M13.5,6.4h0Z" fill="#d7c53b" fill-rule="evenodd"/><path d="M13.7,6.7Z" fill="#d7c53b" fill-rule="evenodd"/><path d="M13.9,7.1Z" fill="#d7c53b" fill-rule="evenodd"/><path d="M13.8,6.5Z" fill="#d7c53b" fill-rule="evenodd"/><path d="M13.9,6.5h0Z" fill="#d7c53b" fill-rule="evenodd"/><path d="M13.9,6.5Z" fill="#d7c53b" fill-rule="evenodd"/><path d="M14.1,6.6Z" fill="#d7c53b" fill-rule="evenodd"/><path d="M14.2,6.7h0Z" fill="#d7c53b" fill-rule="evenodd"/><path d="M14.2,6.6a.1.1,0,0,0,.1.1h0C14.3,6.7,14.3,6.7,14.2,6.6Z" fill="#d7c53b" fill-rule="evenodd"/><path d="M14.3,6.7h0Z" fill="#d7c53b" fill-rule="evenodd"/><path d="M14.6,7h0Z" fill="#d7c53b" fill-rule="evenodd"/><path d="M14.8,7.2Z" fill="#d7c53b" fill-rule="evenodd"/><path d="M14.9,7.4Z" fill="#d7c53b" fill-rule="evenodd"/><path d="M15,7.8Z" fill="#d7c53b" fill-rule="evenodd"/><path d="M14.9,8.3h0Z" fill="#d7c53b" fill-rule="evenodd"/><path d="M14.8,8.6Z" fill="#d7c53b" fill-rule="evenodd"/><path d="M14.6,8.8h0Z" fill="#d7c53b" fill-rule="evenodd"/><path d="M14,9.7Z" fill="#d7c53b" fill-rule="evenodd"/><path d="M12.7,9.6Z" fill="#d7c53b" fill-rule="evenodd"/><path d="M12.8,10.8Z" fill="#d7c53b" fill-rule="evenodd"/><path d="M12.7,10.8Z" fill="#d7c53b" fill-rule="evenodd"/><rect x="0.3" y="5.4" width="9.7" height="1.51" transform="translate(-2.2 3) rotate(-27)" fill="none"/><path d="M1,8.4Z" fill="#d7c53b" fill-rule="evenodd"/><path d="M1,8.3Z" fill="#d7c53b" fill-rule="evenodd"/><path d="M1.1,8.3Z" fill="#d7c53b" fill-rule="evenodd"/><path d="M1.4,8.5Z" fill="#d7c53b" fill-rule="evenodd"/><path d="M1,8.3Z" fill="#d7c53b" fill-rule="evenodd"/><path d="M1.5,8.5Z" fill="#d7c53b" fill-rule="evenodd"/><path d="M1.2,8.3Z" fill="#d7c53b" fill-rule="evenodd"/><path d="M1.6,8.4Z" fill="#d7c53b" fill-rule="evenodd"/><path d="M1.3,8.3Z" fill="#d7c53b" fill-rule="evenodd"/><path d="M1.3,8.2Z" fill="#d7c53b" fill-rule="evenodd"/><path d="M1.8,8.4Z" fill="#d7c53b" fill-rule="evenodd"/><path d="M1.3,8.2h0Z" fill="#d7c53b" fill-rule="evenodd"/><path d="M1.7,8.2Z" fill="#d7c53b" fill-rule="evenodd"/><path d="M1.4,8.1Z" fill="#d7c53b" fill-rule="evenodd"/><path d="M1.5,8.1Z" fill="#d7c53b" fill-rule="evenodd"/><path d="M2,8.3Z" fill="#d7c53b" fill-rule="evenodd"/><path d="M2,8.2H2Z" fill="#d7c53b" fill-rule="evenodd"/><path d="M2.2,8.3Z" fill="#d7c53b" fill-rule="evenodd"/><path d="M1.4,7.9Z" fill="#d7c53b" fill-rule="evenodd"/><path d="M1.5,8Z" fill="#d7c53b" fill-rule="evenodd"/><path d="M1.4,7.9Z" fill="#d7c53b" fill-rule="evenodd"/><path d="M2.1,8.2h0Z" fill="#d7c53b" fill-rule="evenodd"/><path d="M1.1,7.8h0Z" fill="#d7c53b" fill-rule="evenodd"/><path d="M1.1,7.7Z" fill="#d7c53b" fill-rule="evenodd"/><path d="M1.2,7.7Z" fill="#d7c53b" fill-rule="evenodd"/><path d="M2.1,8.1h0Z" fill="#d7c53b" fill-rule="evenodd"/><path d="M1,7.6Z" fill="#d7c53b" fill-rule="evenodd"/><path d="M2.2,8.1Z" fill="#d7c53b" fill-rule="evenodd"/><path d="M1.4,7.8h0Z" fill="#d7c53b" fill-rule="evenodd"/><path d="M1.6,7.9a.1.1,0,0,0,.1-.1h0A.1.1,0,0,1,1.6,7.9Z" fill="#d7c53b" fill-rule="evenodd"/><path d="M1.2,7.6Z" fill="#d7c53b" fill-rule="evenodd"/><path d="M2.3,8.1Z" fill="#d7c53b" fill-rule="evenodd"/><path d="M1.5,7.7Z" fill="#d7c53b" fill-rule="evenodd"/><path d="M2.3,8.1h0Z" fill="#d7c53b" fill-rule="evenodd"/><path d="M2.4,8.1Z" fill="#d7c53b" fill-rule="evenodd"/><path d="M1.4,7.6h0Z" fill="#d7c53b" fill-rule="evenodd"/><path d="M2.5,8Z" fill="#d7c53b" fill-rule="evenodd"/><path d="M2,7.7Z" fill="#d7c53b" fill-rule="evenodd"/><path d="M1.8,7.6Z" fill="#d7c53b" fill-rule="evenodd"/><path d="M2,7.5H2Z" fill="#d7c53b" fill-rule="evenodd"/><path d="M1.7,7.3Z" fill="#d7c53b" fill-rule="evenodd"/><path d="M1.5,7.2Z" fill="#d7c53b" fill-rule="evenodd"/><path d="M2.3,7.5h0Z" fill="#d7c53b" fill-rule="evenodd"/><path d="M1.7,7.2h0Z" fill="#d7c53b" fill-rule="evenodd"/><path d="M2.4,7.4Z" fill="#d7c53b" fill-rule="evenodd"/><path d="M1.9,7.1Z" fill="#d7c53b" fill-rule="evenodd"/><path d="M1.8,7Z" fill="#d7c53b" fill-rule="evenodd"/><path d="M2,7.1H2Z" fill="#d7c53b" fill-rule="evenodd"/><path d="M2.1,7.1h0Z" fill="#d7c53b" fill-rule="evenodd"/><path d="M2.2,7.1Z" fill="#d7c53b" fill-rule="evenodd"/><path d="M2.8,7.3h0S2.7,7.3,2.8,7.3Z" fill="#d7c53b" fill-rule="evenodd"/><path d="M2.8,7.2Z" fill="#d7c53b" fill-rule="evenodd"/><path d="M2.9,7.3h0Z" fill="#d7c53b" fill-rule="evenodd"/><path d="M2.3,7Z" fill="#d7c53b" fill-rule="evenodd"/><path d="M2.3,7Z" fill="#d7c53b" fill-rule="evenodd"/><path d="M2.4,7Z" fill="#d7c53b" fill-rule="evenodd"/><path d="M2.4,7Z" fill="#d7c53b" fill-rule="evenodd"/><path d="M2.9,7.2h0Z" fill="#d7c53b" fill-rule="evenodd"/><path d="M3.1,7.2h0Z" fill="#d7c53b" fill-rule="evenodd"/><path d="M2.6,6.9Z" fill="#d7c53b" fill-rule="evenodd"/><path d="M2.6,6.9Z" fill="#d7c53b" fill-rule="evenodd"/><path d="M3.2,7.1Z" fill="#d7c53b" fill-rule="evenodd"/><path d="M2.8,6.9Z" fill="#d7c53b" fill-rule="evenodd"/><path d="M3.1,6.5Z" fill="#d7c53b" fill-rule="evenodd"/><path d="M3.3,6.4h.1a.1.1,0,0,1-.1.1Z" fill="#d7c53b" fill-rule="evenodd"/><path d="M3.4,6.3Z" fill="#d7c53b" fill-rule="evenodd"/><path d="M3.5,6.3Z" fill="#d7c53b" fill-rule="evenodd"/><path d="M3.5,6.3Z" fill="#d7c53b" fill-rule="evenodd"/><path d="M3.6,6.3Z" fill="#d7c53b" fill-rule="evenodd"/><path d="M3.6,6.3Z" fill="#d7c53b" fill-rule="evenodd"/><path d="M3.6,6.3h0Z" fill="#d7c53b" fill-rule="evenodd"/><path d="M3.7,6.2h0Z" fill="#d7c53b" fill-rule="evenodd"/><path d="M3.8,6.2Z" fill="#d7c53b" fill-rule="evenodd"/><path d="M3.9,6.1Z" fill="#d7c53b" fill-rule="evenodd"/><path d="M3.9,6.1Z" fill="#d7c53b" fill-rule="evenodd"/><path d="M4,6.1Z" fill="#d7c53b" fill-rule="evenodd"/><path d="M4,6.1Z" fill="#d7c53b" fill-rule="evenodd"/><path d="M4,6Z" fill="#d7c53b" fill-rule="evenodd"/><path d="M4.1,6Z" fill="#d7c53b" fill-rule="evenodd"/><path d="M5,5.6H5Z" fill="#d7c53b" fill-rule="evenodd"/><path d="M5.3,5.5Z" fill="#d7c53b" fill-rule="evenodd"/><path d="M5.6,5.4h0Z" fill="#d7c53b" fill-rule="evenodd"/><path d="M5.7,5.3Z" fill="#d7c53b" fill-rule="evenodd"/><path d="M5.9,5.2A.1.1,0,0,0,6,5.1.1.1,0,0,0,5.9,5.2Z" fill="#d7c53b" fill-rule="evenodd"/><path d="M6.2,5.1h0Z" fill="#d7c53b" fill-rule="evenodd"/><path d="M7.6,5.6h0Z" fill="#d7c53b" fill-rule="evenodd"/><path d="M7.7,5.5Z" fill="#d7c53b" fill-rule="evenodd"/><path d="M6.7,4.8Z" fill="#d7c53b" fill-rule="evenodd"/><path d="M6.8,4.8Z" fill="#d7c53b" fill-rule="evenodd"/><path d="M6.8,4.7Z" fill="#d7c53b" fill-rule="evenodd"/><path d="M7.4,4.4Z" fill="#d7c53b" fill-rule="evenodd"/><path d="M7.4,4.3Z" fill="#d7c53b" fill-rule="evenodd"/><path d="M7.4,4.3h0Z" fill="#d7c53b" fill-rule="evenodd"/><path d="M7.5,4.3h0Z" fill="#d7c53b" fill-rule="evenodd"/><path d="M7.6,4.2Z" fill="#d7c53b" fill-rule="evenodd"/><path d="M7.6,4.2Z" fill="#d7c53b" fill-rule="evenodd"/><path d="M7.5,4.1h0Z" fill="#d7c53b" fill-rule="evenodd"/><path d="M7.7,4.1Z" fill="#d7c53b" fill-rule="evenodd"/><path d="M7.6,4.1h0Z" fill="#d7c53b" fill-rule="evenodd"/><path d="M7.8,4.1Z" fill="#d7c53b" fill-rule="evenodd"/><path d="M7.8,4.1h0Z" fill="#d7c53b" fill-rule="evenodd"/><path d="M7.9,4Z" fill="#d7c53b" fill-rule="evenodd"/><path d="M7.8,4h0Z" fill="#d7c53b" fill-rule="evenodd"/><path d="M7.9,4h0Z" fill="#d7c53b" fill-rule="evenodd"/><path d="M7.9,4h0Z" fill="#d7c53b" fill-rule="evenodd"/><path d="M8,4c-.1-.1,0-.1,0-.1Z" fill="#d7c53b" fill-rule="evenodd"/><path d="M8,3.9Z" fill="#d7c53b" fill-rule="evenodd"/><path d="M8.1,3.9Z" fill="#d7c53b" fill-rule="evenodd"/><path d="M8.1,3.9Z" fill="#d7c53b" fill-rule="evenodd"/><path d="M.8,8.4Z" fill="#d7c53b" fill-rule="evenodd"/><path d="M1.1,8.4h0Z" fill="#d7c53b" fill-rule="evenodd"/><path d="M1.2,8.3h.2a.1.1,0,0,1,.1-.1H1.4a.1.1,0,0,0,.1-.1H2.7a.1.1,0,0,0,.1-.1h.1A16.6,16.6,0,0,0,5.6,6.5H5.4a.1.1,0,0,1-.1.1H5.1a.1.1,0,0,0-.1.1H4.5a.1.1,0,0,0-.1-.1.1.1,0,0,1-.1.1H4.2L4,7.4H3.6s.1.1,0,.1H3c-.1,0-.1.1-.1,0h0c0-.1-.1,0-.1,0H2c0,.1,0,.1-.1.1h.3a.1.1,0,0,0,.1.1.1.1,0,0,1-.1-.1H4.7L5.1,7h.2l1.2-.7h.3l.3-.2h.7c.1,0,.1,0,.1-.1h.2s.1-.2.2-.2h.4c0-.1,0-.1.1-.2h.1A.1.1,0,0,0,9,4.3H8.9a.1.1,0,0,0-.1.1.1.1,0,0,1,.1-.1h0l.2-.2s0,.1-.1,0H8.7a.1.1,0,0,0,.1-.1h.1c-.1,0,0-.1,0-.1h.3c0-.1.1-.1,0-.1h0s-.1.1-.1,0H9a.1.1,0,0,0-.1.1h0a.1.1,0,0,1-.1.1H8.7c-.1-.1-.1,0-.1-.1H8.3c-.1,0,0,0,0-.1h0c-.1-.1,0-.1,0-.1H8a.1.1,0,0,0,.1-.1c0,.1,0,.1-.1.1H7.8c-.1,0,0-.1,0-.1a.1.1,0,0,0-.1.1H5.1a.1.1,0,0,1-.1.1H4c-.1,0,0-.1,0,0H4c0,.1-.1,0-.1.1H2.6c-.1,0-.1,0,0-.1H2.3c-.1,0,0-.1,0-.1H1.6a.1.1,0,0,0-.1.1h.1a.1.1,0,0,0,.1-.1H2.8c-.1,0,0-.1,0,0h0c.1.1.1,0,.1,0H2.5c-.1,0-.1,0,0-.1H1.6c0-.1-.1-.1,0,0a.1.1,0,0,1-.1-.1H1.4c-.1,0,0-.1-.1-.1H3c0-.1.1,0,.1-.1h.1s0,.1-.1,0H2.7c0,.1,0,.1-.1.1H2.1a.1.1,0,0,1-.1.1H1.7c-.1-.1,0-.1,0-.1h.1c.1,0,.1-.1.1,0H1.3c0-.1,0,0-.1-.1h0ZM2.3,8Zm.8-.2ZM8.7,4h0C8.8,4,8.7,4.1,8.7,4Zm-.1-.3ZM7,4.7Zm-.8.4Zm-.7.3h0ZM1.8,7.1Zm.3.1Zm-.9.3Zm1.4-.1h0Zm-.5.3Zm-.3.1Zm-.5.5h0Zm.4-.1h0Zm.4-.1h0Zm.1,0h0Zm-.9-.4h0Zm1.2.4h0Zm-.6-.2Zm-.6-.2Zm0,0Zm.1,0Zm.5.1Zm-.4-.2Zm-.3-.1Zm.7.3h0Zm.5.2h0Zm-.6-.2h0Zm-.5-.3Zm.3.1h0Zm-.2-.1Zm.7.2Zm-.5-.1ZM2.8,8h0Zm-.3-.1Zm-1-.4Zm.1,0Zm-.1,0Zm.2,0Zm0,0Zm.1.1Zm-.3-.1h0Zm.7.2Zm-.6-.2Zm1.1.4h0ZM1.5,7.4Zm.2.1Zm-.1-.1Zm.6.3h0a.1.1,0,0,1,.1-.1H2.2Zm0,0Zm-.5-.3Zm1.1.5ZM1.6,7.4Zm.4.1Zm-.3-.1Zm.1,0Zm-.1,0H1.6c.1-.1,0,0,.1,0Zm.6.2Zm-.4-.2h0ZM3,7.9H3ZM2,7.4H2Zm.4.2Zm-.7-.3Zm.2,0ZM3,7.8Zm-.6-.2Zm-.7-.3Zm.2,0h0Zm.6.3Zm-.3-.2h0Zm-.4-.1Zm.7.2h0Zm-.1,0Zm-.8-.4Zm1.6.6Zm-.9-.3Zm.4.1Zm-.3-.2Zm1,.4h0ZM1.9,7.1h0Zm.3,0Zm.5.3ZM2.1,7h0Zm.3.2Zm-.1-.1h0Zm.1,0Zm.3.1ZM2.1,7Zm0,0h0Zm0,0Zm.3.1Zm0,0h0Zm0,0h0Zm.7.2a.1.1,0,0,0-.1.1H3C3,7.3,3,7.3,3.1,7.3Zm.5.3ZM2.1,7Zm.9.3H3Zm-.7-.4h0Zm.5.3h0ZM2.5,7Zm-.2-.1Zm.3.1h0Zm.1,0h0Zm-.1.1h0Zm-.3-.2Zm.3.1Zm0,0Zm.1,0h0Zm-.4-.1Zm.1,0Zm0-.1h0Zm.3.2h0Zm0,0Zm-.2-.1Zm0-.1h0C2.4,6.9,2.4,6.8,2.5,6.8Zm.2.2Zm-.2-.2Zm.1,0h0Zm0,0Zm.1,0Zm.3.1Zm.4.1ZM3,6.8Zm0,0Zm-.2-.1Zm.2.1Zm0,0H3Zm.1,0Zm.4.2ZM3,6.8H3Zm-.1-.1h0Zm.3.1h0Zm0-.1Zm0,0Zm-.3,0Zm.1.1Zm.1-.1h0Zm-.2,0Zm.7.2h0Zm0,0Zm-.5-.2Zm0,0H3S3,6.6,3.1,6.7Zm.2,0Zm0,0h0Zm0,0Zm1.2.5Zm-.8-.3h.1S3.8,6.8,3.7,6.9Zm-.3-.2H3.3a.1.1,0,0,0,.1-.1Zm-.3-.2Zm.3.1Zm-.2-.1h0Zm0,0Zm.3.1Zm-.1,0h0Zm-.2-.1Zm.4.1h0Zm1,.5Zm-.7-.3h0Zm-.6-.3h0Zm.4.2H3.6S3.6,6.6,3.7,6.7Zm-.1-.1Zm-.3-.1Zm0-.1h0Zm.3.2Zm-.3-.2Zm.1,0h0Zm.3.1h0Zm.1,0h0Zm0,0h0Zm.1,0h0Zm0,0Zm0,0Zm.1,0H4Zm-.3-.2Zm0,0h0Zm0,0Zm0,0Zm.4.2Zm-.3-.2h0Zm.2.1H4Zm.1,0Zm0,0Zm.1,0Zm1.1.3Zm-.9-.4h0Zm1,.4Zm0-.1h0ZM4.2,6.1ZM4.3,6Zm0,0Zm1.3.5ZM4.3,5.9h0Zm.1.1Zm-.1-.1h0Zm1.4.6ZM4.5,5.9Zm1.3.6ZM4.6,5.9Zm1.3.5ZM4.6,5.8h.1A.1.1,0,0,0,4.6,5.8Zm1.3.5h0ZM4.7,5.8ZM6,6.3c0,.1,0,.1-.1.1A.1.1,0,0,1,6,6.3ZM4.7,5.8Zm.1,0ZM6,6.3ZM4.8,5.7h0Zm0,.1Zm.1-.1Zm0,0Zm0,0Zm.1,0Zm0,0Zm.1,0Zm.1-.1ZM6.3,5Zm.1,0Zm1.4.3c0,.1.1,0,0,.1h0Zm0,.1ZM6.6,4.9a.1.1,0,0,1,.1-.1H6.6Zm1.3.4ZM6.7,4.8h0Zm1.2.5Zm-.4-.9h0Zm0,0h0Zm0-.1h0Zm1.1.1Zm0,0h0ZM8,4.1H8Zm.7.2h0Zm-.6-.4Zm.8.3ZM8.7,4Zm-.2-.2h0Zm0,0Zm.1,0Zm0-.1Zm.5-.1Z" fill="#d7c53b" fill-rule="evenodd"/><path d="M2.9,6.6Z" fill="#d7c53b" fill-rule="evenodd"/><path d="M1.5,8.4h0Z" fill="#d7c53b" fill-rule="evenodd"/><path d="M2,8.2Z" fill="#d7c53b" fill-rule="evenodd"/><path d="M1.4,7.9Z" fill="#d7c53b" fill-rule="evenodd"/><path d="M1.7,8Z" fill="#d7c53b" fill-rule="evenodd"/><path d="M1.6,8Z" fill="#d7c53b" fill-rule="evenodd"/><path d="M2.2,8.2Z" fill="#d7c53b" fill-rule="evenodd"/><path d="M1.5,7.9h0Z" fill="#d7c53b" fill-rule="evenodd"/><path d="M2.3,8.2h0Z" fill="#d7c53b" fill-rule="evenodd"/><path d="M1,7.6H1Z" fill="#d7c53b" fill-rule="evenodd"/><path d="M1.6,7.9Z" fill="#d7c53b" fill-rule="evenodd"/><path d="M2.2,8.1Z" fill="#d7c53b" fill-rule="evenodd"/><path d="M1.3,7.6Z" fill="#d7c53b" fill-rule="evenodd"/><path d="M1.7,7.7h0Z" fill="#d7c53b" fill-rule="evenodd"/><path d="M2.6,8Z" fill="#d7c53b" fill-rule="evenodd"/><path d="M2.6,8h0Z" fill="#d7c53b" fill-rule="evenodd"/><path d="M2.7,7.9Z" fill="#d7c53b" fill-rule="evenodd"/><path d="M1.4,7.2Z" fill="#d7c53b" fill-rule="evenodd"/><path d="M1.7,7.2a.1.1,0,0,0,.1-.1h0A.1.1,0,0,0,1.7,7.2Z" fill="#d7c53b" fill-rule="evenodd"/><path d="M1.9,7.1Z" fill="#d7c53b" fill-rule="evenodd"/><path d="M2.6,7.3Z" fill="#d7c53b" fill-rule="evenodd"/><path d="M2.2,7Z" fill="#d7c53b" fill-rule="evenodd"/><path d="M2.3,7h0Z" fill="#d7c53b" fill-rule="evenodd"/><path d="M2.3,7Z" fill="#d7c53b" fill-rule="evenodd"/><path d="M2.4,7Z" fill="#d7c53b" fill-rule="evenodd"/><path d="M2.5,6.8Z" fill="#d7c53b" fill-rule="evenodd"/><path d="M2.8,6.9Z" fill="#d7c53b" fill-rule="evenodd"/><path d="M3.2,7.1Z" fill="#d7c53b" fill-rule="evenodd"/><path d="M2.7,6.6h0c0,.1,0,0,.1.1H2.7Z" fill="#d7c53b" fill-rule="evenodd"/><path d="M2.8,6.6Z" fill="#d7c53b" fill-rule="evenodd"/><path d="M2.7,6.6h0Z" fill="#d7c53b" fill-rule="evenodd"/><path d="M2.9,6.5h0Z" fill="#d7c53b" fill-rule="evenodd"/><path d="M3.1,6.5h0c.1.1,0,.1,0,.1Z" fill="#d7c53b" fill-rule="evenodd"/><path d="M3.1,6.5h0Z" fill="#d7c53b" fill-rule="evenodd"/><path d="M3.2,6.4Z" fill="#d7c53b" fill-rule="evenodd"/><path d="M3.5,6.3Z" fill="#d7c53b" fill-rule="evenodd"/><path d="M3.6,6.2h0Z" fill="#d7c53b" fill-rule="evenodd"/><path d="M3.8,6.2Z" fill="#d7c53b" fill-rule="evenodd"/><path d="M4,6.1Z" fill="#d7c53b" fill-rule="evenodd"/><path d="M4.5,5.9h0Z" fill="#d7c53b" fill-rule="evenodd"/><path d="M4.7,5.7h0Z" fill="#d7c53b" fill-rule="evenodd"/><path d="M5,5.7H5Z" fill="#d7c53b" fill-rule="evenodd"/><path d="M6,5.1H6Z" fill="#d7c53b" fill-rule="evenodd"/><path d="M7.4,5.7h0Z" fill="#d7c53b" fill-rule="evenodd"/><path d="M7.5,4.2Z" fill="#d7c53b" fill-rule="evenodd"/><path d="M7.6,4.2h0Z" fill="#d7c53b" fill-rule="evenodd"/><rect x="3" y="3.6" width="5.5" height="1.3" transform="translate(0 0) rotate(-0.4)" fill="none"/><path d="M8.4,4.1Z" fill="#d7c53b" fill-rule="evenodd"/><path d="M8.4,4.2Z" fill="#d7c53b" fill-rule="evenodd"/><path d="M8.4,4.1Z" fill="#d7c53b" fill-rule="evenodd"/><path d="M8.2,3.9Z" fill="#d7c53b" fill-rule="evenodd"/><path d="M8.4,4.2Z" fill="#d7c53b" fill-rule="evenodd"/><path d="M8.2,3.9h0Z" fill="#d7c53b" fill-rule="evenodd"/><path d="M8.3,4.1Z" fill="#d7c53b" fill-rule="evenodd"/><path d="M8.2,3.8H8.1A.1.1,0,0,0,8.2,3.8Z" fill="#d7c53b" fill-rule="evenodd"/><path d="M8.3,4.1Z" fill="#d7c53b" fill-rule="evenodd"/><path d="M8.3,4.1a.1.1,0,0,0-.1.1A.1.1,0,0,0,8.3,4.1Z" fill="#d7c53b" fill-rule="evenodd"/><path d="M8,3.8Z" fill="#d7c53b" fill-rule="evenodd"/><path d="M8.2,4.1Z" fill="#d7c53b" fill-rule="evenodd"/><path d="M8,4Z" fill="#d7c53b" fill-rule="evenodd"/><path d="M8.2,4.2Z" fill="#d7c53b" fill-rule="evenodd"/><path d="M8.1,4.1h0Z" fill="#d7c53b" fill-rule="evenodd"/><path d="M7.9,3.8Z" fill="#d7c53b" fill-rule="evenodd"/><path d="M7.9,3.9Z" fill="#d7c53b" fill-rule="evenodd"/><path d="M7.8,3.7Z" fill="#d7c53b" fill-rule="evenodd"/><path d="M8.1,4.3Z" fill="#d7c53b" fill-rule="evenodd"/><path d="M8.1,4.2Z" fill="#d7c53b" fill-rule="evenodd"/><path d="M8.1,4.3Z" fill="#d7c53b" fill-rule="evenodd"/><path d="M7.8,3.9Z" fill="#d7c53b" fill-rule="evenodd"/><path d="M8.2,4.5Z" fill="#d7c53b" fill-rule="evenodd"/><path d="M8.2,4.6Z" fill="#d7c53b" fill-rule="evenodd"/><path d="M8.2,4.5h0Z" fill="#d7c53b" fill-rule="evenodd"/><path d="M7.8,3.9Z" fill="#d7c53b" fill-rule="evenodd"/><path d="M8.2,4.7Z" fill="#d7c53b" fill-rule="evenodd"/><path d="M7.7,3.8h0Z" fill="#d7c53b" fill-rule="evenodd"/><path d="M8.1,4.5Z" fill="#d7c53b" fill-rule="evenodd"/><path d="M8,4.3Z" fill="#d7c53b" fill-rule="evenodd"/><path d="M8.2,4.6h0Z" fill="#d7c53b" fill-rule="evenodd"/><path d="M7.7,3.8Z" fill="#d7c53b" fill-rule="evenodd"/><path d="M8,4.4Z" fill="#d7c53b" fill-rule="evenodd"/><path d="M7.7,3.8H7.6c.1.1.1,0,.1,0Z" fill="#d7c53b" fill-rule="evenodd"/><path d="M7.6,3.8Z" fill="#d7c53b" fill-rule="evenodd"/><path d="M8,4.6Z" fill="#d7c53b" fill-rule="evenodd"/><path d="M7.6,3.8Z" fill="#d7c53b" fill-rule="evenodd"/><path d="M7.8,4.2h0Z" fill="#d7c53b" fill-rule="evenodd"/><path d="M7.9,4.4h0Z" fill="#d7c53b" fill-rule="evenodd"/><path d="M7.7,4.4Z" fill="#d7c53b" fill-rule="evenodd"/><path d="M7.8,4.7Z" fill="#d7c53b" fill-rule="evenodd"/><path d="M7.9,4.8Z" fill="#d7c53b" fill-rule="evenodd"/><path d="M7.5,4.3Z" fill="#d7c53b" fill-rule="evenodd"/><path d="M7.8,4.7h0Z" fill="#d7c53b" fill-rule="evenodd"/><path d="M7.5,4.3Z" fill="#d7c53b" fill-rule="evenodd"/><path d="M7.7,4.7h0Z" fill="#d7c53b" fill-rule="evenodd"/><path d="M7.7,4.8Z" fill="#d7c53b" fill-rule="evenodd"/><path d="M7.6,4.7Z" fill="#d7c53b" fill-rule="evenodd"/><path d="M7.5,4.7Z" fill="#d7c53b" fill-rule="evenodd"/><path d="M7.5,4.7Z" fill="#d7c53b" fill-rule="evenodd"/><path d="M7.3,4.3Z" fill="#d7c53b" fill-rule="evenodd"/><path d="M7.2,4.3Z" fill="#d7c53b" fill-rule="evenodd"/><path d="M7.2,4.3Z" fill="#d7c53b" fill-rule="evenodd"/><path d="M7.4,4.6h0Z" fill="#d7c53b" fill-rule="evenodd"/><path d="M7.4,4.7Z" fill="#d7c53b" fill-rule="evenodd"/><path d="M7.4,4.6Z" fill="#d7c53b" fill-rule="evenodd"/><path d="M7.4,4.6Z" fill="#d7c53b" fill-rule="evenodd"/><path d="M7.2,4.3h0Z" fill="#d7c53b" fill-rule="evenodd"/><path d="M7.1,4.2h0Z" fill="#d7c53b" fill-rule="evenodd"/><path d="M7.3,4.6Z" fill="#d7c53b" fill-rule="evenodd"/><path d="M7.3,4.6h0Z" fill="#d7c53b" fill-rule="evenodd"/><path d="M7,4.2Z" fill="#d7c53b" fill-rule="evenodd"/><path d="M7.1,4.5h0S7.2,4.5,7.1,4.5Z" fill="#d7c53b" fill-rule="evenodd"/><path d="M6.9,4.8Z" fill="#d7c53b" fill-rule="evenodd"/><path d="M6.7,4.7Z" fill="#d7c53b" fill-rule="evenodd"/><path d="M6.7,4.7Z" fill="#d7c53b" fill-rule="evenodd"/><path d="M6.7,4.7h0Z" fill="#d7c53b" fill-rule="evenodd"/><path d="M6.6,4.7Z" fill="#d7c53b" fill-rule="evenodd"/><path d="M6.6,4.7Z" fill="#d7c53b" fill-rule="evenodd"/><path d="M6.6,4.7Z" fill="#d7c53b" fill-rule="evenodd"/><path d="M6.6,4.8h0Z" fill="#d7c53b" fill-rule="evenodd"/><path d="M6.5,4.7Z" fill="#d7c53b" fill-rule="evenodd"/><path d="M6.4,4.7Z" fill="#d7c53b" fill-rule="evenodd"/><path d="M6.4,4.7Z" fill="#d7c53b" fill-rule="evenodd"/><path d="M6.4,4.7h0Z" fill="#d7c53b" fill-rule="evenodd"/><path d="M6.4,4.7h0Z" fill="#d7c53b" fill-rule="evenodd"/><path d="M6.3,4.7Z" fill="#d7c53b" fill-rule="evenodd"/><path d="M6.3,4.8h0Z" fill="#d7c53b" fill-rule="evenodd"/><path d="M6.3,4.8h0Z" fill="#d7c53b" fill-rule="evenodd"/><path d="M5.7,4.7Z" fill="#d7c53b" fill-rule="evenodd"/><path d="M5.5,4.7Z" fill="#d7c53b" fill-rule="evenodd"/><path d="M5.4,4.7h0Z" fill="#d7c53b" fill-rule="evenodd"/><path d="M5.3,4.7Z" fill="#d7c53b" fill-rule="evenodd"/><path d="M5.1,4.7Z" fill="#d7c53b" fill-rule="evenodd"/><path d="M4.9,4.6h0Z" fill="#d7c53b" fill-rule="evenodd"/><path d="M4.4,3.7h0Z" fill="#d7c53b" fill-rule="evenodd"/><path d="M4.3,3.7Z" fill="#d7c53b" fill-rule="evenodd"/><path d="M4.6,4.7Z" fill="#d7c53b" fill-rule="evenodd"/><path d="M4.6,4.6h0Z" fill="#d7c53b" fill-rule="evenodd"/><path d="M4.6,4.7Z" fill="#d7c53b" fill-rule="evenodd"/><path d="M4.2,4.7Z" fill="#d7c53b" fill-rule="evenodd"/><path d="M4.2,4.8Z" fill="#d7c53b" fill-rule="evenodd"/><path d="M4.1,4.7Z" fill="#d7c53b" fill-rule="evenodd"/><path d="M4.1,4.7h0Z" fill="#d7c53b" fill-rule="evenodd"/><path d="M4.1,4.8h0Z" fill="#d7c53b" fill-rule="evenodd"/><path d="M4,4.7Z" fill="#d7c53b" fill-rule="evenodd"/><path d="M4,4.9Z" fill="#d7c53b" fill-rule="evenodd"/><path d="M4,4.8Z" fill="#d7c53b" fill-rule="evenodd"/><path d="M4,4.9Z" fill="#d7c53b" fill-rule="evenodd"/><path d="M3.9,4.8Z" fill="#d7c53b" fill-rule="evenodd"/><path d="M3.9,4.8Z" fill="#d7c53b" fill-rule="evenodd"/><path d="M3.8,4.8Z" fill="#d7c53b" fill-rule="evenodd"/><path d="M3.9,4.8h0Z" fill="#d7c53b" fill-rule="evenodd"/><path d="M3.8,4.9Z" fill="#d7c53b" fill-rule="evenodd"/><path d="M3.8,4.8Z" fill="#d7c53b" fill-rule="evenodd"/><path d="M3.8,4.8H3.7a.1.1,0,0,0,.1-.1h0Z" fill="#d7c53b" fill-rule="evenodd"/><path d="M3.7,4.8Z" fill="#d7c53b" fill-rule="evenodd"/><path d="M3.7,4.8Z" fill="#d7c53b" fill-rule="evenodd"/><path d="M3.7,4.9h0Z" fill="#d7c53b" fill-rule="evenodd"/><path d="M8.5,4.2Z" fill="#d7c53b" fill-rule="evenodd"/><path d="M8.4,4.1h0Z" fill="#d7c53b" fill-rule="evenodd"/><path d="M8.3,4.1H8.1c0-.1-.1,0-.1,0H7.6s-.1-.1-.1,0H3.4a.1.1,0,0,0-.1.1h0c0,.1,0,.1-.1.1H3.1a.1.1,0,0,0-.1.1h.6a.1.1,0,0,1,.1-.1h.2c.1,0,0,.1,0,.1h.5c0-.1.1,0,.1,0a.1.1,0,0,1-.1-.1.1.1,0,0,1,.1.1h0c0,.1,0,0,.1,0h.2a.1.1,0,0,1,.1-.1h.2s.1-.1.1,0h.2a.1.1,0,0,0-.1.1c.1,0,.1-.1.1,0h0c0,.1.1,0,.1.1h0c0-.1,0,0,.1,0h.1c0,.1-.1,0-.1,0H6c0-.1,0,0-.1-.1h.3c0-.1,0,0,.1,0H6.2s.1-.1.1,0h.8s-.1,0,0,.1h.7c0,.1,0,0,.1,0H7.5c.1-.1.1,0,.1-.1h.6s-.1-.1-.1,0H7.5a.1.1,0,0,0-.1-.1h.1c-.1.1,0,0,0,.1h.4c0-.1-.1,0-.1-.1h.3s-.1-.1,0-.1h.2Zm-.6-.2Zm-.5-.1h0Zm-3.8.6h0Zm0,.3h0Zm1.1-.1Zm.5,0Zm.4,0Zm2.3.2Zm-.1-.2Zm.5.1Zm-.7-.5Zm.3,0h0Zm.2.1Zm.4-.2ZM8,4H8Zm-.2-.1Zm0,0Zm.3.6Zm-.5-.8Zm.2.4h0Zm.3.4h0Zm0,0Zm0,0Zm-.3-.3Zm.2.3Zm.1.2Zm-.3-.5Zm-.2-.3Zm.2.4Zm.2.4c0-.1,0,0,.1,0H8Zm-.1-.2h0Zm.1.1Zm-.3-.4Zm.2.3Zm-.4-.8Zm0,.2Zm.4.7h0Zm0-.1Zm0,.1Zm0-.1Zm-.1,0Zm0-.1Zm.1.2Zm-.2-.4Zm.2.4Zm-.5-.8a.1.1,0,0,1,.1.1Zm.5.9Zm-.1-.2Zm.1.1Zm-.3-.4Zm0,0h0Zm.3.4Zm-.5-.8Zm.5.8Zm-.2-.2Zm.1.2Zm0-.1h0Zm0,.1s.1,0,0,.1Zm-.2-.4Zm.2.3Zm-.5-.7Zm.4.7Zm-.2-.3Zm.3.5Zm-.1-.1Zm-.4-.8c-.1,0,0,0,0-.1h0Zm.2.4Zm.3.5Zm-.1-.1h0Zm-.2-.4Zm.1.2Zm.2.3Zm-.3-.5Zm0,0Zm.3.6ZM7.1,3.7h0Zm.4.7Zm-.1-.3Zm.1.3h0Zm-.4-.7Zm.6,1.1Zm-.2-.2Zm-.2-.4Zm.2.6h0Zm-.1-.3Zm.1.1Zm-.1,0h0Zm-.1-.3Zm.2.5Zm0,0h0Zm0,0Zm-.1-.2Zm0,0Zm0-.1Zm-.3-.4Zm-.2-.4Zm.6,1.1Zm-.3-.6Zm.2.5Zm-.2-.4Zm.1.3Zm.1.1Zm-.1-.1Zm0-.1Zm0,0Zm.1.2Zm-.1-.2Zm0,.1h0Zm-.1-.1h0Zm.2.3Zm-.1-.1Zm0,.1h0Zm-.1-.3Zm0,0Zm.1.2Zm0,0Zm-.1-.1Zm.1.1Zm-.1,0h0Zm0,0Zm0,0ZM7,4.5H7Zm-.1-.3Zm.1.3H7Zm0,.1H7Zm.1.1ZM7,4.6Zm0-.1Zm0,0Zm-.2-.3Zm.2.4H7Zm.1.1Zm-.2-.2h0Zm0,0Zm0,0h0Zm.2.2h0ZM7,4.6Zm0,0Zm0,.1Zm-.3-.5h0Zm0,0Zm.2.4Zm.1,0Zm-.1-.1h0Zm-.1,0Zm0,0Zm-.4-.8Zm.3.5h0Zm.1.3Zm.1.2Zm-.1-.2Zm0,.2h0Zm.1,0Zm-.2-.2Zm.1.1Zm0,.1Zm-.1-.2Zm-.4-.8Zm.2.5Zm.3.5Zm-.1-.3Zm0,.1h0Zm.1.2Zm0,0Zm-.1-.2h0Zm.1.2h0Zm-.1,0Zm-.1-.2Zm0-.1Zm0,.1Zm-.1-.1Zm0,0Zm0,.1Zm-.1-.1h0Zm.2.3Zm0,0Zm-.1-.1Zm0,.1h0s0-.1.1,0Zm-.1-.3Zm.1.3Zm-.1-.2Zm-.1-.1h0Zm0,.1h0Zm0-.1Zm-.5-.7Zm.4.7Zm-.4-.7Zm-.1,0h0Zm.5.9Zm0,.1H6.1s.1-.1.1,0Zm0,0Zm-.6-.9Zm.5.9Zm0,0Zm0,0Zm-.5-.9h0Zm.4.9Zm-.5-1Zm.5,1H6Zm-.6-.9Zm.5.9Zm-.5-.9Zm.5.9h0Zm-.5-.9Zm.5.9Zm0,0h0Zm-.5-.9h0Zm.5.9Zm-.1-.1Zm0,.1Zm0-.1Zm0,0Zm-.1,0h0Zm0,.1h0Zm0-.1Zm-.1.1h0Zm-.7-.1Zm-.1,0h0Zm-.6-.8Zm0,0Zm.5.8Zm-.5-.8Zm.4.8h0Zm-.4-.8Zm0,.9Zm-.1,0h0Zm0,0Zm-.5-.5Zm-.1,0Zm.3.5Zm-.3-.4h0Zm.2.5Zm-.3-.5h0Zm0,.2Zm.1.2Zm0,0Zm-.1,0Zm0,.1Zm-.3-.1h0Z" fill="#d7c53b" fill-rule="evenodd"/><path d="M7,4.7Z" fill="#d7c53b" fill-rule="evenodd"/><path d="M8.2,3.9Z" fill="#d7c53b" fill-rule="evenodd"/><path d="M7.9,3.9Z" fill="#d7c53b" fill-rule="evenodd"/><path d="M8.1,4.3Z" fill="#d7c53b" fill-rule="evenodd"/><path d="M8,4.1Z" fill="#d7c53b" fill-rule="evenodd"/><path d="M8,4.2Z" fill="#d7c53b" fill-rule="evenodd"/><path d="M7.8,3.8Z" fill="#d7c53b" fill-rule="evenodd"/><path d="M8,4.3Z" fill="#d7c53b" fill-rule="evenodd"/><path d="M7.7,3.7Z" fill="#d7c53b" fill-rule="evenodd"/><path d="M8.3,4.7Z" fill="#d7c53b" fill-rule="evenodd"/><path d="M8,4.3Z" fill="#d7c53b" fill-rule="evenodd"/><path d="M7.7,3.9h0Z" fill="#d7c53b" fill-rule="evenodd"/><path d="M8.1,4.6Z" fill="#d7c53b" fill-rule="evenodd"/><path d="M7.9,4.4Z" fill="#d7c53b" fill-rule="evenodd"/><path d="M7.5,3.8Z" fill="#d7c53b" fill-rule="evenodd"/><path d="M7.5,3.8Z" fill="#d7c53b" fill-rule="evenodd"/><path d="M7.5,3.8Z" fill="#d7c53b" fill-rule="evenodd"/><path d="M7.9,4.9Z" fill="#d7c53b" fill-rule="evenodd"/><path d="M7.8,4.8h0Z" fill="#d7c53b" fill-rule="evenodd"/><path d="M7.7,4.7Z" fill="#d7c53b" fill-rule="evenodd"/><path d="M7.4,4.3h0Z" fill="#d7c53b" fill-rule="evenodd"/><path d="M7.5,4.7H7.4a.1.1,0,0,0,.1.1Z" fill="#d7c53b" fill-rule="evenodd"/><path d="M7.4,4.6Z" fill="#d7c53b" fill-rule="evenodd"/><path d="M7.4,4.7Z" fill="#d7c53b" fill-rule="evenodd"/><path d="M7.4,4.7Z" fill="#d7c53b" fill-rule="evenodd"/><path d="M7.3,4.8Z" fill="#d7c53b" fill-rule="evenodd"/><path d="M7.2,4.6Z" fill="#d7c53b" fill-rule="evenodd"/><path d="M7,4.2Z" fill="#d7c53b" fill-rule="evenodd"/><path d="M7.1,4.8Z" fill="#d7c53b" fill-rule="evenodd"/><path d="M7.1,4.8Z" fill="#d7c53b" fill-rule="evenodd"/><path d="M7.1,4.8Z" fill="#d7c53b" fill-rule="evenodd"/><path d="M7,4.8Z" fill="#d7c53b" fill-rule="evenodd"/><path d="M6.9,4.8h0Z" fill="#d7c53b" fill-rule="evenodd"/><path d="M6.9,4.8Z" fill="#d7c53b" fill-rule="evenodd"/><path d="M6.8,4.8h0Z" fill="#d7c53b" fill-rule="evenodd"/><path d="M6.7,4.7h0Z" fill="#d7c53b" fill-rule="evenodd"/><path d="M6.6,4.8h0Z" fill="#d7c53b" fill-rule="evenodd"/><path d="M6.5,4.7h0Z" fill="#d7c53b" fill-rule="evenodd"/><path d="M6.3,4.7Z" fill="#d7c53b" fill-rule="evenodd"/><path d="M6,4.7Z" fill="#d7c53b" fill-rule="evenodd"/><path d="M5.9,4.7h0Z" fill="#d7c53b" fill-rule="evenodd"/><path d="M5.7,4.6h0Z" fill="#d7c53b" fill-rule="evenodd"/><path d="M5.1,4.7h0Z" fill="#d7c53b" fill-rule="evenodd"/><path d="M4.5,3.7Z" fill="#d7c53b" fill-rule="evenodd"/><path d="M4.1,4.8Z" fill="#d7c53b" fill-rule="evenodd"/><path d="M4,4.7H4Z" fill="#d7c53b" fill-rule="evenodd"/></svg>