<svg id="Layer_1" data-name="Layer 1" xmlns="http://www.w3.org/2000/svg" width="32" height="32" viewBox="0 0 32 32"><title>Artboard 3</title><path d="M13.6,7.9a2,2,0,0,1-1.3-2.2,2,2,0,0,1,1.7-2,1.7,1.7,0,0,1,2.1,1.6.7.7,0,0,0,.8.7c1.8,0,6,.4,6.1,5.2a8.1,8.1,0,0,1-1.7,5.2L12,28.3c0,.1-.2,0-.1-.1,1.7-3.1,5.9-10.8,5.9-14.2A6.2,6.2,0,0,0,13.6,7.9Z" fill="#f4da40"/><path d="M13.2,9.1a5.4,5.4,0,0,1,2.2,1.5,6,6,0,0,1,1,2.5,3.3,3.3,0,0,1,0,1.4v.7l-.2.8c-.3,1-.7,2-1.1,3s-1.9,4.1-2.9,6.1l-.9,1.5-.4.7v.2h0c0,.1-.1.2-.1.3a1.1,1.1,0,0,0,0,.8,1.5,1.5,0,0,0,.9,1,1.7,1.7,0,0,0,1.4-.3h.4l2.1-2.7,4.2-5.5L21.7,18l1.1-1.4.9-1.8a8.4,8.4,0,0,0,.6-3.9A6.4,6.4,0,0,0,22.9,7a6.6,6.6,0,0,0-3.7-2.1H17.3V4.5l-.2-.4a2.2,2.2,0,0,0-.5-.8,2.4,2.4,0,0,0-1.7-.9,4.2,4.2,0,0,0-1.6.1,3.3,3.3,0,0,0-1.5,1A3.4,3.4,0,0,0,11.1,5l-.2.7a2.8,2.8,0,0,0,.1.9,3.1,3.1,0,0,0,2.2,2.5L14,6.6a.5.5,0,0,1-.4-.5V5.6c.1-.2.1-.3.2-.4L14,5h.7v.3a2.1,2.1,0,0,0,2.3,1.9h1.5a3.9,3.9,0,0,1,2.3,1.2c1,1.1,1,3.4.3,5.2a6.7,6.7,0,0,1-.6,1.2l-1,1.3-2.1,2.7-4.2,5.4-2.1,2.7v.2H11l.9.7H12c2,1.2.5.4,1,.6h0v-.2l.4-.7.9-1.6c1.1-2,2.1-4.1,3-6.2a19.6,19.6,0,0,0,1.2-3.4l.3-.9c0-.3.1-.7.1-1a6.7,6.7,0,0,0,0-2,7.5,7.5,0,0,0-5-6.2Z" fill="none"/><path d="M12.9,7.3h0Z" fill="#d7c53b" fill-rule="evenodd"/><path d="M12.8,7.2a.1.1,0,0,0-.1-.1A.1.1,0,0,0,12.8,7.2Z" fill="#d7c53b" fill-rule="evenodd"/><path d="M12.7,6.8h0Z" fill="#d7c53b" fill-rule="evenodd"/><path d="M13,5.4h.1A.1.1,0,0,0,13,5.4Z" fill="#d7c53b" fill-rule="evenodd"/><path d="M12.6,7c.1,0,0-.1,0-.2h0Z" fill="#d7c53b" fill-rule="evenodd"/><path d="M13.1,5.3h0Z" fill="#d7c53b" fill-rule="evenodd"/><path d="M12.5,5.9c0,.1.1,0,0-.1Z" fill="#d7c53b" fill-rule="evenodd"/><path d="M13.4,4.9h0Z" fill="#d7c53b" fill-rule="evenodd"/><path d="M12.6,5.7h0S12.5,5.7,12.6,5.7Z" fill="#d7c53b" fill-rule="evenodd"/><path d="M12.5,5.5V5.3C12.5,5.4,12.4,5.5,12.5,5.5Z" fill="#d7c53b" fill-rule="evenodd"/><path d="M14.2,4.6h0Z" fill="#d7c53b" fill-rule="evenodd"/><path d="M12.6,5c0-.1.1-.1.1-.2Z" fill="#d7c53b" fill-rule="evenodd"/><path d="M14,4.2h0Z" fill="#d7c53b" fill-rule="evenodd"/><path d="M12.9,4.4h-.1C12.7,4.5,12.8,4.4,12.9,4.4Z" fill="#d7c53b" fill-rule="evenodd"/><path d="M13.4,4h0Z" fill="#d7c53b" fill-rule="evenodd"/><path d="M14.9,4.6h0Z" fill="#d7c53b" fill-rule="evenodd"/><path d="M15,4.5Z" fill="#d7c53b" fill-rule="evenodd"/><path d="M15,5.1c0,.1,0,.1.1.2Z" fill="#d7c53b" fill-rule="evenodd"/><path d="M12.9,4H13c0-.1,0-.1-.1,0Z" fill="#d7c53b" fill-rule="evenodd"/><path d="M13.4,3.9h.1A.1.1,0,0,0,13.4,3.9Z" fill="#d7c53b" fill-rule="evenodd"/><path d="M13.2,3.8h.1l.4-.2h-.5C13.2,3.8,13.3,3.7,13.2,3.8Z" fill="#d7c53b" fill-rule="evenodd"/><path d="M15.3,5Z" fill="#d7c53b" fill-rule="evenodd"/><path d="M11.9,4.6v0Z" fill="#d7c53b" fill-rule="evenodd"/><path d="M11.8,4.6V4.4C11.9,4.5,11.9,4.6,11.8,4.6Z" fill="#d7c53b" fill-rule="evenodd"/><path d="M12,4.3c.1,0,0,0,0-.1Z" fill="#d7c53b" fill-rule="evenodd"/><path d="M15.3,5.1v.2h0c.1,0,.1,0,.1-.1Z" fill="#d7c53b" fill-rule="evenodd"/><path d="M11.4,5a.8.8,0,0,1,.1-.4A.8.8,0,0,0,11.4,5Z" fill="#d7c53b" fill-rule="evenodd"/><path d="M15.6,6.1v0Z" fill="#d7c53b" fill-rule="evenodd"/><path d="M13.2,3.4h0Z" fill="#d7c53b" fill-rule="evenodd"/><path d="M14.7,3.6h0Z" fill="#d7c53b" fill-rule="evenodd"/><path d="M12.2,3.8l.2-.2Z" fill="#d7c53b" fill-rule="evenodd"/><path d="M15.9,6.5H16l.5.2Z" fill="#d7c53b" fill-rule="evenodd"/><path d="M14.2,3.2h0Z" fill="#d7c53b" fill-rule="evenodd"/><path d="M16.5,6.8h0Z" fill="#d7c53b" fill-rule="evenodd"/><path d="M16.9,6.8h.4c-.2-.1,0-.1-.1-.1Z" fill="#d7c53b" fill-rule="evenodd"/><path d="M14.3,3h0Z" fill="#d7c53b" fill-rule="evenodd"/><path d="M17.6,6.9h0Z" fill="#d7c53b" fill-rule="evenodd"/><path d="M16.1,5.5v.2A.3.3,0,0,0,16.1,5.5Z" fill="#d7c53b" fill-rule="evenodd"/><path d="M16.1,4.2c.1.1,0,0,0,.1h0Z" fill="#d7c53b" fill-rule="evenodd"/><path d="M16.7,5.7h0Z" fill="#d7c53b" fill-rule="evenodd"/><path d="M16.9,4.8h0Z" fill="#d7c53b" fill-rule="evenodd"/><path d="M16.5,3.3l.3.3C16.7,3.5,16.6,3.3,16.5,3.3Z" fill="#d7c53b" fill-rule="evenodd"/><path d="M18.4,6h0Z" fill="#d7c53b" fill-rule="evenodd"/><path d="M17.1,4.9h0Z" fill="#d7c53b" fill-rule="evenodd"/><path d="M18.8,6h0Z" fill="#d7c53b" fill-rule="evenodd"/><path d="M17.2,5h0Z" fill="#d7c53b" fill-rule="evenodd"/><path d="M17.3,4.8Z" fill="#d7c53b" fill-rule="evenodd"/><path d="M18,5.1h0Z" fill="#d7c53b" fill-rule="evenodd"/><path d="M18.7,5.3h0Z" fill="#d7c53b" fill-rule="evenodd"/><path d="M19,5.3h0Z" fill="#d7c53b" fill-rule="evenodd"/><path d="M21.3,7.2h.2c.1,0-.1-.1,0-.1S21.3,7.1,21.3,7.2Z" fill="#d7c53b" fill-rule="evenodd"/><path d="M21.5,7.3h0Z" fill="#d7c53b" fill-rule="evenodd"/><path d="M21.8,7.7h0Z" fill="#d7c53b" fill-rule="evenodd"/><path d="M20.1,5.7h0Z" fill="#d7c53b" fill-rule="evenodd"/><path d="M20,5.6h0Z" fill="#d7c53b" fill-rule="evenodd"/><path d="M20.3,5.8h0Z" fill="#d7c53b" fill-rule="evenodd"/><path d="M20.6,6h0Z" fill="#d7c53b" fill-rule="evenodd"/><path d="M22.1,8.1c.1.1.1.1.1.2S22.2,8.1,22.1,8.1Z" fill="#d7c53b" fill-rule="evenodd"/><path d="M22.6,8.9c0,.2.1.3.1.4a.8.8,0,0,0-.1-.4h0C22.6,8.8,22.5,8.9,22.6,8.9Z" fill="#d7c53b" fill-rule="evenodd"/><path d="M21.7,6.6c.1.1.1,0,.1.1Z" fill="#d7c53b" fill-rule="evenodd"/><path d="M21.8,6.7h0Z" fill="#d7c53b" fill-rule="evenodd"/><path d="M22.9,9.8Z" fill="#d7c53b" fill-rule="evenodd"/><path d="M22.7,7.9s0-.1.1,0S22.6,7.7,22.7,7.9Z" fill="#d7c53b" fill-rule="evenodd"/><path d="M24.1,10.7a.1.1,0,0,0,0,.2Z" fill="#d7c53b" fill-rule="evenodd"/><path d="M23.9,12.9a.1.1,0,0,1,0,.2v0h0v.2h0v-.3Z" fill="#d7c53b" fill-rule="evenodd"/><path d="M23.8,13.7h-.1v.2c.1-.1,0-.2.1-.1Z" fill="#d7c53b" fill-rule="evenodd"/><path d="M23.7,14h0Z" fill="#d7c53b" fill-rule="evenodd"/><path d="M23.5,14.3v.2a.4.4,0,0,1,.1-.3A.1.1,0,0,1,23.5,14.3Z" fill="#d7c53b" fill-rule="evenodd"/><path d="M23.5,14.6h0Z" fill="#d7c53b" fill-rule="evenodd"/><path d="M23.4,14.7Z" fill="#d7c53b" fill-rule="evenodd"/><path d="M23.4,14.8v0Z" fill="#d7c53b" fill-rule="evenodd"/><path d="M22.8,15.9h0Z" fill="#d7c53b" fill-rule="evenodd"/><path d="M22.5,16.5c-.1,0-.1,0-.1.1h.1Z" fill="#d7c53b" fill-rule="evenodd"/><path d="M22.2,16.8V17c-.1,0,.1-.1,0,0s0-.1.1-.1Z" fill="#d7c53b" fill-rule="evenodd"/><path d="M22.1,17.1h0Z" fill="#d7c53b" fill-rule="evenodd"/><path d="M21.8,17.3c-.1.1-.2.2-.2.3h.3C21.9,17.2,21.8,17.3,21.8,17.3Z" fill="#d7c53b" fill-rule="evenodd"/><path d="M21.8,17.4l-.2.2A.2.2,0,0,0,21.8,17.4Z" fill="#d7c53b" fill-rule="evenodd"/><path d="M21.6,17.7h0C21.5,17.8,21.5,17.8,21.6,17.7Z" fill="#d7c53b" fill-rule="evenodd"/><path d="M21.2,18.2Z" fill="#d7c53b" fill-rule="evenodd"/><path d="M17,23.2c0,.1-.1.2-.1.3s.1-.1.1-.2Z" fill="#d7c53b" fill-rule="evenodd"/><path d="M16,24.8h0Z" fill="#d7c53b" fill-rule="evenodd"/><path d="M14.7,26.3h0Z" fill="#d7c53b" fill-rule="evenodd"/><path d="M14.1,27a.3.3,0,0,1-.1.2Z" fill="#d7c53b" fill-rule="evenodd"/><path d="M13,28.5v.2A.3.3,0,0,0,13,28.5Z" fill="#d7c53b" fill-rule="evenodd"/><path d="M11.8,26.7h0c-.1,0-.1,0-.1.1S11.7,26.8,11.8,26.7Z" fill="#d7c53b" fill-rule="evenodd"/><path d="M16.3,21.9l.2-.5A1.7,1.7,0,0,1,16.3,21.9Z" fill="#d7c53b" fill-rule="evenodd"/><path d="M16.5,21.4c.1-.1.1-.1.1-.2S16.5,21.3,16.5,21.4Z" fill="#d7c53b" fill-rule="evenodd"/><path d="M13.4,23.5h-.1l.2-.2c-.1.1-.2.2-.2.3Z" fill="#d7c53b" fill-rule="evenodd"/><path d="M13.7,23.1h0C13.6,23.1,13.7,23.1,13.7,23.1Z" fill="#d7c53b" fill-rule="evenodd"/><path d="M13.5,23.1h.1C13.6,23.1,13.6,23.1,13.5,23.1Z" fill="#d7c53b" fill-rule="evenodd"/><path d="M15.4,19h0Z" fill="#d7c53b" fill-rule="evenodd"/><path d="M15.4,18.7h0Z" fill="#d7c53b" fill-rule="evenodd"/><path d="M15.6,18.5c0-.2.1-.3.1-.5h.1A4.2,4.2,0,0,0,15.6,18.5Z" fill="#d7c53b" fill-rule="evenodd"/><path d="M15.8,17.9v0Z" fill="#d7c53b" fill-rule="evenodd"/><path d="M15.9,17.7v0Z" fill="#d7c53b" fill-rule="evenodd"/><path d="M16,17.5v-.2h0Z" fill="#d7c53b" fill-rule="evenodd"/><path d="M15.7,17.2c0,.1.1-.1.1-.1Z" fill="#d7c53b" fill-rule="evenodd"/><path d="M16.2,16.5h0c0-.1.1-.2.1-.3h0c0,.1-.1.1-.1.2h0Z" fill="#d7c53b" fill-rule="evenodd"/><path d="M15.8,16.9a.4.4,0,0,0,.1-.3A.4.4,0,0,1,15.8,16.9Z" fill="#d7c53b" fill-rule="evenodd"/><path d="M16.3,16.1c0-.1.1-.1.1-.2h0C16.3,15.9,16.3,16,16.3,16.1Z" fill="#d7c53b" fill-rule="evenodd"/><path d="M16.3,15.9c.1,0,.1-.1.1-.2Z" fill="#d7c53b" fill-rule="evenodd"/><path d="M16.5,15.2h0a.4.4,0,0,1-.1.3C16.5,15.5,16.5,15.3,16.5,15.2Z" fill="#d7c53b" fill-rule="evenodd"/><path d="M16.4,15.6v0Z" fill="#d7c53b" fill-rule="evenodd"/><path d="M16.4,15.2h0Z" fill="#d7c53b" fill-rule="evenodd"/><path d="M16.4,15.2a.4.4,0,0,0,.1-.3Z" fill="#d7c53b" fill-rule="evenodd"/><path d="M16.6,14.7c-.1.1-.1,0-.1-.1h.1v-.1h0V15A.4.4,0,0,0,16.6,14.7Z" fill="#d7c53b" fill-rule="evenodd"/><path d="M16.5,14.3h.1v-.2h-.1C16.5,14.3,16.6,14.2,16.5,14.3Z" fill="#d7c53b" fill-rule="evenodd"/><path d="M16.6,14.1Z" fill="#d7c53b" fill-rule="evenodd"/><path d="M16.6,14h0Z" fill="#d7c53b" fill-rule="evenodd"/><path d="M13.5,7.8h.1l-.4-.3h-.4l.2.2h.1l.3.2h.1Z" fill="#d7c53b" fill-rule="evenodd"/><path d="M12.7,6.6V6.4h0C12.6,6.5,12.6,6.6,12.7,6.6Z" fill="#d7c53b" fill-rule="evenodd"/><path d="M12.6,6.2h-.1V5.8a.8.8,0,0,0,.1-.4v.2c0-.2.1-.3.1-.5h.1l.2-.3a.8.8,0,0,0-.1.3,1,1,0,0,0,.1-.3h.2l.3-.2h0l-.2.2h.4c-.1,0,0-.1,0,0H14c.1,0,0,.1.1.1s.4-.1.4,0h.4a.1.1,0,0,1,.1.1c0-.1.1,0,.1,0H15l.3.3c0,.2.1.4.1.6h0a.6.6,0,0,0,.1.4V6h0c.1,0,.2.2.1.2l.8.5h3.2l.5.2a4,4,0,0,1,1.9,3.4,7,7,0,0,1-1,4l-.6.9-.7,1-1.5,1.9-3,3.8h0l.9-1.2h0l.2-.2h0l.5-.6.4-.5h0l.6-.8h0l.8-.9c0-.1.2-.2.2-.3l.3-.3a.5.5,0,0,1,.2-.4c.1,0,0,.1,0,0h.1c0-.1.1-.1.2-.2h0c.1-.1.2-.2.2-.3s0,0,.1-.1h.1c0-.1.2-.2.3-.4h0l.4-.6L21,15v-.2a12.2,12.2,0,0,0,.7-1.7h.1c0-.4.1-.8.1-1.2h0v-.5h0v.2h0v-.7c-.1,0-.1-.1-.1-.2h0a4.3,4.3,0,0,0-.1-.5h0a4.1,4.1,0,0,1-.3-.8h0L21,8.2l-.6-.5h-.1l-.2-.2c-.1,0,0,.1,0,.1H20l-.4-.3h-.7a.1.1,0,0,1-.1-.1h-.4s.1-.1,0-.1H16.2c0-.1.2,0,.1-.1a1.4,1.4,0,0,1-.9-.8v.2h0c-.1-.2-.2-.3-.2-.5h0s0-.2-.1-.2.1-.1,0-.1h0V5.2h-.1c0-.1,0-.2-.1-.2h0l-.2-.2h-.7c-.1,0,0,0,0-.1H14c.1,0,0,.1,0,.1h.8c-.1.1-.1,0-.2,0H15v.2h0v.2h0v.4c0,.2-.1-.1,0-.1a1.5,1.5,0,0,0,.3.7l.4.3h0l.6.2h2.2l.6.2h.5l.8.6h.1l.5.6h.1a.4.4,0,0,0,.1.3h0a9.4,9.4,0,0,1,.3.9h0a8.6,8.6,0,0,1,0,1.6c.1.1,0,.5-.1.7s0,.3-.1.4h0a.4.4,0,0,1-.1.3,3.8,3.8,0,0,1-.3,1H21a6,6,0,0,1-.6,1.1l-.3.4-.3.4-.6.8-1.5,1.9h0l-.7,1h-.1c0,.1,0,.1-.1.2a.1.1,0,0,1,.1-.1.1.1,0,0,0-.1.1l-5.6,7.4h-.1l.8.6H12l.9.5h0v-.2l.3-.5v-.2c.1,0,.1-.2.2-.3h0l.2-.4,1-1.9h.1c0-.1.1-.3.1-.4h.2a1.4,1.4,0,0,1,.2-.6c.1-.1.1-.1.1,0v-.2h0c0-.1.1-.1.1-.2h0a.3.3,0,0,0,.1-.2c.1-.1,0,0,0,.1l.2-.7h.1c0-.1.1-.2.1-.4h.1v-.2c.1-.1,0,0,0,.1s.1-.3.1-.4h.1a6.3,6.3,0,0,0,.4-.9.8.8,0,0,1,.2-.4.3.3,0,0,0-.1.2h0a.6.6,0,0,1-.1.4v.3a2.6,2.6,0,0,0,.3-.8h0c0-.1.1-.3.1-.4h.1c0-.3.1-.4.1-.6a3.2,3.2,0,0,0,.3-.9,1.4,1.4,0,0,0,.2-.6c.1-.3.2-1,.4-1.5s.1-.3,0-.2a.6.6,0,0,1,.1-.4,5,5,0,0,1,.2-1.2c0-.1,0-.2-.1-.1V14h0v-1a.4.4,0,0,1-.1-.3l-.3-.9h0v-.2h0a1.6,1.6,0,0,0-.4-.7,2.8,2.8,0,0,0-.5-.8l-.6-.6-.6-.4h0c0,.1.1.1.1.2l.2.2h.1a.2.2,0,0,1,.2.2c-.1,0-.1-.1-.2-.2l.9,1.3h.1v.2c0,.1.1.2.2.3h0v0h0v-.2h0c0-.1-.1-.1-.2-.2h0a.9.9,0,0,0-.3-.5l.2.3-.2-.4-.3-.3a7.6,7.6,0,0,0-.9-.9v.2l.2.2c.1.1.1,0,.1,0a.3.3,0,0,0,.1.2h-.1l.2.2c.1.1,0,0,0,.1l.2.3v-.2h.1l.2.3h.1l-.3-.3-.4-.5V10h.1l-.2-.2h0l-.3-.3-.3-.2h.1l-.5-.3c-.1-.1-.5-.4-.6-.3h-.8c.1.1.2.1.1.2l.4.2h.3l.4.3.5.3h0l-.4-.2h.1l.6.4h0L15,10h.2l.2.2h.3l.2.2h-.1l.2.3h.1c0,.1.1.2.1.3h-.1c0,.1.1.1.1.2h0a1.4,1.4,0,0,1,.2.6h.1c-.1.1.1.3.1.4s-.1-.2-.2-.3.1.2,0,.2h0a.1.1,0,0,1,0,.2v.2h.1s-.1-.1,0-.1v.2h0v.5a.4.4,0,0,0,.1.3c-.1.1-.1-.1-.1-.1s0,.4.1.4v-.3h0c0-.1-.1-.3,0-.5v.5c.1.1,0,.3,0,.5h-.1v.2c-.1.1,0,.2-.1.3v.3h0s-.1.2,0,.2a.3.3,0,0,0-.1.2.6.6,0,0,1-.1.4v-.2c-.1.2,0,.2-.1.4h0c.1,0,.1,0,.1-.1h0c0,.1-.1.1-.1.2h.1v.2h0a1.9,1.9,0,0,1-.2.7h0a.5.5,0,0,1-.1.3s.1-.2,0-.2h0a4.3,4.3,0,0,1-.1.5c-.1.1,0-.2,0-.2a.1.1,0,0,1-.1.1,3.7,3.7,0,0,0-.2.9c-.1.1,0-.1-.1,0v.2h.1c0,.2-.1.2-.1.4h-.1a.4.4,0,0,1-.1.3h0a3,3,0,0,0-.4.8h-.1c0,.1.1,0,0,.1V21h0c-.1.1,0,.1-.1.2h0l-.2.3c-.1.2.1-.1,0,0h0a.3.3,0,0,0-.1.2.3.3,0,0,1-.1.2h0c0-.1-.1,0,0-.1a1.7,1.7,0,0,1-.2.5h0c-.1.1,0,.1-.1.2s-.1.2-.1.3a.4.4,0,0,0-.1.3c-.1,0,0-.1,0-.2h0c0,.1-.1.2-.1.3s-.1.1-.1.2.1-.2,0-.1.1-.1.1-.2-.1.2-.1.2-.1.1-.1.2-.1.1-.1.2l-.2.3h.1v.2h-.1c.1,0,0,.1,0,.2a.1.1,0,0,1,.1-.1.1.1,0,0,0-.1.1h-.1c0,.1.1.1,0,.1h0c-.1.1-.1-.1-.1,0h0a.1.1,0,0,0-.1.1h0l-.2.2a.4.4,0,0,1-.1.3s.1-.1,0-.1v.3c-.1.1,0,0,0,.1s0,0-.1,0h0c-.2.1-.2.4-.3.5v.2h-.1c0,.1.1-.1.1-.1a.4.4,0,0,0-.1.3h-.1c0,.1-.1.1-.1.2h0v.2a.3.3,0,0,1-.1.2h0c-.1,0-.2.3-.2.5v.3c0-.1-.1-.3-.1-.4a1,1,0,0,0,.6.9c.2.2.7.1,1-.1l-.5.2h.3l.4-.3h-.1l-.4.3a1,1,0,0,1-.9-.1,1,1,0,0,0,.9.1c.3-.1.4-.4.4-.3h.1s-.1.1-.1,0h.2a.1.1,0,0,1,.1-.1h.1a.1.1,0,0,1,.1-.1h-.1l.3-.4h.1c0-.1.2-.2.3-.4h.1v-.2l.3-.3h.1c0-.1,0-.1.1-.2h-.1l.2-.2h-.1l.3-.3h0c0,.1-.1.1-.1.2l.2-.3h0v-.2H15c.1-.1,0,0,0-.1s0,.1.1,0h0l.6-.7s-.1.1,0,.1.1-.2.2-.3H16s0,.1.1,0h0s0,.1.1,0l.3-.4h0l.3-.3h.1c-.1.1-.1,0,0-.1l-.3.4h-.2c.2-.1.3-.4.5-.5h0l.2-.3c0-.1.1-.1.1-.2h.1c0-.1.1-.1.1-.2s.2-.2.2-.3h.2l.2-.3h.1s-.1,0,0-.1h.1v-.2h.2c0-.1,0-.1.2-.2s.1-.2.1-.3h0c0-.1.1-.2.2-.3h-.1c-.1,0,0-.1,0-.1h0a.1.1,0,0,0,.1-.1h0l.2-.2h0c0,.1-.1.2-.1.4v-.2h.1c0-.1,0,0,.1-.1s.1-.3.2-.3h0a.1.1,0,0,1-.1.1h.2a.1.1,0,0,0-.1.1h0c0-.1.1-.1.1-.2h.1c-.1,0,0,0,0-.1s0,.1.1,0h0c.1,0,.1-.1.2-.2s-.2.4-.4.6h-.1c.1,0,.1,0,.1-.1h.1a.1.1,0,0,0,.1-.1c.1,0-.1.1,0,0H20c0-.1.2-.2.2-.3h0l.2-.3h0c0,.1-.1.1-.1.2s0,.1,0,0h0c.1-.1.3-.3.3-.4s.1-.1.1-.1a.1.1,0,0,0,.1-.1h-.1a.3.3,0,0,1,.1-.2c.1-.1-.1.1,0,.1v-.2c-.1.1-.1,0-.1,0a.1.1,0,0,0,.1-.1c-.1.1-.1.2-.2.2v.3h0c-.1,0,.3-.4.5-.7h0c-.1,0,0-.2.1-.2h0l-.2.4h.1s-.1,0,0-.1l.2-.3h0v.2h0c.1-.1,0-.1.1-.2h0c.1-.2.3-.3.3-.5s0,.1.1,0a.3.3,0,0,0,.1-.2.1.1,0,0,1-.1.1l.2-.3a.3.3,0,0,1-.1.2h.1v-.3a.1.1,0,0,1-.1.1h.2c0-.1.1-.2.2-.3v.2h.2c0-.1.1-.1.1-.2h0V16h0c0-.2.1-.2.3-.4s.2-.4.2-.6h-.1l.2-.3h0v-.2h.1v-.2c0-.2.1-.3.1-.5s.1.1.1,0h0c0-.1,0-.1.1-.2v-.2h.1c-.1,0-.1-.1,0-.1h-.1v-.2a.1.1,0,0,0-.1.1h0v-.2h0c.1-.1,0-.1,0-.1v-.3h0v-.3c0-.1.1-.1.1-.3H24c0-.1.1-.1.1-.2H24v.2h0v-.2h0V12h0v-.2c.1,0,0-.1,0-.2h0a.3.3,0,0,0,0-.4h.1a.8.8,0,0,0-.2-.5h0c0-.1.1.1.1-.1v.2h0v-.2h0c.1-.1,0-.1,0-.2V10c0-.1-.1-.2-.1,0h0v.4c-.1-.3-.2-.9-.3-1.3h-.1c.1-.1,0-.1,0-.2s.1.1.1,0l-.2-.3V8.3a.3.3,0,0,0-.1-.2c-.1-.3-.4-.6-.6-1h-.5c0-.1,0,0,.1,0l-.6-.4h-.2c0-.1.1,0,0-.1h0a.9.9,0,0,0-.5-.3c-.1-.1.1,0,0-.1l-.4-.2h-.4l-.6-.2H17.3a.1.1,0,0,0-.1-.1h.1s-.1.1-.1,0h0c0-.1,0,0,.1.1s0-.1,0-.2-.1-.3-.2-.4a.9.9,0,0,0-.3-.5L17,4h0a.3.3,0,0,1,.1.2H17a1.1,1.1,0,0,0,.2.5v.2h1.3c.1,0,.2,0,.1.1H19c-.1.1,0,.1.1.1h.4c0,.1-.1,0-.1,0l.5.2.5.2h.1l.4.2H21l.2.2h0c-.2,0,.1.1.2.2s0-.1.1,0,0,0,0,.1h.2l.3.2h0l.2.3h-.1l.2.2c-.1,0,.1.2.2.3h-.1v.2h.1c.1.1,0,.1,0,.1a.1.1,0,0,1,.1.1.3.3,0,0,1,.1.2c0-.1,0,0,.1.1s-.1-.2,0,0h0l.2.2c0,.1-.1,0-.1,0l.2.4h0a.4.4,0,0,1,.1.3h0V8.8h0c0-.1-.1-.2-.1-.3h0c-.1,0,0,0,0-.1H23c-.1,0-.1-.2-.2-.3h-.1v.2h.1c0,.1,0,0-.1,0s0-.2-.1-.2h0c-.2-.1-.4-.5-.6-.7h0l.5.6h-.2s.1,0,0-.1-.1,0-.1-.1,0,0,0-.1l-.4-.3H22l-.3-.2h-.2c-.1,0,0,0,0,.1l-.2-.2c-.1,0,.1.1,0,0h0l-.4-.3c-.1,0,0,.1.1.1s-.2,0-.2-.1,0,.1,0,.1a.1.1,0,0,0-.1-.1h-.5l-.5-.2-.5-.2H17.1V4.9h0s.1,0,0-.1h.1V4.3c-.1.1-.2-.1-.2,0a.5.5,0,0,0-.2-.4s.3.4.2.4h-.1a1,1,0,0,1-.1-.3h-.1V3.6l-.2-.2c-.1-.1,0-.1-.1-.2s0,0,.1.1L15.8,3c-.1,0,.2.1.1,0H14.4s.1,0,0-.1H12.7l-.2.2c-.1.1,0,0-.1,0s-.1.2-.2.2,0,.1-.1.2.1-.2.1-.2h.1l-.3.2c0,.1,0,.1-.1.1l-.2.4c-.1.1,0,.1,0,.1l-.2.2v.2c0-.1.1-.2.1-.3s0,.1.1-.1-.1.2-.1.2h.2a.1.1,0,0,1-.1.1l.2-.2h0l.2-.2H12l.3-.3.3-.2.2-.2c.1,0,0,.1,0,.1l.3-.2H13c.1,0,.2,0,.2-.1s.1.1.1,0h.4c0-.1.1,0,.2-.1s.1,0,.2.1h-.9c.2-.2.7-.2.9-.3h.5a.1.1,0,0,0-.1-.1h.6c0,.1,0,.1-.1.1s.1-.1.3,0h.2c-.2,0,.2.2.3.4s-.5-.4-.5-.3h-.6c-.1,0,0,.1,0,.1h-.2c0,.1-.1,0-.1.1a.1.1,0,0,1-.1-.1c-.1.1-.1,0-.2,0h-.5c-.1,0,0,0-.1.1h-.3l-.4.2c-.2.2-.4.3-.5.5l-.2.2h.2c0-.1.1-.2.2-.3h.1l.4-.3c0,.1-.1.1-.2.2H13a.7.7,0,0,1,.6-.2h.1a2.1,2.1,0,0,1,2,.4l.3.2h0l.2.3a.1.1,0,0,0-.1-.1c.1.1.2.2.2.3s.1.3.1.5h0V5h.1c0,.1-.1.1,0,.2h-.1l.2.3h1.9c.1-.1,0,0-.1-.1h1.5c.1.1,0,.1,0,.1h.5c.1,0,0-.1,0-.1h.4l.4.3h.1s-.1,0,0,.1h.1v.2h.1l.2.2h-.1l.7.9h-.1c.1,0,.1.1.1.2h.1a1.1,1.1,0,0,0,.3.6h-.1v.3h0a.6.6,0,0,1,.1.4h0s.1.1,0,.1.1.4.1.5h0c0,.1.1.2,0,.2s.1.1.1.2H23c.1,0,.1.1,0,.1s.1.1.1.2h0v.3h0v-.1h0v-.2s-.1-.1,0-.1v.2h0c.1-.1,0-.4,0-.5h0v.3s0-.3-.1-.4H23v-.2h0a4.3,4.3,0,0,1-.1-.5V9.6h.1V9.2h-.1V8.6h0V8.3h0L22,8h.1V7.9h0l-.2-.2c-.1,0-.2-.2-.2-.2l-.3-.2h0l-.2-.2H21c-.1-.1.1,0,0-.1h-.3c-.1-.1.1,0,0-.1H20c-.1,0-.2,0-.2-.1s.1.1.2.1h-.2l-.3-.2h.1c0,.1-.2,0-.2,0h-.1c.1-.1-.3-.1-.4-.2H16.2s0-.3-.1-.3,0-.1,0-.1h.1V4.6a.1.1,0,0,0,.1.1H16c0,.1.1.1.1.2V4.6H16a1.6,1.6,0,0,0-.4-.7s-.2-.1-.1,0h-.4a1.5,1.5,0,0,1,.6.5c.1.1,0,0,0,.1s.1,0,.1.1a.1.1,0,0,0-.1-.1l-.4-.4h-.1c0,.1,0,0-.1,0h-.5c-.1,0,.1,0,0-.1s-.1.1-.1,0,0,.1-.1.1h-.6a.1.1,0,0,0,.1-.1c0,.1-.1.1-.2.1h.9s-.1,0,0,.1h.2l.5.2c.1.1.1.2.2.2s.3.4.3.5h0v0c0,.1,0,0-.1-.1h.1l-.2-.2c0-.1.1,0,.1.1s-.1-.2-.1-.3h0l-.2-.2c0-.1.1,0,0-.1h0L15,4h-.1s-.1,0,0,.1H13.7c0,.1.1,0,.1,0h-.2l-.3.2h-.2l-.3.3c0,.1-.1.1-.1.2h0v.3h0v.3h0v.2h.1c-.1,0-.1.1-.1.2V5.5h-.1c.1,0,.1.1.1.2h-.1v.3c.1,0,0,0,0-.1h.1v.2h0C12.5,6.2,12.6,6.3,12.6,6.2Zm3.5.3h0Zm5,1.9H21l-.2-.2h.1a.1.1,0,0,1,.1.1h.1Zm-4.4,2.7h0Zm-.5.3c-.1-.1-.1-.1-.1-.2H16l.2.3h-.1ZM14.3,21.8c0,.1-.1.1-.1.2S14.2,21.9,14.3,21.8Zm-2.7,5.3h-.1S11.6,27,11.6,27.1Zm3.2-1h0ZM17.2,4.9h0C17.2,4.9,17.3,4.9,17.2,4.9Zm1,.4h0Zm-6-1.8c.1,0,0,0,.1-.1h-.1Zm7.9,3.1-.3-.2Zm-3.5-.7h0Zm-.7-1.6h-.1C15.8,4.1,15.9,4.2,15.9,4.3ZM12.5,5.6h0V5.6ZM14,4.1h0Zm1.4.9a.3.3,0,0,1-.1-.2Zm.1.6V5.3h0ZM13.1,3.4l.4-.2Zm4.2,3.7h0ZM15.6,4.6h0S15.7,4.6,15.6,4.6ZM13,3.3h-.1C13,3.4,13.1,3.3,13,3.3Zm.2-.1h0Zm.5,0h0Zm2.1,1.3h.1c0-.1-.1,0-.1-.2S15.9,4.5,15.8,4.5ZM14.4,3.1h0Zm-1.5,0h0ZM16,4.8c0,.1.1.2.1.3h0v.2c0-.2,0-.2-.1-.3h0V4.7h0v0Zm1.2,1.9h0ZM15.9,4.4h0ZM13.8,2.8c-.1.1-.2,0-.2.1s0-.1-.2,0Zm1.4.4h0Zm-1-.3h.3a.1.1,0,0,1-.1.1ZM16.4,6h-.1a.1.1,0,0,1-.1-.1L16,5.5c0-.1.1-.1,0-.1s.1-.1.1,0h0a.5.5,0,0,0,.1.3h.3l-.3-.2h0v.2h.1ZM15.3,3.3h0Zm3.7,4c0,.1-.1.1-.2,0Zm-.7-.5a.1.1,0,0,1-.2,0ZM15.2,3H15C15.1,3,15.1,2.9,15.2,3Zm.8.6h-.1l-.2-.2ZM15.2,3h.2c-.2,0,.2.1.1.1Zm1,1c.1,0,0-.1-.1-.2S16.3,4.1,16.2,4Zm.1.2h-.1C16.2,4.1,16.3,4.2,16.3,4.2Zm.1.7c0-.1-.1-.2-.1-.3A.4.4,0,0,1,16.4,4.9Zm-.8-1.7c.2,0,.3.2.4.2l-.3-.2Zm1.3,2.9h0Zm-.8-2.5c0-.1-.1-.1-.2-.2Zm3,3.5h-.3C18.9,6.9,19,7,19.1,7.1Zm-3.4-4h.1l.2.2h0c.1,0,.2.2.3.3l.2.3-.3-.4h0c-.2-.1-.2-.2-.1-.1L15.5,3Zm.8,1.2c-.1,0-.1,0-.2-.2S16.4,4.2,16.5,4.3ZM16,3.4h0Zm1.1,2.7h.3a.1.1,0,0,1-.1.1Zm.1,0h0ZM16.5,4c0,.1-.1-.1,0,.1l-.2-.2Zm3.2,3.4h0ZM16.4,3.8h0a.3.3,0,0,0-.1-.2Zm.2,1.7Zm0-1.2c0,.1.1.2.1.4s-.1-.3-.1-.4Zm.1.5h0Zm-.1-.7c0,.1-.1-.1,0,0s0,0,0,.1h0c0-.1-.1-.2-.1-.1Zm1.2,2s0,.1-.1,0Zm-1.1-1h0Zm3.6,2.7h0ZM16.8,5.5h0Zm1.5.7h0ZM17,4.9h-.1a.4.4,0,0,0-.1-.3h0c0-.2,0-.1.1,0H17Zm-.1.3ZM20.7,8h0l-.2-.2Zm-2-1.7h0ZM17,4.5h0Zm-.1.8h0Zm1.9,1c.1,0,.1,0,.1.1a.1.1,0,0,0-.1-.1Zm-1.2-.6h0Zm-.7-.8h0ZM19,6.3Zm-.1-.1h0ZM17.2,4.4c-.1,0,0,.2,0,.1h0c-.1-.2-.1-.1-.1-.3A.1.1,0,0,0,17.2,4.4Zm4.2,4.4a.1.1,0,0,1-.1-.1A.1.1,0,0,1,21.4,8.8ZM18.9,5.9h0Zm1.4.9c0,.1-.1.1-.1,0ZM19.2,6h0Zm2.5,3.5v0ZM17.3,4.9Zm1.2.4h-.1C18.5,5.4,18.4,5.4,18.5,5.3ZM20.9,7ZM18.4,5.1h0Zm1.5.8h0Zm-.5-.3h0Zm.5.2h0Zm1.3,1.1h0ZM18.9,5.1h0ZM18.5,5h0Zm.4.1h-.2C18.8,5.1,18.9,5.2,18.9,5.1Zm1.3.7h0Zm-.3-.1h0Zm.4.3h.2a.1.1,0,0,1,.1.1c0-.1,0-.1-.1-.1h-.2Zm1.8,2.5h0ZM22,10.7h0C21.9,10.8,22,10.7,22,10.7ZM19.1,5.2h-.2S19.1,5.1,19.1,5.2Zm3,2.9-.2-.2ZM19.9,5.4h-.3s.1.1,0,.1h.3Zm2,2.2v.2c0-.1-.1-.1-.1-.2Zm-1-1.4h0Zm-.7-.7h0Zm1.1,1h0Zm.4.4a.1.1,0,0,1-.1-.1h0A.1.1,0,0,1,21.7,6.9Zm-.3-.3c0,.1.1.1.2.2Zm-1-.9h0Zm1.1,1a.1.1,0,0,0-.1-.1C21.4,6.5,21.5,6.6,21.5,6.7Zm.3.1h-.2c-.1,0,0,0-.1-.1h.2l.2.2h-.1C21.7,6.8,21.8,6.8,21.8,6.8ZM22,7l-.4-.2C21.7,6.7,21.9,6.9,22,7ZM20.5,5.5h0Zm.5.4h0Zm-.1-.1h0a.1.1,0,0,1,.1.1l-.3-.2ZM22,7.2c.2.1.2.2.2.2Zm.1,0H22A.1.1,0,0,1,22.1,7.2Zm-.5-.8Zm-.2-.3c0,.1,0,.1-.1,0Zm.7,1h0Zm-.4-.8h0Zm.5.5-.4-.3C22,6.5,22.3,6.8,22.2,6.8Zm-.1-.1H22C22,6.7,22,6.6,22.1,6.7Zm.6.6a.1.1,0,0,0,.1.1h-.1Zm.6,1.9a.5.5,0,0,1-.1-.3Zm-.3,2h0Zm.3-2.1V8.9h.1Zm.1,0c0,.2-.1.1-.1,0Zm-.1-.9V8.1Zm.1.9h0Zm0,.4v0Zm0,.3h0V9.7Zm-.4,2v.6c-.1,0,0-.1,0-.2s0,.1-.1.1v-.4h0Zm.5-2.3v.3h0V9.5Zm0-.8c-.1,0-.1-.1-.1-.2S23.4,8.7,23.5,8.7Zm-.1,1.6h0Zm.2.6h0c-.1-.1,0-.2,0-.3h0a.6.6,0,0,0-.1-.4V10h-.1l.2.3v.5h0a.4.4,0,0,0,.1.3c0-.1-.1-.1,0-.1v.1Zm0,.1c.1,0,.1.1.1.2h0A.4.4,0,0,1,23.6,11Zm-.2-2.3.2.4A.8.8,0,0,1,23.4,8.7Zm.1.9h0Zm.1.4s-.1-.2,0-.2Zm0-.8h0Zm-.7,3.4h0Zm0,.2h0Zm.7-2.2v-.2C23.6,10.5,23.7,10.5,23.6,10.6Zm.2-.4v0Zm-.2,1.2v0Zm0,.4h-.1C23.5,11.8,23.5,11.8,23.6,11.8Zm.1-.2h-.1a.4.4,0,0,1,.1-.3C23.7,11.5,23.6,11.5,23.7,11.6Zm-3.4,4.3Zm2.4-2.2c0,.1-.1.1-.1.2v-.2S22.6,13.8,22.7,13.7Zm.8-1.4h0v.1c0-.1-.1,0-.1,0h0v-.2Zm.5-1.5a.4.4,0,0,0,.1.3c-.1.1-.1-.1-.1-.1v-.2Zm-.4,1.5v.2h.1Zm.3-.7v0Zm.1-.1v-.2h0v-.3C24,11.2,24.1,11.3,24,11.5Zm-.5,1.3h-.1C23.4,12.8,23.4,12.7,23.5,12.8Zm.2-.4v-.3C23.8,12.1,23.8,12.4,23.7,12.4Zm.3-.7h0v.1Zm-.7,1.9v-.5h-.1c.1,0,.1-.1.1-.2s0,.2.1.2S23.4,13.4,23.3,13.6Zm-3.8,3.3h0Zm2.7-2h-.1v-.2C22.1,14.9,22.1,14.9,22.2,14.9ZM24,12.1v-.4h0Zm-1,1.7c.1,0,.1-.2.1-.2S23.1,13.8,23,13.8Zm.2-.1a.4.4,0,0,0-.1.3v-.4Zm.7-1.4h0v-.2C24,12.2,24,12.2,23.9,12.3Zm0,.4v0Zm-.7,1.1V14h0Zm.8-1.3a.4.4,0,0,1-.1.3v-.2H24Zm-.2.5h0c0-.1,0-.2.1-.2h0C23.8,12.8,23.8,12.8,23.8,13ZM23,14.4v-.3A.4.4,0,0,1,23,14.4Zm-.3.5h0Zm0,.1a1.4,1.4,0,0,0,.2-.4A.8.8,0,0,1,22.7,15Zm-.4.5h0Zm.1-.1-.2.3a.5.5,0,0,0,.2-.4C22.4,15.4,22.5,15.4,22.4,15.4Zm0,.1v.2c.1-.1,0,0,0-.1Zm-.3.6c0-.1,0-.2.1-.2A.3.3,0,0,0,22.1,16.1Zm1-1v0Zm0,0v0Zm-.2.2h0v-.2C22.9,15.3,23,15.2,22.9,15.3Zm.1.1h-.1a.4.4,0,0,0,.1-.3C23,15.3,23.1,15.2,23,15.4Zm-1.4,1.2c0-.1.1-.2.1-.1A.1.1,0,0,0,21.6,16.6Zm1.2-1h0Zm-1,.9-.2.2a.3.3,0,0,1-.1.2h.2C21.7,16.5,21.7,16.6,21.8,16.5Zm-.5.5c0,.1.1-.1.1-.2s.1.1,0,.1S21.4,16.9,21.3,17Zm-.1.2h0c.1,0,.1,0,.1-.1S21.2,17.1,21.2,17.2Zm-.3.3c0-.1,0-.1.1-.2S20.9,17.4,20.9,17.5Zm-4.4,3.3v0Zm3.8-2.5c-.1.1,0-.1.1-.1A.1.1,0,0,0,20.3,18.3Zm-3.9,2.8-.3.2h.3Zm-.4.4a.1.1,0,0,1,.1-.1S16,21.6,16,21.5Zm4.6-2.9h.1C20.7,18.6,20.7,18.6,20.6,18.6Zm-.2.3c0,.1,0,.1-.1.1s0,.1,0,.2.1-.2,0-.1h0c-.1.1-.1.2-.1.1l.2-.3.2-.2S20.5,18.9,20.4,18.9Zm0,.2c0-.1.1-.2.1-.3A.4.4,0,0,1,20.4,19.1Zm-5.1,3.5c-.1,0-.2.2-.2.2A.2.2,0,0,1,15.3,22.6Zm4.9-3.3h-.1c.1-.1.1-.1.1-.2S20.2,19.3,20.2,19.3Zm-.3.3h-.1C19.8,19.6,19.9,19.5,19.9,19.6Zm.2-.1a.1.1,0,0,1-.1.1Zm-5.4,3.8Zm4.8-3.2h-.1c0,.1-.1.1,0,0l.2-.2Zm-5.1,3.5h.1C14.5,23.6,14.4,23.7,14.4,23.6Zm4.8-3.1a.1.1,0,0,0-.1.1.1.1,0,0,1,.1-.1ZM14,24.3h-.1s-.1,0,0-.1h0a.1.1,0,0,1,.1-.1C13.9,24.3,14,24.2,14,24.3ZM18.8,21v.2h0s.1-.1,0-.1Zm-5.1,3.6h0C13.8,24.5,13.8,24.5,13.7,24.6Zm4.9-3.3h-.1C18.5,21.3,18.6,21.2,18.6,21.3Zm-5,3.4h0Zm4.8-3.2c.1-.1.2-.2.2-.3s0,.2-.1.2h0A.1.1,0,0,1,18.4,21.5Zm-.1.1h0c0-.1.1-.2.2-.3h0Zm-5,3.5h.1a.1.1,0,0,1,.1-.1c-.1.1,0-.1,0,0S13.4,25,13.3,25.1Zm5-3.4c0,.1,0,0-.1.1h.1Zm-.2.2h0Zm-.3.3c0,.1,0,.1-.1.2h.1Zm-.3.4c.1-.1.1-.2.2-.2Zm0-.1h0Zm-.2.4.2-.3Zm0,0v-.2A.3.3,0,0,1,17.3,22.9Zm-.4.4h0a.3.3,0,0,1,.1-.2Zm-.6.9h0ZM12,26.3c0-.1,0-.1.1-.1v.2h0Zm.3-.5h-.1S12.3,25.7,12.3,25.8ZM17,19.9c0,.2.1-.1,0,.1h0A.1.1,0,0,1,17,19.9Zm0,.3h-.1s.1,0,0,.1h0v-.2Zm-3.8,3.9v0Zm3.9-4.4h.1a.1.1,0,0,0-.1.1Zm-3.7,4.1h-.1S13.3,23.7,13.4,23.8Zm3.7-4.2h0Zm-1.5-.9a.3.3,0,0,1-.1.2Zm.1-.3a.4.4,0,0,1-.1.3C15.6,18.6,15.7,18.5,15.7,18.4Zm0-.1h0Zm2-5.6h0c.1.1.1.2.1.4h0A4.3,4.3,0,0,1,17.7,12.7Zm-.1-.5h0c0,.1.1.3.1.4Zm-.9,2.9v0Zm.7-3.4a.5.5,0,0,0,.2.4h0A.5.5,0,0,1,17.4,11.7Zm-.8,2.2h.1V14C16.7,13.9,16.7,13.8,16.6,13.9Zm.2-3.5Zm-.1.8h0Zm-.2.8h0S16.4,12,16.5,12Zm-.2-.4c.1,0,.1.1.1.2S16.3,11.7,16.3,11.6Zm-.1-.3h0Zm-.1,0ZM14.3,9.1h0Z" fill="#d7c53b" fill-rule="evenodd"/><path d="M23.7,9.1h0a1.2,1.2,0,0,1,.2.8,1.3,1.3,0,0,0-.1-.6h0C23.8,9.2,23.8,9.2,23.7,9.1Z" fill="#d7c53b" fill-rule="evenodd"/><path d="M13.3,4.9h0Z" fill="#d7c53b" fill-rule="evenodd"/><path d="M15.1,4.6h.1c-.1,0-.1,0-.1.1S15.2,4.6,15.1,4.6Z" fill="#d7c53b" fill-rule="evenodd"/><path d="M13,3.9h0Z" fill="#d7c53b" fill-rule="evenodd"/><path d="M14.3,3.8c-.1.1-.1.1,0,.1h.1A.1.1,0,0,0,14.3,3.8Z" fill="#d7c53b" fill-rule="evenodd"/><path d="M14.1,3.7h0Z" fill="#d7c53b" fill-rule="evenodd"/><path d="M15.2,5.2h.1a.9.9,0,0,0,.1.5h0a3.5,3.5,0,0,1-.1-.6h-.1Z" fill="#d7c53b" fill-rule="evenodd"/><path d="M13.9,3.6h.4s-.3.1-.2,0Z" fill="#d7c53b" fill-rule="evenodd"/><path d="M15.7,6.7l.6.3Z" fill="#d7c53b" fill-rule="evenodd"/><path d="M11.3,5.1v.2c.1-.2,0-.2.1-.2Z" fill="#d7c53b" fill-rule="evenodd"/><path d="M14.4,3.6h.2C14.5,3.5,14.5,3.6,14.4,3.6Z" fill="#d7c53b" fill-rule="evenodd"/><path d="M15.7,6.2h0c0,.1.1.1.1.2S15.7,6.3,15.7,6.2Z" fill="#d7c53b" fill-rule="evenodd"/><path d="M13.1,3.2h0a.1.1,0,0,0,.1-.1l-.3.2Z" fill="#d7c53b" fill-rule="evenodd"/><path d="M15.6,3.7h.2c.1,0,.1,0,.1.1Z" fill="#d7c53b" fill-rule="evenodd"/><path d="M18.2,7c-.1-.1.1,0,0-.1h-.1s-.1,0,0,.1h.1Z" fill="#d7c53b" fill-rule="evenodd"/><path d="M18.5,7h0Z" fill="#d7c53b" fill-rule="evenodd"/><path d="M18.8,7.1h0Z" fill="#d7c53b" fill-rule="evenodd"/><path d="M16,2.8h.3Z" fill="#d7c53b" fill-rule="evenodd"/><path d="M17.1,4.8c0,.1,0,.1.1.1h0A.1.1,0,0,1,17.1,4.8Z" fill="#d7c53b" fill-rule="evenodd"/><path d="M17.2,5h0Z" fill="#d7c53b" fill-rule="evenodd"/><path d="M20.4,6.6h0Z" fill="#d7c53b" fill-rule="evenodd"/><path d="M19.2,5.3h0Z" fill="#d7c53b" fill-rule="evenodd"/><path d="M19.8,5.6h0Z" fill="#d7c53b" fill-rule="evenodd"/><path d="M19.6,5.5h.2c-.1,0-.1,0,0,.1s0-.1,0-.1Z" fill="#d7c53b" fill-rule="evenodd"/><path d="M20.7,5.9a.1.1,0,0,1-.1-.1c-.1,0,0,.1-.1,0S20.6,5.8,20.7,5.9Z" fill="#d7c53b" fill-rule="evenodd"/><path d="M21.7,6.2h0C21.8,6.3,21.7,6.2,21.7,6.2Z" fill="#d7c53b" fill-rule="evenodd"/><path d="M22.6,7.6Z" fill="#d7c53b" fill-rule="evenodd"/><path d="M22.9,9.9h0v0Z" fill="#d7c53b" fill-rule="evenodd"/><path d="M23.4,8.1c0-.1-.1-.2-.1-.3a.4.4,0,0,0,.1.3l.2.3C23.5,8.4,23.4,8.1,23.4,8.1Z" fill="#d7c53b" fill-rule="evenodd"/><path d="M23.5,8.4v.3c.1,0,.1.4.2.5h0V8.5h0Z" fill="#d7c53b" fill-rule="evenodd"/><path d="M23.5,8.1a6.4,6.4,0,0,1,.2.7C23.7,8.5,23.5,8.3,23.5,8.1Z" fill="#d7c53b" fill-rule="evenodd"/><path d="M24,9.8v0Z" fill="#d7c53b" fill-rule="evenodd"/><path d="M24.1,11v.2h0Z" fill="#d7c53b" fill-rule="evenodd"/><path d="M24.1,10.9s.1.2,0,.3h.1Z" fill="#d7c53b" fill-rule="evenodd"/><path d="M24.1,11.7c0,.1-.1.3-.1.4S24.1,11.8,24.1,11.7Z" fill="#d7c53b" fill-rule="evenodd"/><path d="M23.6,13.9v.3h0Z" fill="#d7c53b" fill-rule="evenodd"/><path d="M23.3,15.1h0v.2C23.2,15.3,23.2,15.1,23.3,15.1Z" fill="#d7c53b" fill-rule="evenodd"/><path d="M22.7,16.2l-.2.2h0C22.6,16.4,22.6,16.3,22.7,16.2Z" fill="#d7c53b" fill-rule="evenodd"/><path d="M21.5,17.8h0v.2c0,.1-.1.1-.2.2h0l.2-.3h.1Z" fill="#d7c53b" fill-rule="evenodd"/><path d="M19.6,20.2l-.2.2h0Z" fill="#d7c53b" fill-rule="evenodd"/><path d="M18.3,21.8c0-.1-.1.1-.1.1Z" fill="#d7c53b" fill-rule="evenodd"/><path d="M17.1,23.2Z" fill="#d7c53b" fill-rule="evenodd"/><path d="M11,28.5a.7.7,0,0,1,.1-.6v-.2h0A.9.9,0,0,0,11,28.5Z" fill="#d7c53b" fill-rule="evenodd"/><path d="M15.8,23l.2-.3c0-.1.1-.2.1-.3h0Z" fill="#d7c53b" fill-rule="evenodd"/><path d="M15.7,17.9c.1-.1,0,0,0-.1h0Z" fill="#d7c53b" fill-rule="evenodd"/><path d="M16.1,17.1c0-.1-.1,0,0-.1h0Z" fill="#d7c53b" fill-rule="evenodd"/><path d="M25.3,16.8l-.4-.6c-.4-1-1.1-3.2,1.8-2.6s1.8,6-3.9,8.8C22.8,22.4,26.3,18,25.3,16.8Z" fill="#f4da40"/><path d="M22.5,23.3a14.7,14.7,0,0,0,3.9-2.1,10.8,10.8,0,0,0,3.2-3.5,4.2,4.2,0,0,0,.3-3,2.2,2.2,0,0,0-.5-.8l-.7-.6L28,13l-.6-.2h-.9a1.4,1.4,0,0,0-.9.1,2,2,0,0,0-1.3,1.4,3.8,3.8,0,0,0-.1,1V16a5.6,5.6,0,0,0,.4,1.2l2.2-1a1.9,1.9,0,0,0-.2-.7v-.2h.1a.8.8,0,0,1,.6.2h.2a1.9,1.9,0,0,1-.3,1,9.6,9.6,0,0,1-2.4,2.6A17.4,17.4,0,0,1,21.6,21Z" fill="none"/><path d="M25.9,16.4h0Z" fill="#d7c53b" fill-rule="evenodd"/><path d="M25.8,16.4h0Z" fill="#d7c53b" fill-rule="evenodd"/><path d="M25.8,16.3c.1-.1,0-.1,0-.1h0Z" fill="#d7c53b" fill-rule="evenodd"/><path d="M26.2,15.7Z" fill="#d7c53b" fill-rule="evenodd"/><path d="M25.8,16.3Z" fill="#d7c53b" fill-rule="evenodd"/><path d="M26.2,15.7h0Z" fill="#d7c53b" fill-rule="evenodd"/><path d="M25.8,16Z" fill="#d7c53b" fill-rule="evenodd"/><path d="M26.2,15.5Z" fill="#d7c53b" fill-rule="evenodd"/><path d="M25.8,15.9Z" fill="#d7c53b" fill-rule="evenodd"/><path d="M25.7,15.9Z" fill="#d7c53b" fill-rule="evenodd"/><path d="M26.3,15.2Z" fill="#d7c53b" fill-rule="evenodd"/><path d="M25.7,15.8h0S25.6,15.7,25.7,15.8Z" fill="#d7c53b" fill-rule="evenodd"/><path d="M25.9,15.2Z" fill="#d7c53b" fill-rule="evenodd"/><path d="M25.6,15.6h0Z" fill="#d7c53b" fill-rule="evenodd"/><path d="M25.6,15.4Z" fill="#d7c53b" fill-rule="evenodd"/><path d="M26.2,15.1h0C26.1,15,26.2,15.1,26.2,15.1Z" fill="#d7c53b" fill-rule="evenodd"/><path d="M26,15Z" fill="#d7c53b" fill-rule="evenodd"/><path d="M26.4,15Z" fill="#d7c53b" fill-rule="evenodd"/><path d="M25.3,15.6Z" fill="#d7c53b" fill-rule="evenodd"/><path d="M25.4,15.4Z" fill="#d7c53b" fill-rule="evenodd"/><path d="M25.3,15.5h0v-.2h0Z" fill="#d7c53b" fill-rule="evenodd"/><path d="M26.1,14.9Z" fill="#d7c53b" fill-rule="evenodd"/><path d="M24.9,15.9Z" fill="#d7c53b" fill-rule="evenodd"/><path d="M24.9,15.9Z" fill="#d7c53b" fill-rule="evenodd"/><path d="M24.9,15.8Z" fill="#d7c53b" fill-rule="evenodd"/><path d="M26.1,14.9h0Z" fill="#d7c53b" fill-rule="evenodd"/><path d="M24.6,16.1h0Z" fill="#d7c53b" fill-rule="evenodd"/><path d="M26.2,14.8Z" fill="#d7c53b" fill-rule="evenodd"/><path d="M25,15.5h0Z" fill="#d7c53b" fill-rule="evenodd"/><path d="M25.3,15.1h0Z" fill="#d7c53b" fill-rule="evenodd"/><path d="M24.7,15.8h0Z" fill="#d7c53b" fill-rule="evenodd"/><path d="M26.2,14.8Z" fill="#d7c53b" fill-rule="evenodd"/><path d="M25,15.2Z" fill="#d7c53b" fill-rule="evenodd"/><path d="M26.2,14.8h.1c-.1-.1,0,0-.1,0Z" fill="#d7c53b" fill-rule="evenodd"/><path d="M26.3,14.8Z" fill="#d7c53b" fill-rule="evenodd"/><path d="M24.8,15.2h0Z" fill="#d7c53b" fill-rule="evenodd"/><path d="M26.3,14.7h0Z" fill="#d7c53b" fill-rule="evenodd"/><path d="M25.5,14.5c.1-.1.1-.1,0-.1Z" fill="#d7c53b" fill-rule="evenodd"/><path d="M25.1,14.6Z" fill="#d7c53b" fill-rule="evenodd"/><path d="M25.4,14.1Z" fill="#d7c53b" fill-rule="evenodd"/><path d="M24.7,14.2h0Z" fill="#d7c53b" fill-rule="evenodd"/><path d="M24.3,14.5h0Z" fill="#d7c53b" fill-rule="evenodd"/><path d="M25.9,13.9h0Z" fill="#d7c53b" fill-rule="evenodd"/><path d="M24.7,13.9h0Z" fill="#d7c53b" fill-rule="evenodd"/><path d="M26,13.8Z" fill="#d7c53b" fill-rule="evenodd"/><path d="M24.9,13.5c.1,0,.2,0,.1-.1Z" fill="#d7c53b" fill-rule="evenodd"/><path d="M24.8,13.4Z" fill="#d7c53b" fill-rule="evenodd"/><path d="M25.3,13.3h0Z" fill="#d7c53b" fill-rule="evenodd"/><path d="M25.6,13.2h0Z" fill="#d7c53b" fill-rule="evenodd"/><path d="M25.7,13.2h0Z" fill="#d7c53b" fill-rule="evenodd"/><path d="M26.8,13.8Z" fill="#d7c53b" fill-rule="evenodd"/><path d="M26.8,13.8h0Z" fill="#d7c53b" fill-rule="evenodd"/><path d="M26.9,13.9h0Z" fill="#d7c53b" fill-rule="evenodd"/><path d="M26.2,13.1Z" fill="#d7c53b" fill-rule="evenodd"/><path d="M26.1,13.1h0Z" fill="#d7c53b" fill-rule="evenodd"/><path d="M26.2,13.1h0Z" fill="#d7c53b" fill-rule="evenodd"/><path d="M26.4,13.2Z" fill="#d7c53b" fill-rule="evenodd"/><path d="M27.1,13.9Z" fill="#d7c53b" fill-rule="evenodd"/><path d="M27.3,14h0Z" fill="#d7c53b" fill-rule="evenodd"/><path d="M26.8,13.2Z" fill="#d7c53b" fill-rule="evenodd"/><path d="M26.8,13.2h0Z" fill="#d7c53b" fill-rule="evenodd"/><path d="M27.5,14.1h0Z" fill="#d7c53b" fill-rule="evenodd"/><path d="M27.2,13.4h0Z" fill="#d7c53b" fill-rule="evenodd"/><path d="M28.2,13.3h0Z" fill="#d7c53b" fill-rule="evenodd"/><path d="M28.8,13.7h.1c0,.1-.1,0-.1,0a.1.1,0,0,0,.1.1h0a.1.1,0,0,0,.1.1.1.1,0,0,1-.1-.1h-.1Z" fill="#d7c53b" fill-rule="evenodd"/><path d="M29,13.9h0Z" fill="#d7c53b" fill-rule="evenodd"/><path d="M29.1,14h0Z" fill="#d7c53b" fill-rule="evenodd"/><path d="M29.2,14.1Z" fill="#d7c53b" fill-rule="evenodd"/><path d="M29.3,14.2Z" fill="#d7c53b" fill-rule="evenodd"/><path d="M29.3,14.2Z" fill="#d7c53b" fill-rule="evenodd"/><path d="M29.4,14.2c-.1,0-.1.1,0,.1Z" fill="#d7c53b" fill-rule="evenodd"/><path d="M29.5,14.7h0Z" fill="#d7c53b" fill-rule="evenodd"/><path d="M29.6,14.9h0Z" fill="#d7c53b" fill-rule="evenodd"/><path d="M29.7,15h0Z" fill="#d7c53b" fill-rule="evenodd"/><path d="M29.7,15.1h0Z" fill="#d7c53b" fill-rule="evenodd"/><path d="M29.7,15.3v.2h0Z" fill="#d7c53b" fill-rule="evenodd"/><path d="M29.8,15.3h0Z" fill="#d7c53b" fill-rule="evenodd"/><path d="M29.8,15.5Z" fill="#d7c53b" fill-rule="evenodd"/><path d="M29.8,15.7Z" fill="#d7c53b" fill-rule="evenodd"/><path d="M29,17.7h0Z" fill="#d7c53b" fill-rule="evenodd"/><path d="M28.8,18.2h0Z" fill="#d7c53b" fill-rule="evenodd"/><path d="M28.4,18.7Z" fill="#d7c53b" fill-rule="evenodd"/><path d="M28.3,18.9c-.1,0-.1,0-.1.1A.1.1,0,0,1,28.3,18.9Z" fill="#d7c53b" fill-rule="evenodd"/><path d="M27.9,19.3Z" fill="#d7c53b" fill-rule="evenodd"/><path d="M27.5,19.6h0Z" fill="#d7c53b" fill-rule="evenodd"/><path d="M25.1,19.4a.1.1,0,0,0-.1.1Z" fill="#d7c53b" fill-rule="evenodd"/><path d="M25,19.5Z" fill="#d7c53b" fill-rule="evenodd"/><path d="M26.8,20.4Z" fill="#d7c53b" fill-rule="evenodd"/><path d="M26.6,20.4Z" fill="#d7c53b" fill-rule="evenodd"/><path d="M26.7,20.5h0Z" fill="#d7c53b" fill-rule="evenodd"/><path d="M25.7,21.3Z" fill="#d7c53b" fill-rule="evenodd"/><path d="M25.7,21.4Z" fill="#d7c53b" fill-rule="evenodd"/><path d="M25.6,21.4c-.1,0-.1,0-.1.1h0A.1.1,0,0,1,25.6,21.4Z" fill="#d7c53b" fill-rule="evenodd"/><path d="M25.5,21.5h0Z" fill="#d7c53b" fill-rule="evenodd"/><path d="M25.4,21.6h0Z" fill="#d7c53b" fill-rule="evenodd"/><path d="M25.3,21.6Z" fill="#d7c53b" fill-rule="evenodd"/><path d="M25.4,21.8Z" fill="#d7c53b" fill-rule="evenodd"/><path d="M25.1,21.8Z" fill="#d7c53b" fill-rule="evenodd"/><path d="M25.4,21.9h0Z" fill="#d7c53b" fill-rule="evenodd"/><path d="M25,21.9h0Z" fill="#d7c53b" fill-rule="evenodd"/><path d="M25,21.9a.1.1,0,0,0-.1.1Z" fill="#d7c53b" fill-rule="evenodd"/><path d="M24.8,22h.1C24.9,21.9,24.8,22,24.8,22Z" fill="#d7c53b" fill-rule="evenodd"/><path d="M24.9,22a.1.1,0,0,0-.1.1A.1.1,0,0,0,24.9,22Z" fill="#d7c53b" fill-rule="evenodd"/><path d="M24.9,22.1h0Z" fill="#d7c53b" fill-rule="evenodd"/><path d="M24.8,22.1Z" fill="#d7c53b" fill-rule="evenodd"/><path d="M24.7,22.1h0c-.1,0,0-.1,0-.1h-.1v.2h.1Z" fill="#d7c53b" fill-rule="evenodd"/><path d="M24.6,22.2h0S24.5,22.2,24.6,22.2Z" fill="#d7c53b" fill-rule="evenodd"/><path d="M24.5,22.2s-.1.1,0,.1Z" fill="#d7c53b" fill-rule="evenodd"/><path d="M24.5,22.3h0Z" fill="#d7c53b" fill-rule="evenodd"/><path d="M25.9,16.6h0c-.1,0-.1,0-.1-.1h.1Z" fill="#d7c53b" fill-rule="evenodd"/><path d="M25.9,16.2h0Z" fill="#d7c53b" fill-rule="evenodd"/><path d="M25.9,16.1h-.1v-.2h.1c0,.1,0,.1-.1.1h.1c-.1,0,0-.1,0-.1h0s.1-.1,0-.1H26c-.1,0,0,0,0-.1h.1c0-.1.1,0,.1-.1h.1c0-.1.1,0,0-.1h.3l.8.3h.3l.2.2a2.2,2.2,0,0,1-.4,1.6h0c0-.1.1-.2.1-.3h0a.1.1,0,0,0,.1-.1h.1v-.2h0a.4.4,0,0,1,.1-.3h0s-.1-.1,0-.1h-.1s.1-.1.1,0,0-.1-.1-.1h.1c-.1,0,0,0,0-.1h-.1v-.2h-.9c-.1,0-.1,0-.1-.1h0a.1.1,0,0,0-.1-.1h-.1s.1,0,0,.1.1-.1.1,0h-.4c.1.1,0,0,0,.1h0s-.1.1,0,.1h0a.1.1,0,0,0-.1-.1.1.1,0,0,0,.1.1h-.1c.1,0,.1,0,0,.1h1.1l.2.2h.2a.5.5,0,0,1-.1.3h0v.2h0A6.2,6.2,0,0,1,26.4,18h.1a.2.2,0,0,0-.2.2h-.1a.1.1,0,0,0-.1.1l-.4.3h-.1a.1.1,0,0,1-.1.1h-.1c0,.1-.1.1-.1.2h0c-.1,0,0,.1,0,.1h-.5s-.1.1,0,.1h-.1c0,.1,0,.1-.1.1s-.1.1-.1.2h-.1l-.3.2c.1.1,0,.1,0,.2H24a.2.2,0,0,1-.2.2h-.3a.1.1,0,0,1-.1.1c0,.1,0,.1-.1.2h-.1c0,.1-.1.1-.1.2h-.2c0,.1-.1.1-.1.2s-.1.1-.2.2h.2l.4-.2h0c.1,0,.1,0,.1-.1h-.1a.1.1,0,0,1-.1.1H23l-.3.2h.4c.1,0,0,0,0,.1h-.2a.1.1,0,0,0-.1.1h-.3a.1.1,0,0,1-.1.1c0-.1.1-.1,0-.1a.3.3,0,0,1-.1.2c.1,0,.1,0,.1.1s.1-.1.1,0a.1.1,0,0,0,.1-.1h0s.1-.1,0-.1a.1.1,0,0,0,.2,0c.1,0,.1-.1.1-.2h0l.2-.2h.2s-.1,0,0-.1h.3c.1-.1,0-.1,0-.1H24c.1.1.1,0,.1,0s0,0,0,.1h.4c0-.1.1-.1.2-.2h0c.1,0,0-.1.1-.1H25c.1,0,.1,0,.1.1h0c.1,0,.1,0,0,.1h.1v-.2h0a.1.1,0,0,1,.1-.1h.1l.2-.2s-.1.1,0,.1h.1c.1-.1.2-.1.2-.2h.2a.1.1,0,0,1,.1-.1h.1a.1.1,0,0,1,.1-.1H27c-.1,0,0,0,0-.1h0c.1,0,0,.1.1.1h0a.1.1,0,0,0,.1-.1h.1c-.1,0,0,0,0-.1h.2c.1-.1.1,0,.1,0h.3c-.1,0-.1,0-.1-.1s.1,0,.1,0h.5c0,.1-.1.1,0,.1h0a.1.1,0,0,1,.1-.1h0l.2-.2h0a.1.1,0,0,1,.1-.1h0a.1.1,0,0,0,.1-.1h0v-.2h.1a.1.1,0,0,0,.1-.1h0c.1-.1,0-.1.1-.2h0c0-.1.1-.1,0-.1h.2c-.1-.1,0-.1,0-.1h0v.2h.1c-.1,0-.1-.1,0-.1h0c-.1,0,0-.1,0-.1h-.1a.1.1,0,0,1,.1.1h0v.2h0a.1.1,0,0,1,.1-.1c-.1,0,0-.1-.1,0h0c.1,0,0,.1.1,0s-.1,0,0,.1h0v-.2h0c0-.1,0-.1.1-.1h-.1c.1,0,.1-.1,0-.1a.1.1,0,0,0,.1-.1h-.1c-.1,0,0-.2,0-.3h0c-.1,0,0,.1-.1.1h.2a.1.1,0,0,1-.1-.1h0v-.2h-.1s.1,0,0,.1h.1v-.2h0s-.1-.1,0-.1h-.1v-.2h-.3s-.1-.1,0-.1h-.6c-.1,0,0,0,0,.1H28a.1.1,0,0,0,.1.1h-.6l-.3-.2H25.4l-.3.2h.2c-.1.1-.1.1-.1.2h0a.1.1,0,0,1-.1.1h0a.1.1,0,0,1-.1.1h-.4c0,.1,0,0,.1,0h-.1c-.1,0,0-.1,0-.1h-.1a.4.4,0,0,1-.1.3h-.1v.2h0a.1.1,0,0,1,.1-.1h0s.1,0,0-.1.1-.1.1-.2h.1c0-.1.1-.1.1-.2H25c0-.1.1-.2.2-.1h.6c.1.1,0,.1,0,.1h.4c.1.1,0,.1,0,.1h.4c-.1.1,0,0,.1.1h.2c.1.1,0,.1,0,.1h.2c-.1,0,0,0,.1.1s-.1,0-.1-.1,0,.1.1.1h-.3c0-.1,0,0-.1-.1h-.1c-.1-.1,0-.1-.1-.1h-.1a.1.1,0,0,1-.1.1c0-.1.1,0,.1-.1h-.1c-.1,0,0,.1-.1.1s.1-.1,0-.1h-.5a.1.1,0,0,0-.1.1c-.1-.1-.1,0-.2,0h-.8c0,.1,0,.2-.1.2h0c0,.1,0,.2-.1.2s0,.1.1.1h-.1c0,.1,0,0-.1,0a.1.1,0,0,1,.1.1h0v.2h0c0-.1,0-.2.1-.2v.2h0s.1,0,0,.1h0s.1-.1,0-.1h0c0,.1.1.1,0,.1h0c.1.1.1.1,0,.1h.1c.1,0,0,.1,0,.1h0a.1.1,0,0,0,.1-.1h0c.1,0,0,0,0,.1h.1c-.1-.1,0-.2-.1-.3h.1c0-.1-.1,0,0-.1h-.1c.1.1.1,0,.1-.1v.2h0c0,.1.1.1,0,.2h.1v-.2H25c-.1,0,0-.1,0-.1h0s-.1.1,0,.1v-.6c0-.1,0-.1.1-.1h0s-.1-.1,0-.1h.2V14h.1v-.2h.2a.1.1,0,0,1,.1-.1h0a.1.1,0,0,1,.1-.1h.4c0,.1,0,0,.1,0h.2c0,.1.1,0,.1.1h0a.1.1,0,0,0,.1-.1h0c.1.1,0,.1.1.1h.9a.1.1,0,0,0,.1.1h-.1c0-.1,0-.1-.1-.1h.1c-.1.1-.1,0-.2,0H26.4s.1-.1,0-.1h-.1c0,.1.1.1,0,.1h-.9c-.1,0-.1.2-.1.2h0v-.2h0a.1.1,0,0,0,.1.1h-.1s.1-.1,0-.1h.1v-.2s.1,0,0-.1,0-.1.1-.1h0c.1.1,0,.1,0,.1h0s.1,0,0,.1h0c0,.1.1.1,0,.2h.1c.1,0,0,.1.1.1h.1Zm.2-1.4h0Zm.7.1ZM23.3,22Zm.3.5c-.1,0-.1,0-.1.1h0c-.1,0-.1,0-.1-.1s.1,0,.1,0h.1Zm2.7-1.8h0Zm1.2-1.2h.1S27.6,19.6,27.5,19.5Zm.9-.9Zm-3.6-5h0Zm.7-.2h0Zm-.9,2.3Zm1.8-1.8h0Zm-.8.4h-.1S25.5,14.2,25.6,14.3Zm-.3.4s.1,0,0,.1Zm.5,1.2Zm0-.6Zm.2-.4Zm0-.1Zm-1.1.7h0C25,15.4,25,15.5,24.9,15.5Zm1.5-.6Zm-.7-.1Zm-.9.7s.1.1,0,.1Zm0,0h.1c0,.1-.1.1,0,.1h-.1Zm.1-.1Zm.5-.7Zm-.5.5Zm-.3.4Zm.9-1s-.1-.1,0-.1h0Zm.7.1Zm-.9,0h0Zm-.7.7h0C24.5,15.4,24.6,15.4,24.6,15.4Zm.3-.5h0Zm-.2.3h0Zm.9-.8Zm-.7.5h0Zm1.7,0Zm-.3-.3Zm-1.6.3h0Zm.1-.2h.1a.1.1,0,0,1-.1.1Zm-.1.2h0Zm.2-.3Zm0-.1h0Zm.2-.1h0Zm-.4.4h0Zm1-.6h-.1A.1.1,0,0,0,25.7,14.2Zm-.9.4h0Zm1.7,0h0Zm-1.9.2h0Zm.3-.3Zm-.2.2h0Zm1-.5Zm.1,0h0Zm-1.1.3h0Zm1.9.3Zm-1.9-.3Zm.6-.4Zm-.5.3h0Zm.1-.1Zm-.2.1Zm1.2-.3Zm-.9,0h0Zm1.7.7h0ZM25.2,14h0Zm.8.1Zm-1.3,0h0a.1.1,0,0,1-.1-.1h.1ZM25,14c-.1,0,0-.1,0-.1h0c0,.1.1.1,0,.1Zm1.7.8Zm-.6-.8h0Zm-1.5.2Zm.5-.3h0C25,14,25.1,13.9,25.1,13.9Zm1,.1h0Zm-.5-.2h0Zm-.8.2Zm1.3,0Zm0-.1h0Zm-1.7.2Zm2.5.8Zm-1-1.2Zm.6.3h0Zm-.5-.3h0ZM27.1,15h0Zm-2.2-1.5h0Zm.7-.2h0Zm1,.6h0Zm-1.2-.7h0Zm.8.2h0Zm-.3-.2c0,.1,0,.1-.1.1S25.9,13.3,25.9,13.2Zm.2.1h0Zm.6.4h0ZM25.6,13h0Zm-.2.1Zm.2,0h0Zm.6.1Zm-.1,0Zm.2.1h0Zm.8.9Zm.3.9ZM25.6,13Zm1.5,1h0ZM26,13Zm1,.8Zm-.5-.6c0,.1,0,.1.1.1S26.5,13.3,26.5,13.2Zm-.4-.2Zm.6.3h0Zm.2.1h0Zm-.2,0h0Zm-.5-.4Zm.6.3h0Zm0,0h0c0-.1.1,0,.1,0h-.1Zm.1,0h0Zm-.7-.4h0Zm.3.1h0Zm-.1-.1Zm.6.5s.1,0,0,.1Zm0,0h0s-.1,0,0-.1Zm-.3-.3Zm-.1-.2h0Zm.4.4Zm-.2-.4h0Zm.2.1h0Zm-.1,0Zm.3.1Zm.4.4h0Zm.3.7c0,.1,0,.1-.1.1A.1.1,0,0,0,27.9,14.2Zm-.3-.7h0Zm0,0Zm-.1-.3Zm.1.2Zm.1.2Zm.1,0Zm.2.7h0s.1-.1,0-.1h0Zm-.3-.8h0Zm-.1-.3h0Zm.3.6h-.1C27.8,13.7,27.8,13.8,27.9,13.8Zm.2-.1h0c-.1,0,0-.1-.1-.1h.1c0,.1.1.1,0,.1h0s.1,0,0,.1Zm0,0h0Zm-.5-.5h.1C27.6,13.3,27.6,13.3,27.6,13.2Zm.2.3h0Zm.1,0h0Zm-.2-.2Zm.5,1.2h0C28.1,14.4,28.2,14.4,28.2,14.5Zm0,0Zm-.2-.9Zm0-.2h0Zm.2.4Zm.1.1Zm0-.1Zm-.5,1.8Zm.6-1h0Zm0-.6h0Zm-.2-.6h0Zm.2.5h0Zm0-.4h0Zm0-.1Zm.1.6h0Zm0-.2h0C28.5,13.7,28.6,13.8,28.5,13.8Zm-.1-.3Zm.3.7h0Zm-.9,1.5Zm.8-.8h0Zm0-1.3h0Zm.1.8h0Zm0-.1h0Zm-.1-.7Zm.1.1h0Zm.1.6Zm-.1-.7h0Zm.1.2h-.1c.1,0,0,0,0-.1h0A.1.1,0,0,0,28.8,13.8Zm.1.6s-.1,0,0-.1Zm0,.3h0Zm.1-.1h0Zm0,.3h0Zm0-.1h0Zm.1,0h0S29,14.8,29.1,14.8Zm0,.2Zm.2-.5h0Zm0-.1Zm0,.2h0s-.1,0,0-.1Zm.1-.1h0Zm-.3.8h0Zm.3-.7Zm-.2.6h-.1c.1-.1.1,0,.1,0h0Zm0,.2s-.1,0,0-.1h0Zm0,.1h0Zm-.1.1Zm-1.5,1Zm1.6-.7Zm-1.6.7h0Zm0,.1Zm2-.7h0Zm0,.1h0s-.1-.2,0-.1h0Zm.1,0h0Zm-2.2.9a.1.1,0,0,1-.1.1C27.4,17,27.4,17,27.5,17Zm2.2-.7h-.1c.1,0,.1-.1,0-.1S29.7,16.2,29.7,16.3Zm-.1.1h0Zm.1-.1h0Zm-2.3.9Zm2.1-.6Zm-2.2.6Zm2.2-.5c0,.1,0,.1-.1.1h.1Zm-2.3.7Zm2.2-.5h0Zm-2.2.6Zm2.2-.5c-.1.1-.1,0-.1,0h.1Zm-2.3.5Zm2.2-.4c.1,0,.1,0,.1-.1h-.1Zm0,0Zm-2.2.5Zm2.2-.4Zm-.1.1Zm0,.1Zm-.1.1h.1A.1.1,0,0,1,29.1,17.5Zm0,0Zm0,.1c-.1,0,0-.1,0-.1Zm0,0Zm-.1.1h0Zm-.2.3Zm-1.4,1.7a.1.1,0,0,1-.1.1c0-.1,0-.1.1-.1Zm-.2.1h0Zm-2.4,0c0-.1-.1,0-.1,0Zm0-.1Zm2.1.5h0Zm-2.2-.4Zm2.1.5h0Zm-2.1-.5h0Zm.9,1.5h0Zm-.1,0h0Zm0,.1h0Zm-1.9,0Zm-.1.1h0c0-.1,0-.1.1-.1Zm1.2.4Zm-1.3-.3a.1.1,0,0,1,.1-.1h0A.1.1,0,0,1,23.4,21.6Zm1,.6h0c0-.1,0-.1-.1-.1Zm-1.3-.5h0Zm.3.3h0c0,.1,0,.1-.1,0Zm.4.4Zm-.2,0h0Zm-.1.1s.1-.1.1,0Zm.1.1h0c-.1,0,0-.1,0-.1Zm-1,.1h0Z" fill="#d7c53b" fill-rule="evenodd"/><path d="M27.7,13.1Z" fill="#d7c53b" fill-rule="evenodd"/><path d="M26.2,15.6h0Z" fill="#d7c53b" fill-rule="evenodd"/><path d="M26,15h0Z" fill="#d7c53b" fill-rule="evenodd"/><path d="M25.3,15.5Z" fill="#d7c53b" fill-rule="evenodd"/><path d="M25.6,15.2Z" fill="#d7c53b" fill-rule="evenodd"/><path d="M25.5,15.2c-.1.1-.1,0-.1.1h.1s-.1,0,0-.1Z" fill="#d7c53b" fill-rule="evenodd"/><path d="M26.2,14.9Z" fill="#d7c53b" fill-rule="evenodd"/><path d="M25.3,15.3v-.2h0Z" fill="#d7c53b" fill-rule="evenodd"/><path d="M26.4,15Z" fill="#d7c53b" fill-rule="evenodd"/><path d="M24.6,16.2Z" fill="#d7c53b" fill-rule="evenodd"/><path d="M25.3,15.2h0Z" fill="#d7c53b" fill-rule="evenodd"/><path d="M26.2,14.8Z" fill="#d7c53b" fill-rule="evenodd"/><path d="M24.8,15.5h0C24.8,15.5,24.7,15.5,24.8,15.5Z" fill="#d7c53b" fill-rule="evenodd"/><path d="M25.1,14.8h0Z" fill="#d7c53b" fill-rule="evenodd"/><path d="M26.4,14.7Z" fill="#d7c53b" fill-rule="evenodd"/><path d="M26.4,14.8c.1,0,.1-.1.1,0h0A.1.1,0,0,0,26.4,14.8Z" fill="#d7c53b" fill-rule="evenodd"/><path d="M26.5,14.7Z" fill="#d7c53b" fill-rule="evenodd"/><path d="M24.2,14.7Z" fill="#d7c53b" fill-rule="evenodd"/><path d="M24.6,13.9h0Z" fill="#d7c53b" fill-rule="evenodd"/><path d="M24.9,13.6h0Z" fill="#d7c53b" fill-rule="evenodd"/><path d="M26.5,13.7h0Z" fill="#d7c53b" fill-rule="evenodd"/><path d="M25.7,13.1h0Z" fill="#d7c53b" fill-rule="evenodd"/><path d="M26,13.2h0Z" fill="#d7c53b" fill-rule="evenodd"/><path d="M25.9,13.1h0Z" fill="#d7c53b" fill-rule="evenodd"/><path d="M26.4,13.1h0Z" fill="#d7c53b" fill-rule="evenodd"/><path d="M26.7,12.9Z" fill="#d7c53b" fill-rule="evenodd"/><path d="M27.2,13.3Z" fill="#d7c53b" fill-rule="evenodd"/><path d="M27.6,14.1Z" fill="#d7c53b" fill-rule="evenodd"/><path d="M27.5,13h0Z" fill="#d7c53b" fill-rule="evenodd"/><path d="M27.6,13.1Z" fill="#d7c53b" fill-rule="evenodd"/><path d="M27.5,12.9h0Z" fill="#d7c53b" fill-rule="evenodd"/><path d="M28,13.1h0Z" fill="#d7c53b" fill-rule="evenodd"/><path d="M28.3,13.3h0c0-.1.1-.1,0-.1Z" fill="#d7c53b" fill-rule="evenodd"/><path d="M28.3,13.3h0Z" fill="#d7c53b" fill-rule="evenodd"/><path d="M28.5,13.4h0Z" fill="#d7c53b" fill-rule="evenodd"/><path d="M29.1,14h0Z" fill="#d7c53b" fill-rule="evenodd"/><path d="M29.4,14.3h0C29.5,14.4,29.4,14.3,29.4,14.3Z" fill="#d7c53b" fill-rule="evenodd"/><path d="M29.6,14.8s.1,0,0,.1h0C29.7,14.8,29.6,14.8,29.6,14.8Z" fill="#d7c53b" fill-rule="evenodd"/><path d="M29.8,15.5h-.1s.1.1,0,.1h.1Z" fill="#d7c53b" fill-rule="evenodd"/><path d="M29.6,16.6h0Z" fill="#d7c53b" fill-rule="evenodd"/><path d="M29.4,17.2s-.1.1,0,.1Z" fill="#d7c53b" fill-rule="evenodd"/><path d="M29,17.7h0Z" fill="#d7c53b" fill-rule="evenodd"/><path d="M27.8,19.4a.1.1,0,0,1-.1.1h.1Z" fill="#d7c53b" fill-rule="evenodd"/><path d="M25.3,19.2h-.1A.1.1,0,0,1,25.3,19.2Z" fill="#d7c53b" fill-rule="evenodd"/><path d="M25.5,21.5c-.1.1,0,.1,0,.1h0Z" fill="#d7c53b" fill-rule="evenodd"/><path d="M25.2,21.6s.1.1,0,.1h0Z" fill="#d7c53b" fill-rule="evenodd"/><rect x="0.2" y="10.7" width="19.6" height="3.04" transform="translate(-4.5 5.9) rotate(-27)" fill="none"/><path d="M1.6,16.7Z" fill="#d7c53b" fill-rule="evenodd"/><path d="M1.6,16.7h0Z" fill="#d7c53b" fill-rule="evenodd"/><path d="M1.8,16.7Z" fill="#d7c53b" fill-rule="evenodd"/><path d="M2.5,17Z" fill="#d7c53b" fill-rule="evenodd"/><path d="M1.7,16.6Z" fill="#d7c53b" fill-rule="evenodd"/><path d="M2.6,16.9h0Z" fill="#d7c53b" fill-rule="evenodd"/><path d="M2.1,16.6Z" fill="#d7c53b" fill-rule="evenodd"/><path d="M2.8,16.9Z" fill="#d7c53b" fill-rule="evenodd"/><path d="M2.1,16.6h0Z" fill="#d7c53b" fill-rule="evenodd"/><path d="M2.1,16.4h0Z" fill="#d7c53b" fill-rule="evenodd"/><path d="M3.3,16.8Z" fill="#d7c53b" fill-rule="evenodd"/><path d="M2.3,16.4h0Z" fill="#d7c53b" fill-rule="evenodd"/><path d="M3,16.5c.1,0,.1,0,.1-.1H3C3.1,16.5,3,16.4,3,16.5Z" fill="#d7c53b" fill-rule="evenodd"/><path d="M2.5,16.2h0Z" fill="#d7c53b" fill-rule="evenodd"/><path d="M2.7,16.2h0Z" fill="#d7c53b" fill-rule="evenodd"/><path d="M3.6,16.5Z" fill="#d7c53b" fill-rule="evenodd"/><path d="M3.5,16.4Z" fill="#d7c53b" fill-rule="evenodd"/><path d="M4,16.6a.1.1,0,0,0,.1-.1A.1.1,0,0,1,4,16.6Z" fill="#d7c53b" fill-rule="evenodd"/><path d="M2.4,15.9Z" fill="#d7c53b" fill-rule="evenodd"/><path d="M2.6,16Z" fill="#d7c53b" fill-rule="evenodd"/><path d="M2.5,15.9h.1c.1,0,0,0,0-.1H2.5Z" fill="#d7c53b" fill-rule="evenodd"/><path d="M3.8,16.3Z" fill="#d7c53b" fill-rule="evenodd"/><path d="M1.9,15.5Z" fill="#d7c53b" fill-rule="evenodd"/><path d="M1.9,15.5Z" fill="#d7c53b" fill-rule="evenodd"/><path d="M2,15.5H2Z" fill="#d7c53b" fill-rule="evenodd"/><path d="M3.9,16.3H4C4,16.2,3.9,16.3,3.9,16.3Z" fill="#d7c53b" fill-rule="evenodd"/><path d="M1.6,15.2h0Z" fill="#d7c53b" fill-rule="evenodd"/><path d="M4.1,16.2Z" fill="#d7c53b" fill-rule="evenodd"/><path d="M2.4,15.5Z" fill="#d7c53b" fill-rule="evenodd"/><path d="M2.9,15.7h0Z" fill="#d7c53b" fill-rule="evenodd"/><path d="M2,15.3H2Z" fill="#d7c53b" fill-rule="evenodd"/><path d="M4.2,16.2Z" fill="#d7c53b" fill-rule="evenodd"/><path d="M2.6,15.4Z" fill="#d7c53b" fill-rule="evenodd"/><path d="M4.3,16.1h0Z" fill="#d7c53b" fill-rule="evenodd"/><path d="M4.4,16.1h0Z" fill="#d7c53b" fill-rule="evenodd"/><path d="M2.5,15.2s.1-.1,0-.1Z" fill="#d7c53b" fill-rule="evenodd"/><path d="M4.6,16h0Z" fill="#d7c53b" fill-rule="evenodd"/><path d="M3.7,15.5h0Z" fill="#d7c53b" fill-rule="evenodd"/><path d="M3.2,15.2Z" fill="#d7c53b" fill-rule="evenodd"/><path d="M3.7,15.1h0Z" fill="#d7c53b" fill-rule="evenodd"/><path d="M3,14.6h.1c0-.1-.1,0,0-.1Z" fill="#d7c53b" fill-rule="evenodd"/><path d="M2.6,14.4h0Z" fill="#d7c53b" fill-rule="evenodd"/><path d="M4.3,15h0Z" fill="#d7c53b" fill-rule="evenodd"/><path d="M3.1,14.4h0Z" fill="#d7c53b" fill-rule="evenodd"/><path d="M4.4,14.8Z" fill="#d7c53b" fill-rule="evenodd"/><path d="M3.4,14.2h0Z" fill="#d7c53b" fill-rule="evenodd"/><path d="M3.3,14Z" fill="#d7c53b" fill-rule="evenodd"/><path d="M3.7,14.2h0Z" fill="#d7c53b" fill-rule="evenodd"/><path d="M3.9,14.1h0Z" fill="#d7c53b" fill-rule="evenodd"/><path d="M4,14.1H4Z" fill="#d7c53b" fill-rule="evenodd"/><path d="M5.2,14.5Z" fill="#d7c53b" fill-rule="evenodd"/><path d="M5.2,14.5Z" fill="#d7c53b" fill-rule="evenodd"/><path d="M5.4,14.5Z" fill="#d7c53b" fill-rule="evenodd"/><path d="M4.3,14Z" fill="#d7c53b" fill-rule="evenodd"/><path d="M4.3,14s.1,0,0-.1Z" fill="#d7c53b" fill-rule="evenodd"/><path d="M4.4,14Z" fill="#d7c53b" fill-rule="evenodd"/><path d="M4.5,14.1c.1-.1.1,0,0-.1Z" fill="#d7c53b" fill-rule="evenodd"/><path d="M5.5,14.4h0Z" fill="#d7c53b" fill-rule="evenodd"/><path d="M5.8,14.4h0Z" fill="#d7c53b" fill-rule="evenodd"/><path d="M4.8,13.9h0Z" fill="#d7c53b" fill-rule="evenodd"/><path d="M4.8,13.8h0Z" fill="#d7c53b" fill-rule="evenodd"/><path d="M6,14.2H6Z" fill="#d7c53b" fill-rule="evenodd"/><path d="M5.3,13.8Z" fill="#d7c53b" fill-rule="evenodd"/><path d="M5.8,13h0Z" fill="#d7c53b" fill-rule="evenodd"/><path d="M6.3,12.7c.1.1,0,0,.1,0H6.3Z" fill="#d7c53b" fill-rule="evenodd"/><path d="M6.5,12.6h0Z" fill="#d7c53b" fill-rule="evenodd"/><path d="M6.6,12.6Z" fill="#d7c53b" fill-rule="evenodd"/><path d="M6.7,12.6h0Z" fill="#d7c53b" fill-rule="evenodd"/><path d="M6.8,12.5h0Z" fill="#d7c53b" fill-rule="evenodd"/><path d="M6.8,12.5h0Z" fill="#d7c53b" fill-rule="evenodd"/><path d="M6.8,12.5h0Z" fill="#d7c53b" fill-rule="evenodd"/><path d="M7.2,12.4h0Z" fill="#d7c53b" fill-rule="evenodd"/><path d="M7.3,12.3h0Z" fill="#d7c53b" fill-rule="evenodd"/><path d="M7.4,12.3h0Z" fill="#d7c53b" fill-rule="evenodd"/><path d="M7.5,12.2h0Z" fill="#d7c53b" fill-rule="evenodd"/><path d="M7.6,12.2h0s.1,0,0,.1h0Z" fill="#d7c53b" fill-rule="evenodd"/><path d="M7.6,12.1h0Z" fill="#d7c53b" fill-rule="evenodd"/><path d="M7.7,12Z" fill="#d7c53b" fill-rule="evenodd"/><path d="M7.8,12h0Z" fill="#d7c53b" fill-rule="evenodd"/><path d="M9.8,11.2Z" fill="#d7c53b" fill-rule="evenodd"/><path d="M10.2,10.9h0Z" fill="#d7c53b" fill-rule="evenodd"/><path d="M10.8,10.7h0Z" fill="#d7c53b" fill-rule="evenodd"/><path d="M11.1,10.6h0Z" fill="#d7c53b" fill-rule="evenodd"/><path d="M11.6,10.3h0Z" fill="#d7c53b" fill-rule="evenodd"/><path d="M12.2,10.1h0Z" fill="#d7c53b" fill-rule="evenodd"/><path d="M14.9,11.1h0Z" fill="#d7c53b" fill-rule="evenodd"/><path d="M15,11h0Z" fill="#d7c53b" fill-rule="evenodd"/><path d="M13.1,9.5Z" fill="#d7c53b" fill-rule="evenodd"/><path d="M13.3,9.5Z" fill="#d7c53b" fill-rule="evenodd"/><path d="M13.2,9.4h0Z" fill="#d7c53b" fill-rule="evenodd"/><path d="M14.5,8.7Z" fill="#d7c53b" fill-rule="evenodd"/><path d="M14.5,8.6h0Z" fill="#d7c53b" fill-rule="evenodd"/><path d="M14.6,8.6h.2Z" fill="#d7c53b" fill-rule="evenodd"/><path d="M14.8,8.5h0Z" fill="#d7c53b" fill-rule="evenodd"/><path d="M14.8,8.4h0Z" fill="#d7c53b" fill-rule="evenodd"/><path d="M14.9,8.4h0Z" fill="#d7c53b" fill-rule="evenodd"/><path d="M14.8,8.1Z" fill="#d7c53b" fill-rule="evenodd"/><path d="M15.2,8.2h0c-.1,0,0,0,0-.1h0Z" fill="#d7c53b" fill-rule="evenodd"/><path d="M14.9,8.1h0Z" fill="#d7c53b" fill-rule="evenodd"/><path d="M15.3,8.1Z" fill="#d7c53b" fill-rule="evenodd"/><path d="M15.3,8.1h0Z" fill="#d7c53b" fill-rule="evenodd"/><path d="M15.5,8h0Z" fill="#d7c53b" fill-rule="evenodd"/><path d="M15.4,8h0Z" fill="#d7c53b" fill-rule="evenodd"/><path d="M15.5,7.8Z" fill="#d7c53b" fill-rule="evenodd"/><path d="M15.5,7.9a.1.1,0,0,0,.1-.1C15.6,7.9,15.5,7.8,15.5,7.9Z" fill="#d7c53b" fill-rule="evenodd"/><path d="M15.7,7.8h.1c-.1-.1-.1,0-.1,0h0c-.1.1-.1.1-.1.2A.1.1,0,0,0,15.7,7.8Z" fill="#d7c53b" fill-rule="evenodd"/><path d="M15.8,7.7Z" fill="#d7c53b" fill-rule="evenodd"/><path d="M15.9,7.7Z" fill="#d7c53b" fill-rule="evenodd"/><path d="M15.9,7.6h0Z" fill="#d7c53b" fill-rule="evenodd"/><path d="M1.3,16.8h0a.1.1,0,0,0-.1.1c.1-.1.1.1.1,0h0Z" fill="#d7c53b" fill-rule="evenodd"/><path d="M1.9,16.8h0Z" fill="#d7c53b" fill-rule="evenodd"/><path d="M2,16.7h.1a.1.1,0,0,0,.1-.1c.1.1,0,.1,0,.1h.3c-.1,0,0-.1-.1-.1h.1a.1.1,0,0,1,.1-.1h0a.1.1,0,0,0,.1.1c0-.1,0-.1.1-.1h0a.1.1,0,0,0-.1.1.1.1,0,0,0,.1-.1h.1c0,.1,0,0,.1,0h.5c-.1-.1,0-.1,0-.1h0a.1.1,0,0,1,.1.1H3.5l.2-.2a.1.1,0,0,0,.2,0h.4c.1.1.1,0,.1,0h.2v-.2c.1.1.2-.1.2,0H5a.1.1,0,0,0,.1-.1h.3A33.6,33.6,0,0,0,10.8,13h.1a.5.5,0,0,0-.4.2h-.1c-.1-.1-.2,0-.2.1H10l-.3.2h0c-.2,0-.2.2-.4.2H8.7c0,.1-.1,0-.1.1H8.2l-.6.3H7.5l-.4.2H5.6c-.1.1,0,.1,0,.1H4.9s-.1.1-.1,0-.1,0-.1.1H4.3c0,.1-.1,0-.2.1H4c0,.1-.1,0-.1.1H3.8a.1.1,0,0,1-.1.1h0s-.2,0-.2.1H3.3c0,.1-.1,0-.1,0h0c-.1,0,0,0,0,.1s-.1-.1-.1,0H3c0,.1,0,.1-.1.1H3a.1.1,0,0,1,.2,0h0a.1.1,0,0,0,.1-.1h0s0-.1.1,0h.2a.1.1,0,0,0-.1.1c0-.1.1-.1.2-.1H5.3c.1,0,.1-.1.1,0a.1.1,0,0,1,.1-.1H6.8l.6-.3h.4l.4-.2h0c.1-.2.3-.2.4-.3h.3l.3-.2.6-.3h.1l.3-.2h0l2.5-1.5h0a.5.5,0,0,0,.4-.2h.2l.6-.2h.2l.2-.2h.1c.1-.1.2-.1.2-.2h0c.1.1.1,0,0,0h.1s.1,0,0,.1h.2l.3-.2h.1a.1.1,0,0,1-.1.1h-.1l.2-.2h0c0-.1.1-.1.1-.2h0v-.2l.3-.2h.1c.1,0,.2-.3.4-.3s0,0,0-.1h.8c-.1-.1,0-.1,0-.1s.1-.2.2-.3h.1V8.8l.3-.2V8.4a.3.3,0,0,0,.1-.2h-.2l-.4.3h-.1V8.3h0l.2-.2a.1.1,0,0,0-.1.1.1.1,0,0,1,.1-.1h.1c.1-.1.2-.1.3-.3h-.1s-.1.1-.1,0h0c0-.1,0,0-.1,0h0a.1.1,0,0,1-.1.1h0a.1.1,0,0,1-.1.1h-.1c-.1,0,0,.1,0,.1h.2c-.1-.1,0-.1,0-.1h0a.1.1,0,0,1,.1-.1h.3s.2-.1.2-.2h0c.1-.1.2-.2.1-.3H18a.1.1,0,0,0-.1.1.1.1,0,0,0,.1-.1h-.1c-.1-.1-.1,0-.2.1s-.1,0-.1.1h-.1V6.9h0l-.2.2h0c-.1,0-.1,0-.1.1h-.2c-.1,0,0-.1-.1-.1h-.6c-.1-.1-.1.1-.2.1V7.4h-.1v.2H16c-.1,0,0-.1-.1-.1s0,.1,0,.1h-.1s.1-.2.2-.1h-.2v.2h-.3s0,.1-.1,0a.1.1,0,0,1-.1.1h0a.1.1,0,0,1-.1.1h0v.2h-.1c-.1,0,0-.1,0-.1h-.2l-.2.2h-.2l-.3.2h-.3s.1,0,0,.1h-.2c0-.1-.1-.1,0-.1h-.6s0,.1-.1,0h0c-.1,0,0,0-.1-.1h-.3c-.1-.1-.1.1-.2.1h-.4c0,.1,0,0,.1,0h-.3c.1,0,.1.1.2,0s-.1,0-.1.1h0c-.1,0,0,.1,0,.1H10.1c-.1,0-.2.1-.2,0h0c-.1,0,0-.1-.1-.1s0,.1-.1.1h0s-.1,0,0,.1H8.9c.1,0,0,.1,0,.1H8.7s-.1.1-.1,0h0c.1.1,0,.1,0,.1h0c-.1-.1,0-.1,0-.1H8.4a.1.1,0,0,1-.1.1H8.1c-.1,0,0-.1,0-.1h.1l-.3.2H7.6c0,.1,0,.1.1.1H7.6a.1.1,0,0,1-.1.1H7.4s-.1,0,0,.1H6.3s0-.1-.1,0,0-.1-.1-.1.1,0,.1.1H5.7l-.3.2h0c0-.1,0,0-.1,0s.1-.1,0-.1H4.9c-.1.1-.1.1,0,.1H4.2s.1.1,0,.1H4c-.1,0,0,.1-.1.1H3.8c-.1,0-.1,0,0-.1H3.1s0,.1-.1,0H3a.1.1,0,0,0-.1.1H3c.1,0,.2,0,.2-.1s.1,0,.1,0H4.4s-.1,0,0,.1h.4c-.1-.1,0-.1,0-.1h.1c0-.1,0,0,.1-.1s0,0,.1.1h.2c-.1,0,0,0,0-.1h.1c0,.1-.1,0-.1.1h0l-.2.2H4.7s.1-.1,0-.1H3.9c0,.1-.1,0-.1.1H3.7c-.1-.1,0-.1,0-.1H2.9v.2H2.6s-.1-.1-.1,0H2.3c.1,0,0,.1,0,.1H1.9c-.1-.1,0,0,0-.1h.3c.1,0,0,0,0,.1h.7c-.1,0-.2,0-.1.1H2.5a.1.1,0,0,0-.1.1h0c-.1.1,0,.1,0,.1h0c.1,0,0,.1,0,.1H3a.1.1,0,0,1,.1-.1h.2c.1,0,0,0,0-.1h1a.1.1,0,0,1,.1-.1h.2c.1,0,.1,0,0,.1h.5c-.1,0-.1-.1,0-.1h.5c.1,0,.2,0,.2-.1h.7c-.1,0-.1,0,0-.1H6.4c0,.1-.1.1,0,.1h0c.1.1,0,.1,0,.1H6.2a.1.1,0,0,0-.1.1h0c-.1-.1-.1,0-.1-.1s0,.1-.1.1H5.6c.1,0,.1,0,0,.1H3.9a.1.1,0,0,1-.1.1.1.1,0,0,0,.1-.1c-.1,0-.1.1-.1,0H3.6c0,.1-.1.1,0,.1H3.3c.1,0,0,0,0,.1h0c.1,0,.2-.1.2,0s0-.1.1-.1h0c0-.1,0,0-.1,0H3.2c0,.1-.1,0-.1,0h0c-.1,0-.1-.1-.1,0H2.7s0,.1-.1,0h0c-.1,0,0,0,0-.1H2c0,.1,0,0-.1.1H2Zm2.2-.6h0Zm1.7-.6h0ZM17.2,8Zm-.3-.6h0c0,.1.1,0,.1,0h0s.1,0,0,.1h-.1c0-.1.1-.1,0-.1ZM13.7,9.3h0Zm-1.6.9h0Zm-1.3.6ZM3.3,14.2h0Zm.6.1h0Zm-2,.8Zm3-.3h0Zm-1.1.5Zm-.5.2h0Zm-1.2,1h0Zm.9-.2H3Zm.8-.1h0Zm.1-.1Zm-1.6-.7h0Zm2.3.9h0Zm-1.1-.4Zm-1.3-.6Zm.1,0Zm.1,0h0Zm1,.3Zm-.8-.4H2.5A.1.1,0,0,1,2.6,15.2ZM2.1,15h0Zm1.4.5h0Zm.9.4h0Zm-1.1-.4h0Zm-1-.5Zm.5.2h0Zm-.3-.1c-.1-.1,0-.1,0-.1h0Zm1.4.4H3.7c-.1-.1,0-.1,0-.1h.2C3.8,15.4,3.9,15.4,3.9,15.5Zm-1.1-.3h0Zm2.4.9h0Zm-.5-.3ZM2.6,15Zm.3,0Zm-.3,0h0ZM3,15Zm.1,0Zm.2.1h0Zm-.6-.2h0Zm1.3.4H4Zm-1.1-.4h0Zm2.1.8c0,.1,0,.1-.1.1A.1.1,0,0,1,5,15.7Zm-2.3-.9h0a.1.1,0,0,1,.1-.1h.1a.1.1,0,0,1-.1.1H2.7Zm.4.1h0Zm-.3-.1Zm1.2.5H4Zm.1,0h0Zm-1.2-.5h0Zm2.4,1Zm-2.4-1Zm.7.2ZM3,14.8H3Zm.2.1h0Zm-.3-.2Zm1.4.6c-.1-.1-.1,0-.1,0S4.2,15.2,4.3,15.3Zm-1-.5Zm2.3.9s0,.1-.1,0Zm-2-.8h0Zm.8.3h0Zm-1.3-.7H3c-.1,0,0,0,0-.1h.1Zm.2.1h0Zm2.4,1Zm-1.2-.5h0Zm-1.6-.6h0Zm.6.2Zm1,.4h0ZM4,14.8H4Zm-.8-.3h0Zm1.4.6ZM4.5,15h0Zm-1.7-.7Zm3.3,1.2Zm-1.8-.8ZM5,15Zm-.6-.3h0Zm2,.7h0ZM3.3,14.1Zm.6.2h0Zm1.2.4h0ZM3.8,14h0Zm.7.3h0Zm-.3-.1h0Zm.2,0h.1a.1.1,0,0,0-.1.1h0Zm.6.2H5Zm-1.1-.5h0Zm-.1.1h0Zm.1,0h0Zm.5.1Zm0,.1h0Zm.1,0h0Zm1.3.4h0Zm1,.5h0ZM3.9,13.9Zm1.7.6h0Zm-1.4-.6h0Zm1.1.5h0Zm-.7-.3h0Zm-.4-.3h0Zm.6.2h0ZM5,14H5Zm-.2.1h0Zm-.5-.2Zm.5.1Zm.1-.1h0ZM5,14H5Zm-.8-.3Zm.3.1Zm-.1-.1Zm.7.3h0ZM5,13.9H5Zm-.3-.1Zm-.1-.1Zm.4.2Zm-.4-.3h0Zm.2,0h0Zm0,0h0Zm.2-.1Zm.6.2Zm.8.3c.1,0,.1.1,0,.1S6.4,14,6.4,14Zm-.8-.3h0s-.1-.1,0-.1Zm0-.1h0Zm-.4-.2h0Zm.4.2Zm.1,0h0Zm.1,0Zm.8.3Zm-.9-.4h0Zm-.3-.1h0Zm.6.3Zm.1-.2Zm0-.1Zm-.7,0h0Zm.3.1Zm.1,0Zm-.3-.2h0Zm1.4.5c0,.1-.1.1,0,.1S6.8,13.8,6.9,13.8Zm0,0h0ZM6,13.4H6Zm-.2-.1h0Zm.4.1Zm.1,0h.1c-.1,0,0,0,0,.1H6.3Zm-.1-.1h0Zm2.4,1Zm-1.4-.6Zm-.7-.4h0ZM5.8,13h0Zm.6.2h.1A.1.1,0,0,1,6.4,13.2ZM6.1,13h0ZM6,12.9H6Zm.6.3Zm-.2-.1h0ZM6.1,13Zm.7.1H6.7c0-.1,0,0-.1-.1h.2Zm2.2,1H9Zm-1.5-.6h0C7.6,13.5,7.6,13.5,7.5,13.5Zm-1.3-.6h0Zm.8.4H6.9S6.9,13.2,7,13.3Zm-.1-.1h0Zm-.7-.3Zm.1,0Zm.5.2h0Zm-.6-.3h0Zm.2,0h0ZM7,13H7Zm.2.1Zm0-.1h0Zm.3.1h0ZM7.4,13h0Zm0,0h0Zm.2-.1h0ZM7,12.6H7Zm0,0H7Zm.1,0h0ZM7,12.5H7C7.1,12.6,7,12.5,7,12.5Zm.8.4Zm-.6-.3h0Zm.5.2h.2a.1.1,0,0,1-.1.1H7.7Zm.2-.1c.1.1,0,.1,0,.1h0Zm0,0c.1,0,.1,0,.1.1s-.1,0-.1,0S8,12.7,7.9,12.7Zm.2.1Zm2.2.6h0Zm-1.9-.9h0Zm2,.9h0Zm.2-.1h-.1S10.6,13.2,10.6,13.3ZM8.2,12.1h0Zm0-.1h0Zm.1-.1h0ZM10.9,13h0ZM8.3,11.9h0Zm.2,0Zm-.1-.1Zm2.7,1.1ZM8.7,11.8Zm2.6,1.1h0ZM8.8,11.7h0Zm2.7,1h0C11.5,12.7,11.4,12.7,11.5,12.7ZM8.9,11.6h0Zm2.7,1h0C11.5,12.7,11.5,12.6,11.6,12.6Zm-2.5-1h0Zm2.5,1.1ZM9.1,11.5h0Zm.1,0h0Zm2.5,1.1ZM9.2,11.5Zm.1,0h0Zm.1-.1h0Zm.2,0h0Zm-.1,0h0Zm.2,0h0Zm0-.1h0Zm.1,0h0Zm.3-.2ZM12.3,10h0Zm.2,0h0Zm2.9.6c-.1.1,0,0,0,.1h0Zm-.1.1ZM13,9.7h0c.1,0,0,.1,0,.1Zm2.4.9h0Zm-2.3-1h0Zm2.4,1Zm-.9-1.9h0Zm.1,0h0Zm0-.1h0Zm2.2.1h-.1Zm.1,0h0a.1.1,0,0,1-.1.1Zm-1.3-.6h0Zm1.5.4v.2h0C17.1,8.6,17.1,8.5,17.2,8.5Zm-1.3-.8h0Zm1.7.7ZM17.1,8h0Zm-.4-.4h0Zm.1-.1h0Zm.1,0Zm0-.1h0Zm1-.3h0Z" fill="#d7c53b" fill-rule="evenodd"/><path d="M5.4,13.2Z" fill="#d7c53b" fill-rule="evenodd"/><path d="M2.7,16.9h0Z" fill="#d7c53b" fill-rule="evenodd"/><path d="M3.6,16.3h0Z" fill="#d7c53b" fill-rule="evenodd"/><path d="M2.4,15.9h0Z" fill="#d7c53b" fill-rule="evenodd"/><path d="M2.9,16c0,.1,0,.1.1.1H2.9Z" fill="#d7c53b" fill-rule="evenodd"/><path d="M2.8,15.9Z" fill="#d7c53b" fill-rule="evenodd"/><path d="M4,16.4Z" fill="#d7c53b" fill-rule="evenodd"/><path d="M2.7,15.8h.1s-.1.1-.1,0Z" fill="#d7c53b" fill-rule="evenodd"/><path d="M4.3,16.4c.1.1.1,0,.2,0Z" fill="#d7c53b" fill-rule="evenodd"/><path d="M1.5,15.2Z" fill="#d7c53b" fill-rule="evenodd"/><path d="M2.8,15.8h0Z" fill="#d7c53b" fill-rule="evenodd"/><path d="M4.1,16.2Z" fill="#d7c53b" fill-rule="evenodd"/><path d="M2.2,15.2Z" fill="#d7c53b" fill-rule="evenodd"/><path d="M3,15.3Z" fill="#d7c53b" fill-rule="evenodd"/><path d="M4.8,16h0Z" fill="#d7c53b" fill-rule="evenodd"/><path d="M4.9,16h0Z" fill="#d7c53b" fill-rule="evenodd"/><path d="M5,15.9Z" fill="#d7c53b" fill-rule="evenodd"/><path d="M2.5,14.4Z" fill="#d7c53b" fill-rule="evenodd"/><path d="M3.1,14.3h0Z" fill="#d7c53b" fill-rule="evenodd"/><path d="M3.4,14.3h.1c-.1-.1-.1,0-.1-.1Z" fill="#d7c53b" fill-rule="evenodd"/><path d="M4.8,14.6h0Z" fill="#d7c53b" fill-rule="evenodd"/><path d="M4,14H4Z" fill="#d7c53b" fill-rule="evenodd"/><path d="M4.3,14.1h0Z" fill="#d7c53b" fill-rule="evenodd"/><path d="M4.2,14Z" fill="#d7c53b" fill-rule="evenodd"/><path d="M4.5,13.9h0Z" fill="#d7c53b" fill-rule="evenodd"/><path d="M4.6,13.6Z" fill="#d7c53b" fill-rule="evenodd"/><path d="M5.2,13.8Z" fill="#d7c53b" fill-rule="evenodd"/><path d="M6.1,14.2Z" fill="#d7c53b" fill-rule="evenodd"/><path d="M5.1,13.3h.1A.1.1,0,0,0,5.1,13.3Z" fill="#d7c53b" fill-rule="evenodd"/><path d="M5.2,13.3a.1.1,0,0,0,.1-.1h0A.1.1,0,0,0,5.2,13.3Z" fill="#d7c53b" fill-rule="evenodd"/><path d="M5.1,13.2h0Z" fill="#d7c53b" fill-rule="evenodd"/><path d="M5.5,13h0Z" fill="#d7c53b" fill-rule="evenodd"/><path d="M5.8,12.9h0Z" fill="#d7c53b" fill-rule="evenodd"/><path d="M5.8,12.9h0Z" fill="#d7c53b" fill-rule="evenodd"/><path d="M6,12.9H6Z" fill="#d7c53b" fill-rule="evenodd"/><path d="M6.6,12.7h0Z" fill="#d7c53b" fill-rule="evenodd"/><path d="M6.9,12.4h0Z" fill="#d7c53b" fill-rule="evenodd"/><path d="M7.2,12.3h0Z" fill="#d7c53b" fill-rule="evenodd"/><path d="M7.7,12.1Z" fill="#d7c53b" fill-rule="evenodd"/><path d="M8.6,11.7h0Z" fill="#d7c53b" fill-rule="evenodd"/><path d="M9.2,11.4Z" fill="#d7c53b" fill-rule="evenodd"/><path d="M9.8,11.3a.1.1,0,0,0-.1-.1h0C9.8,11.2,9.7,11.3,9.8,11.3Z" fill="#d7c53b" fill-rule="evenodd"/><path d="M11.8,10.2Z" fill="#d7c53b" fill-rule="evenodd"/><path d="M14.6,11.3h.1c0-.1,0-.1.1-.1h-.2Z" fill="#d7c53b" fill-rule="evenodd"/><path d="M14.8,8.4Z" fill="#d7c53b" fill-rule="evenodd"/><path d="M15,8.4c.1,0,0-.1,0-.1h0Z" fill="#d7c53b" fill-rule="evenodd"/><rect x="5.7" y="7.1" width="11.1" height="2.63" transform="translate(-0.1 0.1) rotate(-0.4)" fill="none"/><path d="M16.6,8.2Z" fill="#d7c53b" fill-rule="evenodd"/><path d="M16.6,8.3Z" fill="#d7c53b" fill-rule="evenodd"/><path d="M16.5,8.2Z" fill="#d7c53b" fill-rule="evenodd"/><path d="M16.2,7.7Z" fill="#d7c53b" fill-rule="evenodd"/><path d="M16.5,8.3h0Z" fill="#d7c53b" fill-rule="evenodd"/><path d="M16.2,7.7a.1.1,0,0,0-.1-.1c0,.1,0,.1.1.1Z" fill="#d7c53b" fill-rule="evenodd"/><path d="M16.3,8.1Z" fill="#d7c53b" fill-rule="evenodd"/><path d="M16,7.6h-.1a.1.1,0,0,1,.1.1Z" fill="#d7c53b" fill-rule="evenodd"/><path d="M16.3,8.1Z" fill="#d7c53b" fill-rule="evenodd"/><path d="M16.2,8.2h0Z" fill="#d7c53b" fill-rule="evenodd"/><path d="M15.8,7.5h0Z" fill="#d7c53b" fill-rule="evenodd"/><path d="M16.1,8.2Z" fill="#d7c53b" fill-rule="evenodd"/><path d="M15.8,7.8h0Z" fill="#d7c53b" fill-rule="evenodd"/><path d="M16,8.3h0Z" fill="#d7c53b" fill-rule="evenodd"/><path d="M15.9,8.2Z" fill="#d7c53b" fill-rule="evenodd"/><path d="M15.5,7.6Z" fill="#d7c53b" fill-rule="evenodd"/><path d="M15.5,7.7Z" fill="#d7c53b" fill-rule="evenodd"/><path d="M15.3,7.4Z" fill="#d7c53b" fill-rule="evenodd"/><path d="M16,8.6h0Z" fill="#d7c53b" fill-rule="evenodd"/><path d="M15.9,8.4Z" fill="#d7c53b" fill-rule="evenodd"/><path d="M15.9,8.5Z" fill="#d7c53b" fill-rule="evenodd"/><path d="M15.4,7.7h0c0-.1,0-.1-.1-.1A.1.1,0,0,0,15.4,7.7Z" fill="#d7c53b" fill-rule="evenodd"/><path d="M16.1,9Z" fill="#d7c53b" fill-rule="evenodd"/><path d="M16.1,9.1Z" fill="#d7c53b" fill-rule="evenodd"/><path d="M16.1,9h0Z" fill="#d7c53b" fill-rule="evenodd"/><path d="M15.3,7.7h0Z" fill="#d7c53b" fill-rule="evenodd"/><path d="M16.2,9.4Z" fill="#d7c53b" fill-rule="evenodd"/><path d="M15.2,7.6h0Z" fill="#d7c53b" fill-rule="evenodd"/><path d="M15.9,8.9Z" fill="#d7c53b" fill-rule="evenodd"/><path d="M15.7,8.5h0Z" fill="#d7c53b" fill-rule="evenodd"/><path d="M16,9.2Z" fill="#d7c53b" fill-rule="evenodd"/><path d="M15.1,7.6Z" fill="#d7c53b" fill-rule="evenodd"/><path d="M15.8,8.8h0Z" fill="#d7c53b" fill-rule="evenodd"/><path d="M15.1,7.6h0Z" fill="#d7c53b" fill-rule="evenodd"/><path d="M15,7.6Z" fill="#d7c53b" fill-rule="evenodd"/><path d="M15.7,9.1Z" fill="#d7c53b" fill-rule="evenodd"/><path d="M14.9,7.6Z" fill="#d7c53b" fill-rule="evenodd"/><path d="M15.2,8.4Z" fill="#d7c53b" fill-rule="evenodd"/><path d="M15.4,8.8h0Z" fill="#d7c53b" fill-rule="evenodd"/><path d="M15.1,8.7Z" fill="#d7c53b" fill-rule="evenodd"/><path d="M15.3,9.3Z" fill="#d7c53b" fill-rule="evenodd"/><path d="M15.5,9.6h0Z" fill="#d7c53b" fill-rule="evenodd"/><path d="M14.8,8.5Z" fill="#d7c53b" fill-rule="evenodd"/><path d="M15.2,9.4Z" fill="#d7c53b" fill-rule="evenodd"/><path d="M14.7,8.6Z" fill="#d7c53b" fill-rule="evenodd"/><path d="M15,9.4Z" fill="#d7c53b" fill-rule="evenodd"/><path d="M15.1,9.6h0Z" fill="#d7c53b" fill-rule="evenodd"/><path d="M14.9,9.3h0Z" fill="#d7c53b" fill-rule="evenodd"/><path d="M14.8,9.3h0Z" fill="#d7c53b" fill-rule="evenodd"/><path d="M14.7,9.3Z" fill="#d7c53b" fill-rule="evenodd"/><path d="M14.2,8.5h0S14.3,8.5,14.2,8.5Z" fill="#d7c53b" fill-rule="evenodd"/><path d="M14.2,8.6Z" fill="#d7c53b" fill-rule="evenodd"/><path d="M14.1,8.4h0Z" fill="#d7c53b" fill-rule="evenodd"/><path d="M14.5,9.2h0Z" fill="#d7c53b" fill-rule="evenodd"/><path d="M14.6,9.3h0Z" fill="#d7c53b" fill-rule="evenodd"/><path d="M14.5,9.2Z" fill="#d7c53b" fill-rule="evenodd"/><path d="M14.5,9.1h0Z" fill="#d7c53b" fill-rule="evenodd"/><path d="M14,8.5h0Z" fill="#d7c53b" fill-rule="evenodd"/><path d="M13.9,8.4h0Z" fill="#d7c53b" fill-rule="evenodd"/><path d="M14.2,9.2Z" fill="#d7c53b" fill-rule="evenodd"/><path d="M14.2,9.2Z" fill="#d7c53b" fill-rule="evenodd"/><path d="M13.7,8.4Z" fill="#d7c53b" fill-rule="evenodd"/><path d="M14,9h0Z" fill="#d7c53b" fill-rule="evenodd"/><path d="M13.5,9.5Z" fill="#d7c53b" fill-rule="evenodd"/><path d="M13.2,9.4Z" fill="#d7c53b" fill-rule="evenodd"/><path d="M13.1,9.4Z" fill="#d7c53b" fill-rule="evenodd"/><path d="M13,9.4h0Z" fill="#d7c53b" fill-rule="evenodd"/><path d="M13,9.4h0Z" fill="#d7c53b" fill-rule="evenodd"/><path d="M12.9,9.4Z" fill="#d7c53b" fill-rule="evenodd"/><path d="M12.9,9.4Z" fill="#d7c53b" fill-rule="evenodd"/><path d="M12.9,9.5h0Z" fill="#d7c53b" fill-rule="evenodd"/><path d="M12.7,9.4Z" fill="#d7c53b" fill-rule="evenodd"/><path d="M12.6,9.4Z" fill="#d7c53b" fill-rule="evenodd"/><path d="M12.5,9.4Z" fill="#d7c53b" fill-rule="evenodd"/><path d="M12.5,9.4h0Z" fill="#d7c53b" fill-rule="evenodd"/><path d="M12.4,9.4h0Z" fill="#d7c53b" fill-rule="evenodd"/><path d="M12.4,9.4Z" fill="#d7c53b" fill-rule="evenodd"/><path d="M12.3,9.5h0Z" fill="#d7c53b" fill-rule="evenodd"/><path d="M12.2,9.5h0Z" fill="#d7c53b" fill-rule="evenodd"/><path d="M11.1,9.3c0-.1-.1,0-.1,0Z" fill="#d7c53b" fill-rule="evenodd"/><path d="M10.8,9.3h0Z" fill="#d7c53b" fill-rule="evenodd"/><path d="M10.4,9.3Z" fill="#d7c53b" fill-rule="evenodd"/><path d="M10.2,9.3Z" fill="#d7c53b" fill-rule="evenodd"/><path d="M9.9,9.3Z" fill="#d7c53b" fill-rule="evenodd"/><path d="M9.6,9.2h0Z" fill="#d7c53b" fill-rule="evenodd"/><path d="M8.4,7.4Z" fill="#d7c53b" fill-rule="evenodd"/><path d="M8.4,7.4h0Z" fill="#d7c53b" fill-rule="evenodd"/><path d="M8.9,9.3Z" fill="#d7c53b" fill-rule="evenodd"/><path d="M8.8,9.2h0Z" fill="#d7c53b" fill-rule="evenodd"/><path d="M8.9,9.3Z" fill="#d7c53b" fill-rule="evenodd"/><path d="M8.1,9.4h0Z" fill="#d7c53b" fill-rule="evenodd"/><path d="M8,9.5Z" fill="#d7c53b" fill-rule="evenodd"/><path d="M8,9.4H8Z" fill="#d7c53b" fill-rule="evenodd"/><path d="M7.9,9.4h0Z" fill="#d7c53b" fill-rule="evenodd"/><path d="M7.8,9.5Z" fill="#d7c53b" fill-rule="evenodd"/><path d="M7.8,9.4h0Z" fill="#d7c53b" fill-rule="evenodd"/><path d="M7.7,9.7Z" fill="#d7c53b" fill-rule="evenodd"/><path d="M7.6,9.5Z" fill="#d7c53b" fill-rule="evenodd"/><path d="M7.7,9.7H7.6C7.6,9.8,7.7,9.7,7.7,9.7Z" fill="#d7c53b" fill-rule="evenodd"/><path d="M7.5,9.5Z" fill="#d7c53b" fill-rule="evenodd"/><path d="M7.5,9.6h0Z" fill="#d7c53b" fill-rule="evenodd"/><path d="M7.3,9.6Z" fill="#d7c53b" fill-rule="evenodd"/><path d="M7.4,9.6h0Z" fill="#d7c53b" fill-rule="evenodd"/><path d="M7.3,9.7Z" fill="#d7c53b" fill-rule="evenodd"/><path d="M7.3,9.6Z" fill="#d7c53b" fill-rule="evenodd"/><path d="M7.2,9.6Z" fill="#d7c53b" fill-rule="evenodd"/><path d="M7.1,9.6Z" fill="#d7c53b" fill-rule="evenodd"/><path d="M7.1,9.6Z" fill="#d7c53b" fill-rule="evenodd"/><path d="M7.1,9.7h0Z" fill="#d7c53b" fill-rule="evenodd"/><path d="M16.8,8.3h-.1c.1-.1,0-.1,0-.1Z" fill="#d7c53b" fill-rule="evenodd"/><path d="M16.5,8.1h0Z" fill="#d7c53b" fill-rule="evenodd"/><path d="M16.4,8.1h-.8s0,.1-.1,0,0,0,0,.1H15s-.1-.1-.1,0h0c0,.1-.1,0-.1.1s-.1,0-.1-.1h-.3A13,13,0,0,0,11,7.5h2.9c-.1,0-.2,0-.2-.1h-.4c0,.1-.1,0-.1,0H11.5l-1.6.2H9.4c-.1,0-.2.1-.3,0H9c-.1.1-.1,0-.2,0h0a.1.1,0,0,1-.1.1h0c0,.1,0,.1-.1.1H6.9l-.2.2H6.1c0,.1,0,0,.1.1H5.8c-.1,0-.1.1-.1.2H6.8c0,.1.1,0,.1,0h.3V9.4h.3l.2-.2h.3s-.1,0,0,.1h.4c0-.1.1,0,.1,0h0c.1,0,.1,0,.1.1h0c.1.1.1,0,.1,0H9a.1.1,0,0,0-.1.1H9a.1.1,0,0,0,.1-.1h0a.1.1,0,0,0,.1.1h0c.1,0,.1,0,.1.1h0c0-.1,0-.1.1-.1s-.1.1,0,.1h0c.1.1.1,0,.2,0h0c.1,0,0,0,.1.1h.1c0-.1,0,0,.1,0H9.8c.1,0,.1,0,.1.1h0s.1.1.1,0h.2c0,.1,0,.1.1,0h0c.1,0,.1-.1.1,0h0s0-.1.1,0,0-.1-.1-.1H11c0,.1-.1,0-.1.1h.7s.1.1,0,.1h.5c0-.2.1-.1.1-.1h0c0-.1,0-.1.1-.1a.1.1,0,0,1-.1.1h.3c0-.1,0,0,.1,0h1c.1,0,.1-.1,0-.1h.7c.1.1,0,.1,0,.1H14c-.1-.1,0,0,0-.1h-.2c0-.1.1,0,0-.1h.8c.1.1.1,0,.1.1h0c0,.1.1,0,.1.1s0,0,.1-.1H15c0,.1-.1,0-.1.1h1.2c-.1,0-.1-.1-.1,0h-.2c.1,0,0-.1,0-.1h-.4a.1.1,0,0,1-.1-.1H13.4c.1.1,0,.1,0,.1h1s-.1,0,0,.1h1.1c-.1-.1-.1,0-.1-.1h1Zm-1.3-.4Zm-1-.2h0ZM6.5,8.8h0Zm0,.6h0Zm2.1-.2Zm1,0h0Zm.8,0Zm4.7.4h0Zm-.3-.4h0Zm1.2.1h0Zm-1.5-.9Zm.6,0s.1,0,0,.1Zm.3.1h0Zm.9-.3h0ZM15.8,8Zm-.5-.2h0Zm0,0Zm.6,1.1ZM15,7.4Zm.4.7Zm.5.9h0Zm0,0Zm-.1,0h0Zm-.4-.6Zm.3.6Zm.2.3h0C16,9.4,15.9,9.4,15.9,9.3Zm-.6-.9ZM15,7.7Zm.4.8Zm.4.8Zm-.2-.4Zm.1.3Zm-.6-.9h.1c.1,0,.1,0,0-.1h-.1Zm.5.7Zm-1-1.7h0Zm.2.4Zm.8,1.5h0ZM15.5,9Zm.1.2ZM15.4,9h0Zm0-.1Zm-.1-.1h0Zm.3.4h0Zm-.5-.8h0Zm.4.7Zm-.9-1.5s.1.1.1,0S14.6,7.7,14.6,7.6Zm1,1.7h-.1c0-.1.1-.1.1,0ZM15.4,9Zm.1.2ZM15,8.4Zm0-.1Zm.4.9h0Zm-.9-1.7Zm1,1.7h0Zm-.3-.4Zm.2.4h0ZM15.3,9h0Zm.1.2h0Zm-.5-.9Zm.3.7h0Zm-.9-1.6h0Zm.8,1.5h0Zm-.3-.6Zm.5,1h0s-.1-.1,0-.1Zm-.1-.1h0Zm-1-1.7h0Zm.5.8h0Zm.7,1.1Zm-.3-.3h0Zm-.4-.8Zm.2.4Zm.4.6h0Zm-.6-1Zm0,.1Zm.7,1.2h0ZM14,7.4Zm.7,1.3Zm-.3-.5Zm.3.5h0Zm-.9-1.3h0Zm1.3,2.1h0Zm-.3-.3Zm-.5-.8Zm.5,1.1h0Zm-.3-.6h0Zm.1.3h0Zm0-.1h0Zm-.3-.5Zm.4.9h0Zm.1,0Zm-.1,0h0Zm-.2-.4Zm.1,0h0ZM14.5,9ZM14,8.2Zm-.5-.8Zm1.2,2.1ZM14,8.4h0Zm.6,1Zm-.5-.8Zm.3.5Zm.1.3Zm-.2-.3ZM14.2,9h0Zm.1,0Zm.2.4ZM14.3,9Zm-.1.1h0Zm0-.1Zm.3.5Zm-.1-.1h0Zm0,.1h0ZM14.2,9h0Zm-.1,0h0Zm.2.3Zm0,.1Zm-.1-.3h0Zm.1.3Zm-.1,0Zm0,0h0Zm-.1,0ZM13.8,9Zm-.3-.6Zm.3.6Zm0,.1h0Zm.1.2Zm-.1-.2ZM13.7,9Zm0,0h0Zm-.3-.6h-.1c.1,0,0,0,0-.1Zm.3.7h0Zm.1.2h0Zm-.2-.4h0Zm-.1.1h0c0-.1.1-.1,0-.1h0Zm0,0h0Zm.3.3Zm-.1-.2Zm-.1,0h0Zm.2.2Zm-.6-.9Zm0,0h0Zm.4.7Zm0,.1ZM13.4,9Zm0-.1h0Zm0,.1Zm-1-1.6h0Zm.6,1Zm.3.5h0Zm.2.5ZM13.3,9h0Zm.1.3Zm0,.1ZM13.2,9h0Zm.1.2Zm.1.2ZM13.1,9h.1c0,.1-.1.1,0,.1Zm-.9-1.7Zm.6,1.1h0c-.1-.1,0-.1,0-.1Zm.5,1h0ZM13,8.8h0Zm0,.1Zm.3.5h0Zm-.1-.1h0ZM13,9h0Zm.3.4h0Zm-.1-.1Zm-.3-.4h0Zm-.1-.1Zm0,.1h0Zm-.1-.1Zm0,0Zm0,.1Zm-.1-.1Zm.2.5c0-.1,0,0,.1,0Zm0,0h0Zm0-.1Zm0,.1Zm-.3-.6h0Zm.2.6c0-.1,0-.1.1,0Zm-.2-.4h0Zm-.1-.1Zm0,.1c-.1-.1,0-.1,0-.1h0Zm-.1-.2Zm-1-1.3Zm.8,1.4Zm-.8-1.4h-.1c.1,0,0-.1.1-.1Zm-.1,0Zm.9,1.8Zm-.1.1h0c.1,0,.1-.1.1,0Zm0,0h0ZM11,7.5h0Zm1,1.8h0Zm-.1,0Zm0,.1ZM10.8,7.5h0Zm1,1.8h0c-.1,0-.1,0-.1-.1s.1,0,.1.1ZM10.7,7.4h0Zm1,1.9h0ZM10.6,7.5Zm1,1.8h0ZM10.5,7.5h0Zm1,1.8h0Zm-1-1.8h0Zm1,1.8Zm-.1,0h0Zm-1-1.8h.1c-.1.1,0,.1,0,.1Zm1,1.8Zm0-.1h0Zm-.1.1Zm-.1-.1h.1C11.2,9.3,11.2,9.3,11.2,9.2Zm0,0Zm0,0Zm-.1.1h.1C11.2,9.3,11.2,9.3,11.1,9.3Zm0-.1Zm-.2.1h0ZM9.5,9.2Zm-.1,0ZM8.1,7.6h0Zm0-.1ZM9,9.2ZM8,7.6H8ZM9,9.2ZM8,7.5ZM8,9.3Zm-.1,0h0Zm0,0ZM6.8,8.4h0Zm0,0Zm.5,1Zm-.6-.9h0Zm.4,1.1H7s.1-.1,0-.1h.1S7,9.5,7.1,9.6ZM6.4,8.4Zm.1.5Zm.2.5Zm-.1,0Zm-.1,0Zm0,.1Zm-.6-.2h0Z" fill="#d7c53b" fill-rule="evenodd"/><path d="M13.8,9.4Z" fill="#d7c53b" fill-rule="evenodd"/><path d="M16.1,7.6s0,.1-.1,0S16.1,7.7,16.1,7.6Z" fill="#d7c53b" fill-rule="evenodd"/><path d="M15.5,7.7Z" fill="#d7c53b" fill-rule="evenodd"/><path d="M16,8.6h0Z" fill="#d7c53b" fill-rule="evenodd"/><path d="M15.7,8.2Z" fill="#d7c53b" fill-rule="evenodd"/><path d="M15.8,8.3h0Z" fill="#d7c53b" fill-rule="evenodd"/><path d="M15.3,7.6Z" fill="#d7c53b" fill-rule="evenodd"/><path d="M15.8,8.5h0Z" fill="#d7c53b" fill-rule="evenodd"/><path d="M15.1,7.4Z" fill="#d7c53b" fill-rule="evenodd"/><path d="M16.2,9.4h0Z" fill="#d7c53b" fill-rule="evenodd"/><path d="M15.7,8.5Z" fill="#d7c53b" fill-rule="evenodd"/><path d="M15.2,7.7h0C15.1,7.6,15.2,7.6,15.2,7.7Z" fill="#d7c53b" fill-rule="evenodd"/><path d="M15.9,9.1Z" fill="#d7c53b" fill-rule="evenodd"/><path d="M15.5,8.8Z" fill="#d7c53b" fill-rule="evenodd"/><path d="M14.8,7.5h0Z" fill="#d7c53b" fill-rule="evenodd"/><path d="M14.7,7.5Z" fill="#d7c53b" fill-rule="evenodd"/><path d="M14.7,7.5h0Z" fill="#d7c53b" fill-rule="evenodd"/><path d="M15.6,9.7Z" fill="#d7c53b" fill-rule="evenodd"/><path d="M15.2,9.5Z" fill="#d7c53b" fill-rule="evenodd"/><path d="M15.1,9.4h0Z" fill="#d7c53b" fill-rule="evenodd"/><path d="M14.4,8.6h0Z" fill="#d7c53b" fill-rule="evenodd"/><path d="M14.7,9.3h0a.1.1,0,0,1-.1-.1h.1Z" fill="#d7c53b" fill-rule="evenodd"/><path d="M14.6,9.2h0Z" fill="#d7c53b" fill-rule="evenodd"/><path d="M14.6,9.3Z" fill="#d7c53b" fill-rule="evenodd"/><path d="M14.4,9.3h.1A.1.1,0,0,1,14.4,9.3Z" fill="#d7c53b" fill-rule="evenodd"/><path d="M14.3,9.5Z" fill="#d7c53b" fill-rule="evenodd"/><path d="M14.1,9.1h0Z" fill="#d7c53b" fill-rule="evenodd"/><path d="M13.7,8.4Z" fill="#d7c53b" fill-rule="evenodd"/><path d="M13.9,9.5h0Z" fill="#d7c53b" fill-rule="evenodd"/><path d="M13.9,9.5h0Z" fill="#d7c53b" fill-rule="evenodd"/><path d="M13.9,9.6h0Z" fill="#d7c53b" fill-rule="evenodd"/><path d="M13.7,9.5h0Z" fill="#d7c53b" fill-rule="evenodd"/><path d="M13.5,9.5h0Z" fill="#d7c53b" fill-rule="evenodd"/><path d="M13.5,9.5Z" fill="#d7c53b" fill-rule="evenodd"/><path d="M13.4,9.5h0Z" fill="#d7c53b" fill-rule="evenodd"/><path d="M13,9.4Z" fill="#d7c53b" fill-rule="evenodd"/><path d="M12.8,9.5h0Z" fill="#d7c53b" fill-rule="evenodd"/><path d="M12.6,9.4Z" fill="#d7c53b" fill-rule="evenodd"/><path d="M12.3,9.4Z" fill="#d7c53b" fill-rule="evenodd"/><path d="M11.8,9.4h0Z" fill="#d7c53b" fill-rule="evenodd"/><path d="M11.4,9.4Z" fill="#d7c53b" fill-rule="evenodd"/><path d="M11.1,9.2h0Z" fill="#d7c53b" fill-rule="evenodd"/><path d="M9.8,9.3Z" fill="#d7c53b" fill-rule="evenodd"/><path d="M8.6,7.3h0c0,.1,0,0-.1,0h0C8.6,7.3,8.6,7.4,8.6,7.3Z" fill="#d7c53b" fill-rule="evenodd"/><path d="M7.8,9.5Z" fill="#d7c53b" fill-rule="evenodd"/><path d="M7.7,9.5Z" fill="#d7c53b" fill-rule="evenodd"/></svg>